<?xml version="1.0" encoding="utf-8"?>
<!-- Generator: Adobe Illustrator 16.0.0, SVG Export Plug-In . SVG Version: 6.00 Build 0)  -->
<!DOCTYPE svg PUBLIC "-//W3C//DTD SVG 1.1//EN" "http://www.w3.org/Graphics/SVG/1.1/DTD/svg11.dtd">
<svg version="1.1" xmlns="http://www.w3.org/2000/svg" xmlns:xlink="http://www.w3.org/1999/xlink" x="0px" y="0px"
	 width="359.483px" height="123.275px" viewBox="0 0 359.483 123.275" enable-background="new 0 0 359.483 123.275"
	 xml:space="preserve">
<g id="Layer_2">
</g>
<g id="Layer_1">
	<g>
		<path fill="none" d="M62.9,30.757c-18.528,0-33.603,15.074-33.603,33.603c0,18.528,15.074,33.602,33.603,33.602
			S96.502,82.888,96.502,64.36C96.502,45.832,81.428,30.757,62.9,30.757z"/>
		<g>
			<path fill="#27AAE1" d="M63.089,27.289c-20.517,0-37.209,16.564-37.209,36.925c0,20.359,16.692,36.924,37.209,36.924
				s37.209-16.565,37.209-36.924C100.299,43.853,83.606,27.289,63.089,27.289z M62.899,98.741c-3.597,0-7.127-0.575-10.516-1.711
				c2.936-9.302,6.829-14.809,10.516-14.809s7.58,5.507,10.516,14.809C70.027,98.165,66.496,98.741,62.899,98.741z M63.089,68.335
				c1.937,0,3.513-1.563,3.513-3.485c0-1.417-0.857-2.636-2.082-3.181V50.572l9.196,16.427l-7.739,7.68h-5.777l-7.739-7.68
				l9.197-16.427v11.097c-1.225,0.546-2.082,1.764-2.082,3.181C59.577,66.771,61.153,68.335,63.089,68.335z M62.827,77.678h0.525
				h3.812h3.94c0.57,0,1.059,0.335,1.289,0.813v1.214c-0.23,0.479-0.719,0.813-1.289,0.813h-3.298h-9.43h-3.3
				c-0.789,0-1.431-0.637-1.431-1.42c0-0.784,0.642-1.421,1.431-1.421h3.94H62.827z M76.397,95.644
				c-1.689-5.42-3.646-9.59-5.815-12.443h0.521c2.368,0,4.293-1.91,4.293-4.26s-1.926-4.262-4.293-4.262h-1.078l6.479-6.428
				c0.452-0.449,0.55-1.141,0.239-1.694L64.34,44.402c-0.009-0.016-0.021-0.028-0.03-0.043c-0.021-0.035-0.042-0.068-0.066-0.1
				c-0.017-0.023-0.034-0.047-0.053-0.07c-0.018-0.021-0.036-0.039-0.054-0.059c-0.025-0.027-0.051-0.053-0.078-0.078
				c-0.021-0.019-0.043-0.04-0.065-0.058c-0.022-0.017-0.044-0.033-0.066-0.049c-0.032-0.023-0.064-0.043-0.097-0.063
				c-0.017-0.01-0.03-0.023-0.048-0.032c-0.007-0.005-0.016-0.006-0.023-0.01c-0.023-0.012-0.046-0.022-0.069-0.033
				c-0.037-0.017-0.074-0.031-0.112-0.045c-0.028-0.01-0.055-0.022-0.082-0.031c-0.023-0.007-0.047-0.011-0.07-0.016
				c-0.037-0.009-0.073-0.016-0.11-0.021c-0.031-0.005-0.061-0.013-0.092-0.016c-0.027-0.003-0.056-0.001-0.084-0.002
				c-0.018,0-0.034-0.005-0.052-0.005s-0.034,0.004-0.052,0.005c-0.029,0.001-0.057,0-0.085,0.002
				c-0.031,0.002-0.062,0.01-0.092,0.016c-0.036,0.006-0.072,0.013-0.107,0.021c-0.024,0.005-0.049,0.009-0.073,0.017
				c-0.028,0.008-0.055,0.021-0.083,0.031c-0.036,0.013-0.072,0.027-0.107,0.043c-0.024,0.011-0.049,0.021-0.074,0.035
				c-0.007,0.003-0.014,0.005-0.021,0.009c-0.018,0.009-0.032,0.022-0.049,0.033c-0.032,0.02-0.063,0.039-0.093,0.061
				c-0.024,0.017-0.048,0.034-0.071,0.053c-0.022,0.019-0.043,0.039-0.064,0.058c-0.026,0.023-0.05,0.047-0.074,0.073
				c-0.02,0.021-0.04,0.041-0.058,0.064s-0.035,0.046-0.053,0.069c-0.022,0.03-0.042,0.062-0.062,0.094
				c-0.01,0.017-0.023,0.03-0.033,0.047L49.435,66.557c-0.31,0.554-0.212,1.245,0.24,1.694l6.478,6.428h-1.078
				c-2.368,0-4.293,1.912-4.293,4.262s1.926,4.26,4.293,4.26h0.523c-2.169,2.854-4.126,7.023-5.815,12.443
				c-12.361-5.159-21.041-17.287-21.041-31.429c0-18.825,15.378-34.085,34.347-34.085s34.347,15.26,34.347,34.085
				C97.437,78.354,88.758,90.483,76.397,95.644z M52.967,77.19c-0.003,0.004-0.005,0.008-0.009,0.011V77.19H52.967z"/>
			<g>
				<path fill="#27AAE1" d="M61.627,81.831c-0.726,0.277-1.453,0.756-2.174,1.421h7.272c-0.721-0.665-1.448-1.144-2.174-1.421
					H61.627z"/>
				<path fill="#27AAE1" d="M61.627,81.831h-4.83c-0.407,0.43-0.807,0.904-1.2,1.421h3.856
					C60.175,82.587,60.902,82.108,61.627,81.831z"/>
				<path fill="#27AAE1" d="M64.552,81.831c0.726,0.277,1.453,0.756,2.174,1.421h3.855c-0.393-0.517-0.792-0.991-1.2-1.421H64.552z"
					/>
			</g>
		</g>
		<g>
			<path fill="#FFFFFF" d="M62.9,30.188c18.873,0,34.172,15.3,34.172,34.172S81.772,98.532,62.9,98.532
				c-18.873,0-34.172-15.3-34.172-34.172S44.027,30.188,62.9,30.188 M62.9,27.34c-20.413,0-37.02,16.607-37.02,37.02
				s16.607,37.02,37.02,37.02s37.02-16.607,37.02-37.02S83.313,27.34,62.9,27.34L62.9,27.34z"/>
			<path fill="#FFFFFF" d="M62.9,101.949c-20.727,0-37.589-16.862-37.589-37.589S42.173,26.771,62.9,26.771
				s37.589,16.862,37.589,37.589S83.627,101.949,62.9,101.949z M62.9,27.91c-20.099,0-36.45,16.351-36.45,36.45
				s16.352,36.45,36.45,36.45s36.45-16.351,36.45-36.45S82.999,27.91,62.9,27.91z M62.9,99.102
				c-19.157,0-34.742-15.585-34.742-34.742S43.743,29.618,62.9,29.618S97.642,45.203,97.642,64.36S82.057,99.102,62.9,99.102z
				 M62.9,30.757c-18.528,0-33.603,15.074-33.603,33.603c0,18.528,15.074,33.602,33.603,33.602S96.502,82.888,96.502,64.36
				C96.502,45.832,81.428,30.757,62.9,30.757z"/>
		</g>
	</g>
	<g>
		<path fill="#FFFFFF" d="M119.897,74.688c-1.228,0-2.37-0.197-3.425-0.592c-1.056-0.393-1.96-0.944-2.716-1.652
			c-0.756-0.709-1.354-1.543-1.795-2.504c-0.441-0.961-0.661-2.008-0.661-3.143c0-1.229,0.26-2.345,0.779-3.354
			c0.52-1.008,1.252-1.874,2.197-2.599c0.945-0.724,2.063-1.291,3.354-1.701c1.291-0.409,2.724-0.614,4.299-0.614
			c1.039,0,2.047,0.087,3.023,0.26c0.976,0.173,1.826,0.433,2.551,0.779v-1.134c0-2.866-1.653-4.299-4.96-4.299
			c-1.354,0-2.646,0.229-3.874,0.685c-1.229,0.457-2.52,1.142-3.874,2.055l-2.22-4.724c1.637-1.07,3.338-1.874,5.102-2.409
			c1.764-0.535,3.638-0.803,5.622-0.803c3.748,0,6.645,0.882,8.693,2.646c2.047,1.764,3.071,4.346,3.071,7.748v6.378
			c0,0.756,0.118,1.283,0.354,1.582c0.236,0.301,0.653,0.48,1.252,0.544v6.378c-0.661,0.156-1.26,0.26-1.795,0.307
			c-0.536,0.047-1.024,0.07-1.465,0.07c-1.417,0-2.488-0.275-3.212-0.826c-0.725-0.551-1.181-1.33-1.37-2.338l-0.142-1.135
			c-1.103,1.418-2.417,2.504-3.945,3.26C123.211,74.31,121.598,74.688,119.897,74.688z M122.118,69.255
			c0.818,0,1.613-0.142,2.386-0.426c0.771-0.283,1.409-0.66,1.913-1.133c0.724-0.567,1.086-1.165,1.086-1.795v-2.363
			c-0.661-0.251-1.378-0.449-2.149-0.59c-0.772-0.142-1.488-0.213-2.149-0.213c-1.386,0-2.527,0.315-3.425,0.945
			c-0.897,0.63-1.346,1.449-1.346,2.458c0,0.913,0.346,1.66,1.04,2.243C120.165,68.964,121.046,69.255,122.118,69.255z"/>
		<path fill="#FFFFFF" d="M156.226,74.688c-1.89,0-3.528-0.395-4.913-1.182c-1.386-0.787-2.457-1.89-3.212-3.307v14.078h-7.559
			V49.413h6.567v4.016c0.913-1.417,2.055-2.519,3.425-3.307c1.37-0.787,3-1.181,4.89-1.181c1.669,0,3.205,0.331,4.606,0.992
			c1.401,0.661,2.614,1.567,3.638,2.716c1.023,1.15,1.826,2.504,2.409,4.063c0.583,1.559,0.874,3.236,0.874,5.031
			c0,1.858-0.268,3.575-0.803,5.15c-0.536,1.574-1.276,2.937-2.221,4.086c-0.945,1.15-2.079,2.055-3.401,2.717
			C159.202,74.356,157.769,74.688,156.226,74.688z M153.675,68.31c0.819,0,1.566-0.18,2.244-0.543
			c0.677-0.361,1.268-0.842,1.771-1.44c0.503-0.599,0.89-1.299,1.158-2.103c0.267-0.803,0.401-1.646,0.401-2.527
			c0-0.913-0.15-1.755-0.449-2.527c-0.3-0.771-0.709-1.441-1.229-2.008s-1.15-1.008-1.89-1.323c-0.74-0.314-1.535-0.473-2.386-0.473
			c-1.039,0-2.04,0.307-3,0.921c-0.961,0.614-1.693,1.441-2.197,2.48v5.102c0.503,1.26,1.267,2.315,2.291,3.165
			C151.415,67.885,152.509,68.31,153.675,68.31z"/>
		<path fill="#FFFFFF" d="M170.682,39.729h7.559v25.652c0,1.89,0.803,2.835,2.409,2.835c0.378,0,0.795-0.055,1.252-0.166
			c0.457-0.109,0.874-0.275,1.252-0.496l0.992,5.67c-0.945,0.441-2.031,0.787-3.26,1.039c-1.228,0.252-2.378,0.378-3.449,0.378
			c-2.173,0-3.843-0.567-5.007-1.7c-1.166-1.135-1.748-2.771-1.748-4.914V39.729z"/>
		<path fill="#FFFFFF" d="M186.602,46.579v-6.85h7.559v6.85H186.602z M186.602,74.216V49.413h7.559v24.803H186.602z"/>
		<path fill="#FFFFFF" d="M197.893,61.791c0-1.701,0.299-3.331,0.897-4.889c0.599-1.559,1.465-2.929,2.599-4.11
			s2.527-2.118,4.181-2.811s3.535-1.04,5.646-1.04c2.865,0,5.275,0.607,7.229,1.819c1.951,1.213,3.416,2.795,4.393,4.748
			l-7.369,2.221c-0.977-1.575-2.41-2.362-4.299-2.362c-1.576,0-2.891,0.583-3.945,1.748c-1.055,1.166-1.582,2.725-1.582,4.677
			c0,0.977,0.142,1.866,0.425,2.669c0.284,0.803,0.677,1.488,1.181,2.055c0.504,0.567,1.094,1.009,1.771,1.323
			c0.678,0.315,1.395,0.472,2.15,0.472c0.944,0,1.811-0.228,2.598-0.685c0.787-0.456,1.37-1.046,1.748-1.771l7.37,2.268
			c-0.914,1.921-2.37,3.496-4.37,4.724c-2,1.229-4.434,1.844-7.299,1.844c-2.078,0-3.945-0.355-5.598-1.063
			c-1.654-0.709-3.056-1.653-4.205-2.835c-1.15-1.181-2.023-2.551-2.622-4.109C198.191,65.121,197.893,63.491,197.893,61.791z"/>
		<path fill="#FFFFFF" d="M233.323,74.688c-1.228,0-2.37-0.197-3.425-0.592c-1.056-0.393-1.961-0.944-2.717-1.652
			c-0.756-0.709-1.354-1.543-1.795-2.504s-0.661-2.008-0.661-3.143c0-1.229,0.26-2.345,0.779-3.354
			c0.52-1.008,1.252-1.874,2.196-2.599c0.945-0.724,2.063-1.291,3.354-1.701c1.291-0.409,2.724-0.614,4.3-0.614
			c1.039,0,2.047,0.087,3.023,0.26c0.975,0.173,1.826,0.433,2.551,0.779v-1.134c0-2.866-1.654-4.299-4.961-4.299
			c-1.354,0-2.646,0.229-3.873,0.685c-1.229,0.457-2.521,1.142-3.875,2.055l-2.22-4.724c1.638-1.07,3.338-1.874,5.103-2.409
			c1.764-0.535,3.637-0.803,5.621-0.803c3.748,0,6.645,0.882,8.693,2.646c2.047,1.764,3.07,4.346,3.07,7.748v6.378
			c0,0.756,0.117,1.283,0.354,1.582c0.236,0.301,0.654,0.48,1.252,0.544v6.378c-0.66,0.156-1.26,0.26-1.795,0.307
			s-1.023,0.07-1.465,0.07c-1.416,0-2.488-0.275-3.212-0.826c-0.725-0.551-1.181-1.33-1.37-2.338l-0.142-1.135
			c-1.103,1.418-2.417,2.504-3.944,3.26C236.638,74.31,235.023,74.688,233.323,74.688z M235.544,69.255
			c0.818,0,1.613-0.142,2.386-0.426c0.771-0.283,1.408-0.66,1.913-1.133c0.724-0.567,1.087-1.165,1.087-1.795v-2.363
			c-0.662-0.251-1.379-0.449-2.15-0.59s-1.488-0.213-2.148-0.213c-1.387,0-2.527,0.315-3.426,0.945
			c-0.897,0.63-1.346,1.449-1.346,2.458c0,0.913,0.346,1.66,1.039,2.243C233.591,68.964,234.473,69.255,235.544,69.255z"/>
		<path fill="#FFFFFF" d="M253.921,74.216v-7.701h6.189v7.701H253.921z"/>
		<path fill="#FFFFFF" d="M304.471,74.216h-7.56V60.279c0-1.637-0.299-2.826-0.897-3.566c-0.599-0.74-1.37-1.11-2.314-1.11
			c-0.504,0-1.016,0.111-1.535,0.331c-0.52,0.221-1.001,0.528-1.441,0.921c-0.441,0.394-0.843,0.858-1.204,1.394
			c-0.363,0.536-0.654,1.118-0.874,1.748v14.22h-7.559V60.279c0-1.637-0.3-2.826-0.898-3.566c-0.599-0.74-1.37-1.11-2.314-1.11
			c-1.009,0-1.992,0.401-2.952,1.205c-0.962,0.803-1.662,1.866-2.103,3.189v14.22h-7.559V49.413h6.803v4.158
			c0.913-1.512,2.149-2.661,3.708-3.449c1.56-0.787,3.378-1.181,5.457-1.181c1.039,0,1.944,0.126,2.716,0.378
			c0.771,0.252,1.441,0.599,2.008,1.04c0.567,0.441,1.023,0.953,1.37,1.535c0.347,0.583,0.598,1.205,0.756,1.866
			c0.945-1.543,2.188-2.732,3.732-3.567c1.543-0.834,3.307-1.252,5.291-1.252c1.574,0,2.842,0.292,3.803,0.874
			c0.961,0.583,1.708,1.339,2.244,2.268c0.535,0.929,0.89,1.945,1.063,3.047c0.173,1.103,0.261,2.173,0.261,3.213V74.216z"/>
		<path fill="#FFFFFF" d="M321.288,74.688c-2.079,0-3.944-0.34-5.599-1.017c-1.653-0.677-3.055-1.599-4.204-2.764
			c-1.15-1.165-2.024-2.511-2.622-4.039c-0.599-1.527-0.897-3.125-0.897-4.795c0-1.795,0.299-3.488,0.897-5.079
			c0.598-1.59,1.465-2.983,2.599-4.181c1.134-1.197,2.527-2.142,4.181-2.834s3.535-1.04,5.646-1.04c2.109,0,3.983,0.347,5.622,1.04
			c1.637,0.693,3.023,1.629,4.157,2.811s1.991,2.544,2.574,4.086c0.583,1.543,0.874,3.166,0.874,4.866
			c0,0.441-0.016,0.874-0.047,1.299c-0.032,0.425-0.079,0.796-0.142,1.11h-18.33c0.125,1.67,0.732,2.937,1.818,3.803
			c1.087,0.866,2.322,1.299,3.709,1.299c1.102,0,2.165-0.268,3.188-0.803s1.708-1.26,2.056-2.174l6.425,1.795
			c-0.977,1.953-2.488,3.544-4.535,4.771C326.61,74.073,324.153,74.688,321.288,74.688z M326.532,59.476
			c-0.158-1.575-0.726-2.818-1.701-3.732c-0.977-0.913-2.189-1.37-3.638-1.37c-1.48,0-2.701,0.465-3.661,1.394
			c-0.961,0.929-1.52,2.166-1.677,3.708H326.532z"/>
	</g>
</g>
</svg>
