<svg xmlns="http://www.w3.org/2000/svg" xmlns:xlink="http://www.w3.org/1999/xlink" width="1366" height="768" viewBox="0 0 1366 768"><defs><clipPath id="a"><rect width="1366" height="768" fill="#fff"/></clipPath><filter id="b" x="623.757" y="-240.837" width="774.673" height="936.261" filterUnits="userSpaceOnUse"><feOffset dx="-3" input="SourceAlpha"/><feGaussianBlur stdDeviation="10" result="c"/><feFlood flood-opacity="0.2"/><feComposite operator="in" in2="c"/><feComposite in="SourceGraphic"/></filter></defs><g transform="translate(-3901 940)"><rect width="1366" height="768" transform="translate(3901 -940)" fill="#fff"/><g transform="translate(3901 -940)" clip-path="url(#a)"><g transform="translate(-3142.603 -573.639)" opacity="0.5"><g transform="matrix(1, 0, 0, 1, 3142.6, 573.64)" filter="url(#b)"><path d="M744.439,897.161c-435.97-25.386-460.366-464.829-141.258-566.374S630.922,20.9,630.922,20.9h469.022l1.967,876.26Z" transform="translate(269.52 -231.74)" fill="#fff"/></g><rect width="9.099" height="419.094" transform="matrix(0.405, -0.915, 0.915, 0.405, 4275.603, 1261.038)" fill="#8cc63f"/><rect width="4.549" height="766.576" transform="matrix(0.405, -0.915, 0.915, 0.405, 4275.603, 1294.575)" fill="#8cc63f"/><rect width="9.836" height="453.039" transform="matrix(0.405, -0.915, 0.915, 0.405, 3561.603, 1005.436)" fill="#8cc63f"/><rect width="9.836" height="453.039" transform="matrix(0.405, -0.915, 0.915, 0.405, 2861.603, 563.436)" fill="#8cc63f"/><rect width="4.918" height="956.665" transform="matrix(0.405, -0.915, 0.915, 0.405, 3122.647, 888.799)" fill="#8cc63f"/><rect width="4.918" height="956.665" transform="matrix(0.405, -0.915, 0.915, 0.405, 2432.647, 393.799)" fill="#8cc63f"/><rect width="9.099" height="419.094" transform="matrix(0.405, -0.915, 0.915, 0.405, 3879.563, 665.843)" fill="#8cc63f"/><rect width="4.549" height="766.576" transform="matrix(0.405, -0.915, 0.915, 0.405, 3694.354, 628.244)" fill="#8cc63f"/><path d="M11.586,25.632V16.854H2.634a2.634,2.634,0,1,1,0-5.268h8.952V2.634a2.634,2.634,0,1,1,5.268,0v8.952h8.952a2.634,2.634,0,1,1,0,5.268H16.854v8.778a2.487,2.487,0,0,1-2.634,2.632A2.7,2.7,0,0,1,11.586,25.632Z" transform="translate(3714.988 907.993)" fill="#86868d"/><path d="M-755.742,590.514a2.565,2.565,0,0,1-.526-3.686l2.909-3.86-3.962-2.986a2.565,2.565,0,0,1-.526-3.687,2.565,2.565,0,0,1,3.686-.526l3.972,2.994,3.05-4.047a2.565,2.565,0,0,1,3.687-.527,2.565,2.565,0,0,1,.526,3.686l-3.057,4.056,3.935,2.965a2.565,2.565,0,0,1,.526,3.687,3.059,3.059,0,0,1-2.106,1.053,2.831,2.831,0,0,1-1.58-.527l-3.945-2.973-2.9,3.851a2.5,2.5,0,0,1-2.106,1.054A2.828,2.828,0,0,1-755.742,590.514Z" transform="translate(4192.224 377.456)" fill="#86868d"/><path d="M-755.742,590.514a2.565,2.565,0,0,1-.526-3.686l2.909-3.86-3.962-2.986a2.565,2.565,0,0,1-.526-3.687,2.565,2.565,0,0,1,3.686-.526l3.972,2.994,3.05-4.047a2.565,2.565,0,0,1,3.687-.527,2.565,2.565,0,0,1,.526,3.686l-3.057,4.056,3.935,2.965a2.565,2.565,0,0,1,.526,3.687,3.059,3.059,0,0,1-2.106,1.053,2.831,2.831,0,0,1-1.58-.527l-3.945-2.973-2.9,3.851a2.5,2.5,0,0,1-2.106,1.054A2.828,2.828,0,0,1-755.742,590.514Z" transform="translate(4267.224 145.456)" fill="#86868d"/><path d="M5.1,24.585A2.767,2.767,0,0,1,4.221,20.9L8.809,13.45,1.236,8.784A2.767,2.767,0,0,1,.358,5.1a2.769,2.769,0,0,1,3.686-.879L11.62,8.886l4.713-7.651A2.767,2.767,0,0,1,20.019.358,2.767,2.767,0,0,1,20.9,4.044L16.183,11.7l7.524,4.635a2.767,2.767,0,0,1,.877,3.686A3,3,0,0,1,22.3,21.25a4.145,4.145,0,0,1-1.4-.351l-7.527-4.637L8.784,23.707A2.558,2.558,0,0,1,6.5,24.936,4.145,4.145,0,0,1,5.1,24.585Z" transform="translate(4164.045 906.95)" fill="#86868d"/><path d="M1383.7,554.224a2.767,2.767,0,0,1-.877-3.686l4.588-7.448-7.573-4.666a2.68,2.68,0,0,1,2.809-4.565l7.576,4.667,4.714-7.651a2.68,2.68,0,0,1,4.565,2.809l-4.715,7.654,7.523,4.635a2.769,2.769,0,0,1,.878,3.687,3,3,0,0,1-2.282,1.228,4.141,4.141,0,0,1-1.4-.351l-7.526-4.636-4.587,7.445a2.558,2.558,0,0,1-2.281,1.229A4.112,4.112,0,0,1,1383.7,554.224Z" transform="translate(1866.17 659.389)" fill="#86868d"/><path d="M148.271,472.756a2.64,2.64,0,0,1-1.931-.7,2.546,2.546,0,0,1,0-3.687l16.327-16.327a2.607,2.607,0,0,1,3.687,3.687l-16.327,16.327A2.515,2.515,0,0,1,148.271,472.756Z" transform="translate(3177.786 1086.314)" fill="#e4e4e4"/><path d="M164.5,472.756a2.64,2.64,0,0,1-1.931-.7L146.24,455.727a2.607,2.607,0,0,1,3.687-3.687l16.327,16.327a2.546,2.546,0,0,1,0,3.687A2.036,2.036,0,0,1,164.5,472.756Z" transform="translate(3177.71 1086.314)" fill="#e4e4e4"/><path d="M9.558,24.481a2.617,2.617,0,0,1-1.931-3.16L9.3,14.249,2.009,12.541a2.618,2.618,0,1,1,1.229-5.09l7.264,1.7L12.19,2.009a2.619,2.619,0,1,1,5.091,1.229L15.6,10.347l7.123,1.668a2.616,2.616,0,0,1,1.931,3.16,2.854,2.854,0,0,1-2.634,1.931H21.5l-7.1-1.663-1.679,7.106a2.856,2.856,0,0,1-2.634,1.931Z" transform="translate(4234.253 1220.362)" fill="#86868d"/><path d="M46.545,440.706a4.13,4.13,0,0,1-1.4-.351L26,429.295a2.557,2.557,0,0,1,0-4.564L45.14,413.67a2.392,2.392,0,0,1,2.633,0,2.739,2.739,0,0,1,1.4,2.282v22.12a2.739,2.739,0,0,1-1.4,2.282A2.537,2.537,0,0,1,46.545,440.706ZM32.676,427.012l11.236,6.5V420.517Z" transform="translate(3086.4 1057.621)" fill="#e4e4e4"/><path d="M263.645,334.506a4.131,4.131,0,0,1-1.4-.351L243.1,323.095a2.557,2.557,0,0,1,0-4.564l19.136-11.06a2.392,2.392,0,0,1,2.633,0,2.74,2.74,0,0,1,1.4,2.282v22.12a2.74,2.74,0,0,1-1.4,2.282A2.537,2.537,0,0,1,263.645,334.506Zm-13.869-13.693,11.236,6.5V314.317Z" transform="translate(3847.903 969.134)" fill="#86868d"/><path d="M263.645,334.506a4.131,4.131,0,0,1-1.4-.351L243.1,323.095a2.557,2.557,0,0,1,0-4.564l19.136-11.06a2.392,2.392,0,0,1,2.633,0,2.74,2.74,0,0,1,1.4,2.282v22.12a2.74,2.74,0,0,1-1.4,2.282A2.537,2.537,0,0,1,263.645,334.506Zm-13.869-13.693,11.236,6.5V314.317Z" transform="translate(3284.325 925.134)" fill="#86868d"/><path d="M188.01,220.846h-.351a2.8,2.8,0,0,1-2.107-1.58L176.6,198.9a2.4,2.4,0,0,1,.351-2.633,2.537,2.537,0,0,1,2.458-1.053l21.945,2.458a2.8,2.8,0,0,1,2.107,1.58,2.4,2.4,0,0,1-.351,2.633l-13.167,17.907A2.017,2.017,0,0,1,188.01,220.846Zm-4.74-19.662,5.267,11.938,7.725-10.533Z" transform="translate(3141.072 871.837)" fill="#86868d"/><path d="M188.01,220.846h-.351a2.8,2.8,0,0,1-2.107-1.58L176.6,198.9a2.4,2.4,0,0,1,.351-2.633,2.537,2.537,0,0,1,2.458-1.053l21.945,2.458a2.8,2.8,0,0,1,2.107,1.58,2.4,2.4,0,0,1-.351,2.633l-13.167,17.907A2.017,2.017,0,0,1,188.01,220.846Zm-4.74-19.662,5.267,11.938,7.725-10.533Z" transform="translate(3120.072 506.837)" fill="#86868d"/><path d="M486.961,200.436a3.682,3.682,0,0,1-1.931-.7,2.607,2.607,0,0,1-.7-2.458l5.793-21.418a2.68,2.68,0,0,1,1.931-1.931,2.49,2.49,0,0,1,2.458.7l15.624,15.625a2.607,2.607,0,0,1,.7,2.458,2.68,2.68,0,0,1-1.931,1.931l-21.418,5.793C487.312,200.261,487.136,200.436,486.961,200.436Zm7.022-18.96-3.336,12.64,12.64-3.336Z" transform="translate(3392.704 822.73)" fill="#86868d"/><path d="M171.891,326.7a6.5,6.5,0,1,1-6.5-6.5A6.373,6.373,0,0,1,171.891,326.7Z" transform="translate(4053.703 993.797)" fill="#8cc63f"/><circle cx="6.496" cy="6.496" r="6.496" transform="translate(3950.532 1226.072)" fill="#8cc63f"/><circle cx="6.496" cy="6.496" r="6.496" transform="translate(3715.647 745.493)" fill="#8cc63f"/><circle cx="6.496" cy="6.496" r="6.496" transform="translate(3190.647 787.493)" fill="#8cc63f"/><path d="M618.591,131.5a6.5,6.5,0,1,1-6.5-6.5A6.6,6.6,0,0,1,618.591,131.5Z" transform="translate(3468.673 805.44)" fill="#ffc477"/><path d="M368.691,387.7a6.5,6.5,0,1,1-6.5-6.5A6.481,6.481,0,0,1,368.691,387.7Z" transform="translate(3305.932 832.603)" fill="#8cc63f"/><path d="M368.691,387.7a6.5,6.5,0,1,1-6.5-6.5A6.481,6.481,0,0,1,368.691,387.7Z" transform="translate(3101.932 698.603)" fill="#8cc63f"/></g></g></g></svg>