<svg xmlns="http://www.w3.org/2000/svg" xmlns:xlink="http://www.w3.org/1999/xlink" viewBox="0 0 138.48 80"><defs><style>.cls-1{fill:none;}.cls-2{fill:#7e7f7f;}.cls-3{clip-path:url(#clip-path);}.cls-4{fill:#afa8a5;}.cls-5{fill:#aaa3a0;}.cls-6{clip-path:url(#clip-path-2);}.cls-7{fill:#a59e9c;}.cls-8{fill:#a09a97;}.cls-9{fill:#9c9593;}.cls-10{fill:#97908e;}.cls-11{fill:#8d8785;}.cls-12{fill:#bbbab9;}.cls-13{clip-path:url(#clip-path-3);}.cls-14{clip-path:url(#clip-path-4);}.cls-15{fill:#12395f;}.cls-16{clip-path:url(#clip-path-5);}.cls-17{fill:#7e7977;}.cls-18{clip-path:url(#clip-path-6);}.cls-19{clip-path:url(#clip-path-7);}.cls-20{fill:#143f6a;}.cls-21{fill:#14416e;}.cls-22{fill:#154471;}.cls-23{fill:#164675;}.cls-24{fill:#164879;}.cls-25{fill:#174a7c;}.cls-26{fill:#184c80;}.cls-27{fill:#184e84;}.cls-28{clip-path:url(#clip-path-8);}.cls-29{clip-path:url(#clip-path-9);}.cls-30{fill:#837e7c;}.cls-31{fill:#888280;}.cls-32{fill:#928c89;}.cls-33{fill:#bbb4b1;}.cls-34{fill:#827d7b;}.cls-35{fill:#1a548d;}.cls-36{clip-path:url(#clip-path-10);}.cls-37{clip-path:url(#clip-path-11);}.cls-38{fill:#7e7d7d;}.cls-39{fill:#8b8a8a;}.cls-40{fill:#8f8f8e;}.cls-41{fill:#949392;}.cls-42{fill:#989797;}.cls-43{fill:#9c9c9b;}.cls-44{fill:#878685;}.cls-45{fill:#828281;}.cls-46{fill:#7a7978;}.cls-47{fill:#757574;}.cls-48{fill:#717070;}.cls-49{fill:#123a62;}.cls-50{clip-path:url(#clip-path-12);}.cls-51{fill:#133d66;}.cls-52{fill:#123b63;}.cls-53{fill:#f4e8e6;}.cls-54{fill:#51555a;}.cls-55{clip-path:url(#clip-path-13);}.cls-56{fill:#a1a09f;}.cls-57{fill:#5f5f60;}</style><clipPath id="clip-path"><path class="cls-1" d="M9.64,31V27.19C9.8,27,10,27,10,26.87v3.8A.33.33,0,0,1,9.64,31Z"/></clipPath><clipPath id="clip-path-2"><path class="cls-1" d="M9.64,31a2.43,2.43,0,0,0-1.1,1.9V29.09a2.25,2.25,0,0,1,1.1-1.9Z"/></clipPath><clipPath id="clip-path-3"><path class="cls-1" d="M.16,31.62v-3.8c0,1.27.79,2.38,2.37,3.32v3.8C1,34,.16,32.88.16,31.62Z"/></clipPath><clipPath id="clip-path-4"><path class="cls-1" d="M8.54,32.88V29.09a2.62,2.62,0,0,0,1.58,2.21v3.79A2.59,2.59,0,0,1,8.54,32.88Z"/></clipPath><clipPath id="clip-path-5"><path class="cls-1" d="M122,49.64a3.27,3.27,0,0,0-1.26-1.27V44.58A2.5,2.5,0,0,1,122,45.84Z"/></clipPath><clipPath id="clip-path-6"><path class="cls-1" d="M122,49.64h0v-.48h0V45.69a1.05,1.05,0,0,1,.16.94v3.8C122.36,50.27,122.2,50,122,49.64Z"/></clipPath><clipPath id="clip-path-7"><path class="cls-1" d="M122.36,46.79v3.8a2.66,2.66,0,0,1-1.58,2.21V49A3,3,0,0,0,122.36,46.79Z"/></clipPath><clipPath id="clip-path-8"><path class="cls-1" d="M131.68,48.53v3.8c0,1.26-.79,2.37-2.37,3.32v-3.8A4.33,4.33,0,0,0,131.68,48.53Z"/></clipPath><clipPath id="clip-path-9"><path class="cls-1" d="M53.75,5.84v3.8a7.77,7.77,0,0,0-7.43,0V5.84A8.78,8.78,0,0,1,53.75,5.84Z"/></clipPath><clipPath id="clip-path-10"><path class="cls-1" d="M102.91,64.66a1.29,1.29,0,0,0-.79,1.26V62.13a1.63,1.63,0,0,1,.79-1.27h0a5.06,5.06,0,0,1,4.27,0v3.8h0A4.1,4.1,0,0,0,102.91,64.66Z"/></clipPath><clipPath id="clip-path-11"><path class="cls-1" d="M108,62v3.79a1.63,1.63,0,0,1-.79,1.27,5.06,5.06,0,0,1-4.27,0,1.51,1.51,0,0,1-1-1.27V62a1.48,1.48,0,0,0,1,1.26,5,5,0,0,0,4.27,0A1.61,1.61,0,0,0,108,62Z"/></clipPath><clipPath id="clip-path-12"><path class="cls-1" d="M84.57,69.87v3.8a7.77,7.77,0,0,1-7.43,0v-3.8A7.72,7.72,0,0,0,84.57,69.87Z"/></clipPath><clipPath id="clip-path-13"><path class="cls-1" d="M89.63,74.77v3.8a12.13,12.13,0,0,1-11.38,0v-3.8A12.07,12.07,0,0,0,89.63,74.77Z"/></clipPath></defs><title>celular</title><g id="Layer_2" data-name="Layer 2"><g id="Layer_1-2" data-name="Layer 1"><path class="cls-2" d="M136.11,47,60.39,3.32C57.23,1.42,52,1.42,49,3.32L9.33,26.24c-3.16,1.9-3.16,4.74,0,6.64L85.05,76.67c3.16,1.9,8.38,1.9,11.38,0l39.68-23.08C139.27,51.7,139.27,48.85,136.11,47Z"/><g class="cls-3"><path class="cls-4" d="M10.12,26.87v3.8h0v-3.8h0"/><path class="cls-5" d="M10,26.87v3.8a2.26,2.26,0,0,0-.63.47V27.35c.15-.16.47-.32.63-.48"/></g><g class="cls-6"><path class="cls-5" d="M10,26.87v3.8a2.26,2.26,0,0,0-.63.47V27.35c.15-.16.47-.32.63-.48"/><path class="cls-7" d="M9.33,27.51V31.3L9,31.62v-3.8c.16-.16.16-.31.32-.31"/><path class="cls-8" d="M9,27.82v3.8c-.16.15-.16.15-.16.31V28.14A.58.58,0,0,1,9,27.82"/><path class="cls-9" d="M8.85,28.14v3.79c0,.16-.16.16-.16.32v-3.8c0-.15,0-.31.16-.31"/><path class="cls-10" d="M8.69,28.45v3.8c0,.16,0,.16-.15.31V28.77a.56.56,0,0,1,.15-.32"/><path class="cls-11" d="M8.54,29.09v3.79h0V29.09h0"/></g><path class="cls-12" d="M.16,31.62v-3.8c0,1.27.79,2.38,2.37,3.32v3.8C1,34,.16,32.88.16,31.62Z"/><g class="cls-13"><path class="cls-12" d="M2.53,31.14v3.8C1,34,.16,32.88.16,31.62v-3.8a4.19,4.19,0,0,0,2.37,3.32"/></g><g class="cls-14"><path class="cls-15" d="M10.12,31.3v3.79a2.59,2.59,0,0,1-1.58-2.21V29.09a2.62,2.62,0,0,0,1.58,2.21"/></g><g class="cls-16"><path class="cls-17" d="M122.36,46.79v3.8a2.66,2.66,0,0,0-1.58-2.22V44.58a3,3,0,0,1,1.58,2.21"/></g><g class="cls-18"><path class="cls-17" d="M122.36,46.79v3.8a2.66,2.66,0,0,0-1.58-2.22V44.58a3,3,0,0,1,1.58,2.21"/></g><g class="cls-19"><path class="cls-20" d="M122.36,46.79v3.8h0v-3.8h0"/><path class="cls-21" d="M122.36,46.79v.32c-.16-.16,0-.16,0-.32"/><path class="cls-22" d="M122.2,47.11V50.9c0,.16,0,.16-.16.32v-3.8c.16-.15.16-.15.16-.31"/><path class="cls-23" d="M122.2,47.42v3.8c0,.16-.16.16-.16.31V47.74c0-.16.16-.16.16-.32"/><path class="cls-24" d="M122,47.74v3.79c0,.16-.16.16-.16.32V48.06c0-.16.16-.16.16-.32"/><path class="cls-25" d="M121.88,48.06v3.79c-.16.16-.16.32-.31.32v-3.8c0-.15.15-.15.31-.31"/><path class="cls-26" d="M121.41,48.37v3.8c-.16.16-.48.31-.63.47V48.85a2.24,2.24,0,0,0,.63-.48"/><path class="cls-27" d="M120.78,48.85v3.79h0V48.85h0"/></g><path class="cls-12" d="M131.68,48.53v3.8c0,1.26-.79,2.37-2.37,3.32v-3.8A4.33,4.33,0,0,0,131.68,48.53Z"/><g class="cls-28"><path class="cls-12" d="M131.68,48.53v3.8h0v-3.8h0"/><path class="cls-12" d="M131.68,48.53V49a.31.31,0,0,1-.05-.43l.05,0"/><path class="cls-12" d="M131.53,49V52.8a.58.58,0,0,1-.16.47V49.48a.59.59,0,0,0,.16-.47"/><path class="cls-12" d="M131.37,49.48v3.79c0,.16-.16.32-.16.48V50a.58.58,0,0,0,.16-.47"/><path class="cls-12" d="M131.21,50v3.8c-.16.16-.16.31-.32.47V50.43c.16-.16.16-.32.32-.48"/><path class="cls-12" d="M130.89,50.43v3.79l-.47.48V50.9c.16,0,.32-.31.47-.47"/><path class="cls-12" d="M130.42,51.06v3.79c-.32.32-.63.48-.95.79V51.85a4.49,4.49,0,0,1,.95-.79"/><path class="cls-12" d="M129.31,51.69v3.8h-.16l.16-3.8h0"/></g><g class="cls-29"><path class="cls-17" d="M53.75,5.85V9.64A1.17,1.17,0,0,0,53,9.33V5.53c.31.16.47.16.79.32"/><path class="cls-30" d="M53,5.53v3.8a1,1,0,0,0-.63-.16V5.37c.31,0,.47,0,.63.16"/><path class="cls-31" d="M52.33,5.37v3.8c-.16,0-.32-.16-.64-.16V5.22c.32,0,.48,0,.64.15"/><path class="cls-11" d="M51.85,5.22V9a.58.58,0,0,1-.47-.16V5.06a2,2,0,0,0,.47.16"/><path class="cls-32" d="M51.22,5.06V8.85h-.48V5.06h.48"/><path class="cls-10" d="M50.74,5.06V8.85h-.47V5.06h.47"/><path class="cls-9" d="M50.27,5.06V8.85H49.8V5.06h.47"/><path class="cls-8" d="M49.64,5.06V8.85H49V5.06h.63"/><path class="cls-7" d="M49,5.06V8.85a1,1,0,0,0-.64.16V5.22A1.2,1.2,0,0,1,49,5.06"/><path class="cls-5" d="M48.37,5.06V8.85a2.19,2.19,0,0,0-.95.32V5.37c.32-.15.64-.15.95-.31"/><path class="cls-4" d="M47.43,5.37v3.8a7.87,7.87,0,0,0-1.11.47V5.85a6.88,6.88,0,0,1,1.11-.48"/></g><path class="cls-33" d="M46.32,5.85l-.16,4-36,21v-4Z"/><path class="cls-34" d="M120.78,44.58v3.79L53.75,9.8v-4Z"/><path class="cls-17" d="M107.68,62v3.79a1.58,1.58,0,0,0-.6-1.26c-.1,0-.2-.16-.3-.16V60.55c.1,0,.2.15.3.15a1.86,1.86,0,0,1,.6,1.27"/><path class="cls-35" d="M120.77,48.85V52.8l-36.2,21V69.87Z"/><g class="cls-36"><path class="cls-17" d="M108,62v3.79a1.47,1.47,0,0,0-1-1.26c-.16,0-.31-.16-.47-.16V60.55c.16,0,.31.15.47.15.63.48,1,.79,1,1.27"/><path class="cls-30" d="M106.71,60.55v3.79a.55.55,0,0,1-.32-.16V60.39c0,.16.16.16.32.16"/><path class="cls-31" d="M106.39,60.39v3.79h-.32V60.39h.32"/><path class="cls-11" d="M106.07,60.39v3.79h-.31V60.39h.31"/><path class="cls-32" d="M105.76,60.23V64h-.32V60.23h.32"/><path class="cls-10" d="M105.44,60.23V64h-.31V60.23h.31"/><path class="cls-9" d="M105.12,60.23V64h-.31V60.23h.31"/><path class="cls-8" d="M104.81,60.23V64h-.32V60.23h.32"/><path class="cls-7" d="M104.49,60.23V64h-.31V60.23c0,.16.15,0,.31,0"/><path class="cls-5" d="M104.18,60.39v3.79c-.16,0-.32.16-.64.16V60.55c.16-.16.32-.16.64-.16"/><path class="cls-4" d="M103.54,60.55v3.79a1.23,1.23,0,0,0-.63.32h0v-3.8h0a1.29,1.29,0,0,1,.63-.31"/><path class="cls-5" d="M102.91,60.7v3.8c-.16.16-.31.16-.31.31V61l.31-.32"/><path class="cls-7" d="M102.44,61v3.79l-.16.16V61.18c.16,0,.16,0,.16-.16"/><path class="cls-8" d="M102.28,61.34v3.79l-.16.16v-3.8l.16-.15"/><path class="cls-9" d="M102.12,61.49v3.8a.16.16,0,0,1-.15.16h0v-3.8l.16-.16"/><path class="cls-11" d="M102.12,62v3.79h0V62h0"/></g><g class="cls-37"><path class="cls-38" d="M108,62v3.79h0V62h0"/><path class="cls-39" d="M108,62.28v3.8a.17.17,0,0,1-.15.16h0v-3.8a.15.15,0,0,0,.16-.15h0"/><path class="cls-40" d="M107.81,62.6v3.79a.15.15,0,0,1-.15.16h0V62.76l.16-.16"/><path class="cls-41" d="M107.81,62.76v3.79l-.16.16V62.92c0-.16,0-.16.16-.16"/><path class="cls-42" d="M107.5,62.92v3.79l-.32.32v-3.8c.16-.16.32-.16.32-.31"/><path class="cls-43" d="M107.18,63.23V67h0c-.16.16-.47.16-.63.31V63.55c.16-.16.31-.16.63-.32h0"/><path class="cls-42" d="M106.55,63.55v3.79c-.16,0-.32.16-.63.16V63.71c.15-.16.31-.16.63-.16"/><path class="cls-41" d="M105.92,63.71V67.5h-.32V63.71h.32"/><path class="cls-40" d="M105.6,63.71V67.5h-.32V63.71h.32"/><path class="cls-39" d="M105.28,63.71V67.5H105V63.71h.31"/><path class="cls-44" d="M105,63.71V67.5h-.32V63.71H105"/><path class="cls-45" d="M104.65,63.71V67.5h-.32V63.71h.32"/><path class="cls-38" d="M104.33,63.71V67.5H104V63.71h.31"/><path class="cls-46" d="M104,63.55v3.79h-.32V63.55H104"/><path class="cls-47" d="M103.7,63.55v3.79c-.16,0-.31,0-.31-.15v-3.8c.15,0,.15.16.31.16"/><path class="cls-48" d="M103.39,63.39v3.8c-.16,0-.32-.16-.48-.16a1.51,1.51,0,0,1-1-1.27V62a1.48,1.48,0,0,0,1,1.26c.16,0,.32.16.48.16"/></g><path class="cls-12" d="M107.18,60.7a1.26,1.26,0,0,1,.75,1.62,1.21,1.21,0,0,1-.75.75,5,5,0,0,1-4.27,0,1.25,1.25,0,0,1-.75-1.61,1.28,1.28,0,0,1,.75-.76A5.06,5.06,0,0,1,107.18,60.7Z"/><path class="cls-49" d="M77.14,69.87v4l-67-38.74V31.3Z"/><g class="cls-50"><path class="cls-27" d="M84.57,69.87v3.8c-.31.15-.79.31-1.1.47V70.35a1.41,1.41,0,0,0,1.1-.48"/><path class="cls-26" d="M83.47,70.35v3.79c-.32.16-.63.16-1,.32v-3.8a2.27,2.27,0,0,0,1-.31"/><path class="cls-25" d="M82.52,70.66v3.8a.93.93,0,0,0-.63.15V70.82c.15,0,.31-.16.63-.16"/><path class="cls-24" d="M81.73,70.82v3.8H81.1v-3.8h.63"/><path class="cls-23" d="M81.25,70.82v3.8h-.47v-3.8h.47"/><path class="cls-22" d="M80.62,70.82v3.8h-.47v-3.8h.47"/><path class="cls-21" d="M80.15,70.82v3.8h-.48v-3.8h.48"/><path class="cls-20" d="M79.52,70.66v3.8A.6.6,0,0,1,79,74.3V70.5a.57.57,0,0,0,.48.16"/><path class="cls-51" d="M79,70.66v3.8c-.16,0-.31-.16-.63-.16V70.5c.32,0,.47.16.63.16"/><path class="cls-52" d="M78.57,70.5v3.8c-.16,0-.48-.16-.64-.16V70.35c.16,0,.32.15.64.15"/><path class="cls-15" d="M77.93,70.35v3.79c-.31-.16-.47-.16-.79-.32V70a2.48,2.48,0,0,1,.79.32"/></g><path class="cls-53" d="M129.15,45.21c3.17,1.9,3.17,4.74,0,6.64L89.48,74.93a12.09,12.09,0,0,1-11.39,0L2.37,31.14c-3.16-1.9-3.16-4.74,0-6.64L42.05,1.42a12.13,12.13,0,0,1,11.38,0ZM84.57,69.87l36.2-21c2.06-1.27,2.06-3.16,0-4.43l-67-38.73a7.77,7.77,0,0,0-7.43,0l-36.2,21C8.06,28,8.06,29.88,10.12,31l67,38.73a7.32,7.32,0,0,0,7.43.16m18.34-6.64a5,5,0,0,0,4.27,0,1.26,1.26,0,0,0,.75-1.62,1.24,1.24,0,0,0-.75-.75,5.06,5.06,0,0,0-4.27,0,1.27,1.27,0,0,0-.75,1.62,1.24,1.24,0,0,0,.75.75"/><path class="cls-54" d="M120.78,48.85,90.11,66.71l-5.54,3.16a7.72,7.72,0,0,1-7.43,0l-67-38.73c-2.06-1.1-2.06-3.16,0-4.27l34-19.76,2.22-1.26a7.72,7.72,0,0,1,7.43,0l67,38.73C122.83,45.69,122.83,47.74,120.78,48.85Z"/><path class="cls-12" d="M129.31,51.85v3.8L89.63,78.73v-4Z"/><path class="cls-12" d="M78.25,74.77v4L2.53,34.94v-3.8Z"/><path class="cls-12" d="M89.63,74.77v3.8a12.13,12.13,0,0,1-11.38,0v-3.8A12.07,12.07,0,0,0,89.63,74.77Z"/><g class="cls-55"><path class="cls-12" d="M89.63,74.77v3.8a6.09,6.09,0,0,1-1.74.79v-3.8a5.59,5.59,0,0,0,1.74-.79"/><path class="cls-12" d="M87.89,75.56v3.8a4.72,4.72,0,0,1-1.58.31V75.88a4.5,4.5,0,0,0,1.58-.32"/><path class="cls-12" d="M86.31,76v3.79c-.31,0-.63.16-1.1.16V76.2a2.94,2.94,0,0,1,1.1-.16"/><path class="cls-12" d="M85.37,76.2V80h-1V76.2h1"/><path class="cls-12" d="M84.42,76.2V80h-.79V76.2h.79"/><path class="cls-12" d="M83.63,76.2V80h-.79V76.2h.79"/><path class="cls-12" d="M82.84,76.2V80a1.43,1.43,0,0,1-.79-.16V76a6.91,6.91,0,0,0,.79.16"/><path class="cls-12" d="M82.05,76v3.79c-.32,0-.48-.16-.79-.16V75.88a1.2,1.2,0,0,0,.79.16"/><path class="cls-12" d="M81.25,75.88v3.79a7.32,7.32,0,0,1-.79-.15v-3.8a1.16,1.16,0,0,0,.79.16"/><path class="cls-12" d="M80.31,75.72v3.8c-.32-.16-.63-.16-1-.32V75.41c.31.15.63.15,1,.31"/><path class="cls-12" d="M79.36,75.41V79.2a2.51,2.51,0,0,1-1.11-.63v-3.8a2.63,2.63,0,0,0,1.11.64"/></g><path class="cls-56" d="M29.72,11.7a.33.33,0,0,1,.22.41.32.32,0,0,1-.22.22L25,15a1.34,1.34,0,0,1-1.11,0,.32.32,0,0,1-.22-.41.31.31,0,0,1,.22-.22l4.74-2.69A1.34,1.34,0,0,1,29.72,11.7Z"/><path class="cls-57" d="M90.11,66.71l-5.54,3.17a7.77,7.77,0,0,1-7.43,0l-67-38.73C8.06,30,8.06,28,10.12,26.88l34-19.76A118.83,118.83,0,0,1,90.11,66.71Z"/></g></g></svg>