<svg xmlns="http://www.w3.org/2000/svg" width="162.645" height="231.516" viewBox="0 0 162.645 231.516">
  <g id="Think_Out_Of_The_Box" data-name="Think Out Of The Box" transform="translate(-74.37)">
    <g id="Grupo_378" data-name="Grupo 378" transform="translate(120.449 82.87)">
      <g id="Grupo_377" data-name="Grupo 377" transform="translate(0)">
        <path id="Caminho_477" data-name="Caminho 477" d="M226.326,244.984a35.241,35.241,0,1,0-34.14.142,17.63,17.63,0,0,1,5.981,5.366h22.248A17.067,17.067,0,0,1,226.326,244.984Z" transform="translate(-173.887 -178.973)" fill="#fddf7f"/>
      </g>
    </g>
    <g id="Grupo_380" data-name="Grupo 380" transform="translate(82.16 154.388)">
      <g id="Grupo_379" data-name="Grupo 379" transform="translate(0)">
        <path id="Caminho_478" data-name="Caminho 478" d="M212.877,333.429h-96.3L91.194,358.273h25.381v49.968h96.3V358.273h25.381Z" transform="translate(-91.194 -333.429)" fill="#1798e0"/>
      </g>
    </g>
    <g id="Grupo_382" data-name="Grupo 382" transform="translate(76.685 30.06)">
      <g id="Grupo_381" data-name="Grupo 381">
        <path id="Caminho_479" data-name="Caminho 479" d="M90.806,129.906a69.333,69.333,0,0,1,135.143,0h11.436a80.52,80.52,0,0,0-158.014,0Z" transform="translate(-79.37 -64.919)" fill="#1798e0"/>
      </g>
    </g>
    <g id="Grupo_384" data-name="Grupo 384" transform="translate(99.657 52.426)">
      <g id="Grupo_383" data-name="Grupo 383" transform="translate(0)">
        <path id="Caminho_480" data-name="Caminho 480" d="M140.706,155.844a46.948,46.948,0,0,1,88.623,0h11.723a58.146,58.146,0,0,0-112.07,0Z" transform="translate(-128.983 -113.224)" fill="#dc1924"/>
      </g>
    </g>
    <g id="Grupo_386" data-name="Grupo 386" transform="translate(88.12 41.243)">
      <g id="Grupo_385" data-name="Grupo 385">
        <path id="Caminho_481" data-name="Caminho 481" d="M115.6,142.875a58.146,58.146,0,0,1,112.07,0H239.21a69.333,69.333,0,0,0-135.143,0Z" transform="translate(-104.067 -89.072)" fill="#ecf4f7"/>
      </g>
    </g>
    <path id="Caminho_482" data-name="Caminho 482" d="M188.59,116.707a32.912,32.912,0,0,0-32.427-31.518c-.158,0-.317,0-.474,0a32.926,32.926,0,0,0-19.082,59.758,2.315,2.315,0,1,1-2.687,3.771,37.556,37.556,0,0,1,21.765-68.159c.181,0,.36,0,.541,0a37.556,37.556,0,0,1,21.237,68.156,2.315,2.315,0,1,1-2.687-3.77A32.884,32.884,0,0,0,188.59,116.707Zm42.254,60.871a2.315,2.315,0,0,1-1.619,3.97H181.073a2.315,2.315,0,0,1-1.62-.661l-23.761-23.259-23.761,23.259a2.315,2.315,0,0,1-1.62.661H82.159a2.315,2.315,0,0,1-1.619-3.97l25.381-24.844a2.313,2.313,0,0,1,1.619-.661h96.3a2.313,2.313,0,0,1,1.619.661ZM150.017,156.7H108.485L87.834,176.918h41.532Zm73.533,20.214L202.9,156.7H161.367l20.651,20.214Zm-19.706,7.438a2.315,2.315,0,0,0-2.315,2.315v40.215H158.007v-50.32a2.315,2.315,0,0,0-4.63,0v50.32H109.856V186.671a2.315,2.315,0,0,0-4.63,0V229.2a2.315,2.315,0,0,0,2.315,2.315h96.3a2.315,2.315,0,0,0,2.315-2.315v-42.53A2.315,2.315,0,0,0,203.844,184.356ZM150.61,9.712h2.767v2.767a2.315,2.315,0,0,0,4.63,0V9.712h2.767a2.315,2.315,0,0,0,0-4.63h-2.767V2.315a2.315,2.315,0,0,0-4.63,0V5.082H150.61a2.315,2.315,0,1,0,0,4.63Zm71.837,38.424h2.767V50.9a2.315,2.315,0,1,0,4.63,0V48.136h2.767a2.315,2.315,0,0,0,0-4.63h-2.767V40.739a2.315,2.315,0,1,0-4.63,0v2.767h-2.767a2.315,2.315,0,0,0,0,4.63Zm-143.674,0H81.54V50.9a2.315,2.315,0,1,0,4.63,0V48.136h2.767a2.315,2.315,0,1,0,0-4.63H86.171V40.739a2.315,2.315,0,1,0-4.63,0v2.767H78.774a2.315,2.315,0,1,0,0,4.63ZM236.971,94.6a82.835,82.835,0,0,0-162.559,0,2.315,2.315,0,1,0,4.544.888,78.2,78.2,0,0,1,153.47,0,2.315,2.315,0,0,0,2.269,1.872,2.341,2.341,0,0,0,.447-.044A2.315,2.315,0,0,0,236.971,94.6ZM200,97.362a2.317,2.317,0,0,0,2.185-3.083,49.263,49.263,0,0,0-92.992,0,2.315,2.315,0,0,0,4.369,1.535,44.632,44.632,0,0,1,84.253,0A2.317,2.317,0,0,0,200,97.362Zm23.259,0a2.317,2.317,0,0,0,2.259-2.834,71.661,71.661,0,0,0-139.657,0,2.315,2.315,0,1,0,4.513,1.036,67.019,67.019,0,0,1,130.631,0A2.315,2.315,0,0,0,223.262,97.362Zm-11.536,0a2.317,2.317,0,0,0,2.232-2.935,60.461,60.461,0,0,0-116.531,0,2.315,2.315,0,1,0,4.462,1.238,55.83,55.83,0,0,1,107.607,0A2.318,2.318,0,0,0,211.725,97.362ZM155.692,170.9a2.315,2.315,0,0,0,2.315-2.315v-1.776a2.315,2.315,0,0,0-4.63,0v1.776A2.315,2.315,0,0,0,155.692,170.9Zm0-21.757a2.315,2.315,0,0,0,2.315-2.315V128.951l10.6-10.71a2.315,2.315,0,0,0-3.29-3.258l-9.63,9.725-9.63-9.725a2.315,2.315,0,0,0-3.29,3.258l10.6,10.709v17.879A2.315,2.315,0,0,0,155.692,149.145Z" fill="#1c1d21"/>
  </g>
</svg>
