<svg id="Vision" xmlns="http://www.w3.org/2000/svg" width="191.683" height="191.683" viewBox="0 0 191.683 191.683">
  <g id="Grupo_339" data-name="Grupo 339" transform="translate(1.917 1.917)">
    <circle id="Elipse_17" data-name="Elipse 17" cx="93.925" cy="93.925" r="93.925" fill="none"/>
  </g>
  <g id="Grupo_340" data-name="Grupo 340" transform="translate(23.512 23.512)">
    <circle id="Elipse_18" data-name="Elipse 18" cx="72.329" cy="72.329" r="72.329" fill="#dc1924"/>
  </g>
  <g id="Grupo_341" data-name="Grupo 341" transform="translate(45.061 69.075)">
    <path id="Caminho_447" data-name="Caminho 447" d="M170.561,180.179h-4.478c-18.407,0-35.987,11.088-48.541,30.615h0c12.554,19.528,30.135,30.615,48.541,30.615h4.479c18.407,0,35.987-11.088,48.541-30.615h0C206.547,191.267,188.967,180.179,170.561,180.179Z" transform="translate(-117.541 -180.179)" fill="#ecf4f7"/>
  </g>
  <g id="Grupo_342" data-name="Grupo 342" transform="translate(69.417 69.075)">
    <path id="Caminho_448" data-name="Caminho 448" d="M205.258,180.179a47.934,47.934,0,0,0-20.7,4.809,26.424,26.424,0,1,0,45.874,0,47.934,47.934,0,0,0-20.7-4.809Z" transform="translate(-181.073 -180.179)" fill="#1798e0"/>
  </g>
  <path id="Caminho_449" data-name="Caminho 449" d="M154.585,25.024a1.917,1.917,0,0,1,2.45-2.948q.85.706,1.683,1.431A1.917,1.917,0,1,1,156.2,26.4Q155.4,25.7,154.585,25.024Zm10.708,4.771a1.917,1.917,0,0,0-2.777,2.643A91.867,91.867,0,1,1,146.471,19a1.917,1.917,0,0,0,2.112-3.2A95.874,95.874,0,1,0,95.842,191.683,95.842,95.842,0,0,0,165.293,29.795ZM95.842,21.6a74.187,74.187,0,1,0,68.246,44.959,1.917,1.917,0,0,0-3.522,1.514,70.5,70.5,0,1,1-10.988-17.73,1.917,1.917,0,0,0,2.924-2.479A74.155,74.155,0,0,0,95.842,21.6ZM155.3,58.1a1.917,1.917,0,0,0,3.236-2.057c-.366-.576-.748-1.159-1.136-1.732a1.917,1.917,0,1,0-3.176,2.146C154.588,57,154.95,57.557,155.3,58.1Zm-83.48,14.2a1.9,1.9,0,0,1,.264-.154A50.378,50.378,0,0,1,89.9,67.3l.357-.026q.644-.045,1.289-.073c.142-.006.284-.013.426-.018.542-.018,1.084-.031,1.627-.031h4.479c.543,0,1.085.012,1.626.031.143,0,.286.012.429.018q.644.028,1.288.073l.357.026A50.375,50.375,0,0,1,119.6,72.152a1.9,1.9,0,0,1,.264.154c10.75,5.2,20.557,14.2,28.368,26.347a1.917,1.917,0,0,1,0,2.073c-12.868,20.016-31.149,31.5-50.153,31.5H93.6c-19,0-37.285-11.48-50.153-31.5a1.917,1.917,0,0,1,0-2.073C51.26,86.5,61.066,77.507,71.817,72.306ZM93.6,70.991c-.494,0-.988.011-1.481.028-.126,0-.251.011-.377.016q-.608.026-1.214.068l-.274.019a46.506,46.506,0,0,0-15.995,4.266,24.507,24.507,0,1,0,43.161,0,46.5,46.5,0,0,0-15.995-4.266l-.274-.019q-.607-.043-1.214-.068c-.126-.005-.251-.011-.377-.016-.493-.017-.987-.028-1.481-.028H93.6ZM47.35,99.69c12.1,18.256,28.9,28.7,46.252,28.7h4.479c17.349,0,34.149-10.442,46.252-28.7A70.153,70.153,0,0,0,122.8,78.27a28.341,28.341,0,1,1-53.918,0A70.16,70.16,0,0,0,47.35,99.69Zm50.408-46.3V47.4a1.917,1.917,0,1,0-3.834,0v5.987a1.917,1.917,0,1,0,3.834,0Zm32.792,11.018a1.915,1.915,0,0,0,1.535-.767l3.018-4.024a1.917,1.917,0,1,0-3.067-2.3l-3.018,4.024a1.917,1.917,0,0,0,1.532,3.067Zm-69.418,0a1.917,1.917,0,0,0,1.532-3.067l-3.018-4.024a1.917,1.917,0,1,0-3.067,2.3L59.6,63.639A1.914,1.914,0,0,0,61.132,64.406Z" transform="translate(0)" fill="#1c1d21"/>
</svg>
