<?xml version="1.0" encoding="utf-8"?>
<!-- Generator: Adobe Illustrator 16.0.0, SVG Export Plug-In . SVG Version: 6.00 Build 0)  -->
<!DOCTYPE svg PUBLIC "-//W3C//DTD SVG 1.1//EN" "http://www.w3.org/Graphics/SVG/1.1/DTD/svg11.dtd">
<svg version="1.1" id="Layer_1" xmlns="http://www.w3.org/2000/svg" xmlns:xlink="http://www.w3.org/1999/xlink" x="0px" y="0px"
	 width="538px" height="129px" viewBox="0 0 538 129" enable-background="new 0 0 538 129" xml:space="preserve">
<g>
	<g>
		<path fill="#FFFFFF" d="M195.1,45.4c2.7,0,5,0.3,6.9,0.8c2,0.5,3.6,1.3,4.9,2.3c1.3,1,2.2,2.3,2.8,3.7c0.6,1.5,0.9,3.1,0.9,5
			c0,1.2-0.2,2.4-0.6,3.6c-0.4,1.1-1,2.2-1.8,3.2c-0.8,1-1.8,1.8-3,2.5c-1.2,0.7-2.5,1.3-4,1.6c3.7,0.5,6.5,1.7,8.5,3.6
			c2,1.9,3,4.4,3,7.5c0,2-0.4,3.8-1.1,5.3c-0.7,1.6-1.7,2.9-3.1,4c-1.3,1.1-3,1.9-5,2.5c-2,0.6-4.2,0.9-6.7,0.9h-15.2V45.4H195.1z
			 M185.1,48v19.2h10.1c2.2,0,4-0.3,5.5-0.8c1.5-0.5,2.8-1.3,3.8-2.2c1-0.9,1.7-1.9,2.2-3.1c0.5-1.1,0.7-2.3,0.7-3.5
			c0-3.1-1-5.5-3-7.1c-2-1.6-5.1-2.4-9.2-2.4H185.1z M196.8,89.4c4.1,0,7.2-0.9,9.3-2.7c2.1-1.8,3.2-4.3,3.2-7.5
			c0-1.5-0.3-2.8-0.8-4c-0.6-1.2-1.4-2.2-2.4-3c-1.1-0.8-2.4-1.5-3.9-1.9c-1.5-0.4-3.3-0.7-5.2-0.7h-11.8v19.7H196.8z"/>
		<path fill="#FFFFFF" d="M264.9,68.7c0,3.6-0.5,6.9-1.6,9.8s-2.6,5.4-4.6,7.5c-2,2.1-4.3,3.7-7,4.8c-2.7,1.1-5.8,1.7-9.1,1.7
			c-3.3,0-6.3-0.6-9-1.7c-2.7-1.1-5.1-2.7-7-4.8c-2-2.1-3.5-4.6-4.6-7.5c-1.1-2.9-1.6-6.2-1.6-9.8c0-3.6,0.5-6.9,1.6-9.8
			c1.1-2.9,2.6-5.4,4.6-7.5c2-2.1,4.3-3.7,7-4.8c2.7-1.1,5.7-1.7,9-1.7c3.3,0,6.3,0.6,9.1,1.7c2.7,1.1,5.1,2.7,7,4.8
			c2,2.1,3.5,4.6,4.6,7.5C264.4,61.9,264.9,65.1,264.9,68.7z M261.4,68.7c0-3.3-0.5-6.2-1.4-8.8c-0.9-2.6-2.2-4.8-3.8-6.6
			c-1.7-1.8-3.6-3.2-5.9-4.1c-2.3-1-4.9-1.4-7.7-1.4c-2.8,0-5.3,0.5-7.6,1.4c-2.3,1-4.3,2.3-6,4.1c-1.7,1.8-2.9,4-3.9,6.6
			c-0.9,2.6-1.4,5.5-1.4,8.8c0,3.3,0.5,6.2,1.4,8.8c0.9,2.6,2.2,4.8,3.9,6.6c1.7,1.8,3.6,3.2,6,4.1c2.3,0.9,4.9,1.4,7.6,1.4
			c2.8,0,5.3-0.5,7.7-1.4c2.3-0.9,4.3-2.3,5.9-4.1c1.7-1.8,2.9-4,3.8-6.6S261.4,72,261.4,68.7z"/>
		<path fill="#FFFFFF" d="M311.7,45.4v46.7h-1.6c-0.3,0-0.5,0-0.7-0.1c-0.2-0.1-0.4-0.3-0.5-0.5l-30.3-40.5c0.1,0.7,0.1,1.3,0.1,1.9
			v39.3h-3V45.4h1.7c0.3,0,0.5,0,0.7,0.1c0.2,0.1,0.3,0.2,0.5,0.5l30.3,40.4c-0.1-0.7-0.1-1.3-0.1-1.9V45.4H311.7z"/>
		<path fill="#FFFFFF" d="M348.2,51c-0.2,0.4-0.5,0.6-0.9,0.6c-0.3,0-0.7-0.2-1.1-0.6c-0.5-0.4-1.1-0.9-1.8-1.4
			c-0.8-0.5-1.7-1-2.9-1.4c-1.2-0.4-2.6-0.6-4.3-0.6c-1.7,0-3.2,0.2-4.5,0.7c-1.3,0.5-2.4,1.1-3.2,2s-1.5,1.8-2,2.9
			c-0.5,1.1-0.7,2.3-0.7,3.5c0,1.6,0.3,2.9,1,3.9c0.7,1,1.6,1.9,2.7,2.6c1.1,0.7,2.3,1.3,3.7,1.8s2.8,1,4.3,1.5
			c1.5,0.5,2.9,1,4.3,1.6c1.4,0.6,2.6,1.3,3.7,2.2c1.1,0.9,2,2,2.7,3.3c0.7,1.3,1,2.9,1,4.8c0,2-0.3,3.8-1,5.5
			c-0.7,1.7-1.6,3.2-2.9,4.5s-2.8,2.3-4.7,3c-1.8,0.7-4,1.1-6.3,1.1c-3.1,0-5.7-0.5-8-1.6c-2.2-1.1-4.2-2.6-5.8-4.5l0.9-1.5
			c0.3-0.3,0.6-0.5,0.9-0.5c0.2,0,0.5,0.1,0.8,0.4s0.7,0.6,1.1,1c0.4,0.4,1,0.8,1.6,1.3c0.6,0.5,1.3,0.9,2.1,1.3
			c0.8,0.4,1.8,0.7,2.8,1c1.1,0.3,2.3,0.4,3.6,0.4c1.8,0,3.5-0.3,5-0.8c1.5-0.6,2.7-1.3,3.7-2.3c1-1,1.8-2.1,2.3-3.5
			c0.5-1.3,0.8-2.8,0.8-4.3c0-1.7-0.3-3-1-4.1c-0.7-1.1-1.6-2-2.7-2.7s-2.3-1.3-3.7-1.8c-1.4-0.5-2.8-1-4.3-1.4s-2.9-1-4.3-1.6
			c-1.4-0.6-2.6-1.3-3.7-2.2c-1.1-0.9-2-2-2.7-3.3c-0.7-1.3-1-3-1-5c0-1.6,0.3-3.1,0.9-4.5c0.6-1.5,1.5-2.7,2.6-3.8
			c1.1-1.1,2.6-2,4.2-2.7c1.7-0.7,3.6-1,5.8-1c2.4,0,4.6,0.4,6.5,1.2c1.9,0.8,3.7,1.9,5.3,3.5L348.2,51z"/>
		<path fill="#FFFFFF" d="M395.6,92.1H393c-0.3,0-0.6-0.1-0.8-0.2s-0.4-0.4-0.5-0.6l-5.5-13.6h-22.9l-5.5,13.6
			c-0.1,0.2-0.2,0.5-0.5,0.6c-0.2,0.2-0.5,0.3-0.8,0.3h-2.6l19.1-46.7h3.3L395.6,92.1z M385.3,75.1l-9.5-23.6
			c-0.3-0.8-0.6-1.7-1-2.8c-0.1,0.5-0.3,1-0.4,1.5c-0.2,0.5-0.3,0.9-0.5,1.3l-9.5,23.6H385.3z"/>
		<path fill="#FFFFFF" d="M406.8,92.1h-3.4V45.4h3.4V92.1z"/>
		<path fill="#FFFFFF" d="M438,86.4c1.9,0,3.6-0.3,5.1-1s2.8-1.5,3.8-2.7c1-1.2,1.8-2.5,2.4-4.1c0.5-1.6,0.8-3.4,0.8-5.3V44.7h7
			v28.7c0,2.8-0.4,5.3-1.3,7.7c-0.9,2.4-2.1,4.4-3.8,6.1c-1.7,1.7-3.7,3.1-6,4c-2.4,1-5,1.5-8,1.5s-5.6-0.5-8-1.5
			c-2.4-1-4.4-2.3-6-4c-1.7-1.7-2.9-3.8-3.8-6.1c-0.9-2.4-1.3-4.9-1.3-7.7V44.7h7v28.7c0,1.9,0.3,3.7,0.8,5.3c0.5,1.6,1.3,3,2.4,4.1
			c1,1.2,2.3,2.1,3.8,2.7C434.4,86.1,436.1,86.4,438,86.4z"/>
		<path fill="#FFFFFF" d="M505,92.1h-7c-0.5,0-0.9-0.1-1.2-0.4c-0.3-0.3-0.5-0.6-0.7-0.9l-12.2-19.5c-0.2,0.6-0.4,1-0.6,1.4
			l-11.9,18.1c-0.2,0.3-0.5,0.6-0.8,0.9c-0.3,0.3-0.6,0.4-1.1,0.4h-6.6l16.2-24.4l-15.5-23h7c0.5,0,0.9,0.1,1.1,0.2
			c0.2,0.2,0.5,0.4,0.6,0.7l12,18.6c0.2-0.6,0.4-1.1,0.7-1.6l11.2-16.9c0.2-0.4,0.4-0.6,0.7-0.8c0.2-0.2,0.5-0.3,0.9-0.3h6.7
			l-15.6,22.7L505,92.1z"/>
	</g>
	<g>
		<path fill="#FFFFFF" d="M87.5,70.9c0.8,0.7,1.8,1,2.8,1c1,0,2-0.3,2.8-1c0.5-0.4,12.7-10.5,12.7-25.3c0-14.8-12.2-24.9-12.7-25.3
			c-1.6-1.3-3.9-1.3-5.5,0C87,20.7,74.7,30.8,74.7,45.6c0,0.4,0.1,0.8,0.2,1.2C75.4,60.9,87,70.5,87.5,70.9z M90.3,29.9
			C93.1,33,97,38.7,97,45.6c0,6.8-3.9,12.5-6.7,15.7c-2.8-3.2-6.7-8.8-6.7-15.7c0-0.3,0-0.7-0.1-1C83.8,38.2,87.6,32.9,90.3,29.9z"
			/>
		<path fill="#FFFFFF" d="M153.5,29.6c-0.2-2.1-1.9-3.7-4-4c-0.1,0-1.1-0.1-2.7-0.1c-5.7,0-16.4,1.2-24.3,9
			c-10.5,10.5-9,26.3-8.9,26.9c0,0.1,0,0.2,0.1,0.3c-0.2,12.7-10.6,23-23.3,23C77.5,84.8,67,74.4,67,61.5c0-0.3,0-0.6-0.1-0.9
			c0.2-3.7,0.2-16.9-9-26c0,0,0,0,0,0c-7.9-7.9-18.6-9-24.2-9c-1.6,0-2.6,0.1-2.7,0.1c-2.1,0.2-3.7,1.9-4,4
			c-0.1,0.7-1.7,16.6,8.8,27.1c0.3,0.3,0.6,0.5,0.9,0.7c7,6.5,15.9,8,21.7,8.2c2,15.9,15.6,28.2,32,28.2c16.4,0,30-12.3,32-28.2
			c5.7-0.3,14.5-1.9,21.4-8.2c0.3-0.2,0.6-0.4,0.9-0.7C155.2,46.1,153.6,30.3,153.5,29.6z M42.2,50.3c-0.2-0.2-0.5-0.4-0.7-0.6
			c-4.3-4.7-5.4-11.1-5.7-15.2c4.2,0.3,11,1.5,15.8,6.3c0,0,0,0,0,0c4.8,4.8,6,11.5,6.3,15.7C53.8,56.3,47,55.1,42.2,50.3z
			 M139,49.7c-0.3,0.2-0.5,0.4-0.7,0.6c-4.8,4.8-11.6,6.1-15.7,6.3c0.3-4.2,1.6-11,6.4-15.8c4.8-4.8,11.6-6.1,15.8-6.3
			C144.4,38.6,143.3,45,139,49.7z"/>
		<path fill="#FFFFFF" d="M130.2,69.1c-2.5,0-4.5,2-4.5,4.5c0,14.8-15.9,26.9-35.4,26.9C70.9,100.4,55,88.3,55,73.5
			c0-2.5-2-4.5-4.5-4.5c-2.5,0-4.5,1.9-4.5,4.4c0,11.1,6.3,20.6,16.2,27.6h-1.4c-2.4,0-4.4,2.1-4.4,4.5c0,2.4,2,4.5,4.4,4.5h58.7
			c2.4,0,4.4-2.1,4.4-4.5c0-2.4-2-4.5-4.4-4.5h-1.2c9.9-7,16.2-16.4,16.2-27.6C134.6,71,132.6,69.1,130.2,69.1z"/>
	</g>
</g>
</svg>
