<svg xmlns="http://www.w3.org/2000/svg" xmlns:xlink="http://www.w3.org/1999/xlink" width="375.19" height="390.702" viewBox="0 0 375.19 390.702"><defs><clipPath id="a"><path d="M234.12,293.72v-9.8a10.09,10.09,0,0,1,9.49,0v9.8A11.1,11.1,0,0,0,234.12,293.72Z" fill="none"/></clipPath><clipPath id="b"><path d="M270.48,309.37v-9.8c1.27.79,2.06,1.74,1.9,2.69v9.8C272.54,311.11,271.75,310.16,270.48,309.37Z" fill="none"/></clipPath><clipPath id="c"><path d="M272.54,302.26v9.8a3.35,3.35,0,0,1-1.9,2.68v-9.8a3,3,0,0,0,1.9-2.68Z" fill="none"/></clipPath><clipPath id="d"><path d="M199.35,314a3.36,3.36,0,0,0-1.9,2.69v-9.8a3.36,3.36,0,0,1,1.9-2.69Z" fill="none"/></clipPath><clipPath id="e"><path d="M197.45,316.64v-9.8a3.16,3.16,0,0,0,1.9,2.69v9.8a3,3,0,0,1-1.9-2.69Z" fill="none"/></clipPath><clipPath id="f"><path d="M235.86,325.18V335a10.07,10.07,0,0,1-9.48,0v-9.8a10.07,10.07,0,0,0,9.48-.02Z" fill="none"/></clipPath><clipPath id="g"><path d="M10.43,294.35l-8.37-4.9a3.6,3.6,0,0,1-1.59-3.32L8.85,291a3.8,3.8,0,0,0,1.58,3.35Z" fill="none"/></clipPath><clipPath id="h"><path d="M210.88,161.56l-8.38-4.9a13.55,13.55,0,0,0,6.17-10.59l8.38,4.9C216.89,154.92,214.21,159.67,210.88,161.56Z" fill="none"/></clipPath><clipPath id="i"><path d="M208.2,20.87c0-1.9-.64-3.32-1.74-4l8.38,4.9c1.1.64,1.73,2.06,1.73,4C214.05,24.34,210.73,22.29,208.2,20.87Z" fill="none"/></clipPath><clipPath id="j"><path d="M206.3,16.91l8.38,4.9a4.23,4.23,0,0,0-4.43.48l-8.38-4.9C203.77,16.28,205.19,16.28,206.3,16.91Z" fill="none"/></clipPath><clipPath id="k"><path d="M212.94.47l8.38,4.9c-.95-.63-2.22-.47-3.8.32L209.15.79C210.57,0,212-.16,212.94.47Z" fill="none"/></clipPath><clipPath id="l"><path d="M109.24,64.81h0c2.84,1.58,5.69,3.32,8.37,4.9h0C114.77,68,111.92,66.39,109.24,64.81Z" fill="none"/></clipPath><clipPath id="m"><path d="M109.24,64.81c0-.63-.16-1.1-.64-1.26l8.38,4.9a1.41,1.41,0,0,1,.63,1.26C114.77,68,111.92,66.4,109.24,64.81Z" fill="none"/></clipPath><clipPath id="n"><path d="M107.18,68.13a4,4,0,0,0,1.9-3.32c2.85,1.58,5.69,3.32,8.38,4.9a4,4,0,0,1-1.9,3.32,1.56,1.56,0,0,1-1.42.16l-8.38-4.9a1.5,1.5,0,0,0,1.42-.16Z" fill="none"/></clipPath><clipPath id="o"><path d="M108.6,63.55l8.38,4.9a1.56,1.56,0,0,0-1.42.16l-8.38-4.9C107.81,63.39,108.29,63.23,108.6,63.55Z" fill="none"/></clipPath><clipPath id="p"><path d="M114.29,73.19l-8.37-4.9a1.4,1.4,0,0,1-.64-1.26,4.51,4.51,0,0,1,1.9-3.32l8.38,4.9a4,4,0,0,0-1.9,3.32A1.64,1.64,0,0,0,114.29,73.19Z" fill="none"/></clipPath><clipPath id="q"><path d="M14.86,142.27l-8.38-4.9a13.13,13.13,0,0,1,6.17-10.59l8.37,4.9a13.15,13.15,0,0,0-6.16,10.59Z" fill="none"/></clipPath><clipPath id="r"><path d="M8.38,132.47,0,127.57a11.5,11.5,0,0,1,5.22-9l8.38,4.9a11.7,11.7,0,0,0-5.22,9Z" fill="none"/></clipPath></defs><g transform="translate(0 -0.082)"><path d="M372.92,263.84,235.07,184.32a11.07,11.07,0,0,0-10.43,0L22,301.94c-2.84,1.74-2.84,4.42,0,6l137.85,79.51a11.09,11.09,0,0,0,10.44,0L373.08,269.84C375.92,268.27,375.92,265.58,372.92,263.84Z" fill="#7e7f7f"/><path d="M300,233v9.8l-72.2-41.72v-9.8Z" fill="#837c7b"/><g clip-path="url(#a)"><path d="M243.61,284.08v9.8l-1-.48v-9.8l1,.48" fill="#7f7978"/><path d="M242.66,283.6v9.8c-.32-.16-.48-.16-.79-.32v-9.8c.31.16.47.16.79.32" fill="#847d7c"/><path d="M241.87,283.28v9.8c-.16,0-.48-.15-.63-.15v-9.8c.15,0,.31.15.63.15" fill="#898281"/><path d="M241.08,283.13v9.8c-.16,0-.48-.16-.64-.16V283c.32,0,.48.16.64.16" fill="#8e8785"/><path d="M240.44,283v9.8h-.63V283h.63" fill="#928b8a"/><path d="M239.81,283v9.8h-.63V283h.63" fill="#97908f"/><path d="M239.18,283v9.8h-.63V283c.16-.16.31-.16.63,0" fill="#9c9493"/><path d="M238.55,283v9.8h-.79V283h.79" fill="#a19998"/><path d="M237.76,283v9.8a1.14,1.14,0,0,0-.79.16v-9.8a1.14,1.14,0,0,1,.79-.16" fill="#a69e9c"/><path d="M237,283.13v9.8a3.7,3.7,0,0,0-1.27.31v-9.8a3.119,3.119,0,0,1,1.27-.31" fill="#aba2a1"/><path d="M235.7,283.44v9.8a5.68,5.68,0,0,0-1.42.64v-9.8a2.92,2.92,0,0,1,1.42-.64" fill="#b0a7a6"/></g><path d="M270.48,299.57v9.8l-26.87-15.65v-9.64Z" fill="#837c7b"/><path d="M227.8,191.28v9.8L39.36,310.63v-9.8Z" fill="#bcb3b1"/><g clip-path="url(#b)"><path d="M272.54,302.26v9.8a3.15,3.15,0,0,0-1.9-2.69v-9.8a3.35,3.35,0,0,1,1.9,2.69" fill="#7f7978"/></g><path d="M234.12,284.08v9.64L199.34,314v-9.8Z" fill="#bcb3b1"/><g clip-path="url(#c)"><path d="M272.54,302.26v9.8h0v-9.8h0" fill="#6c6c6b"/><path d="M272.54,302.73v9.8c0,.16,0,.32-.16.32V303a.47.47,0,0,1,.16-.31" fill="#747373"/><path d="M272.38,303.2V313a.58.58,0,0,1-.16.32v-9.8a.58.58,0,0,1,.16-.32" fill="#787776"/><path d="M272.22,303.52v9.8c0,.16-.16.32-.31.47V304c.15-.15.15-.31.31-.47" fill="#7b7b7a"/><path d="M271.9,304v9.8l-.47.48v-9.8c.16-.32.32-.48.47-.48" fill="#7f7e7e"/><path d="M271.43,304.31v9.8c-.32.16-.47.47-.79.63v-9.8a1.59,1.59,0,0,0,.79-.63" fill="#838282"/><path d="M270.64,304.94v9.8h-.16l.16-9.8h0" fill="#878685"/></g><g clip-path="url(#d)"><path d="M199.34,304.15V314h-.15l.15-9.8h0" fill="#b0a7a6"/><path d="M199.34,304.31v9.8a3.42,3.42,0,0,0-.79.63v-9.8a1.63,1.63,0,0,1,.79-.63" fill="#aba2a1"/><path d="M198.4,304.94v9.8l-.48.48v-9.8c.32-.16.32-.32.48-.48" fill="#a69e9c"/><path d="M198.08,305.42v9.8c-.16.16-.16.31-.32.47v-9.8c.16-.31.16-.47.32-.47" fill="#a19998"/><path d="M197.76,305.73v9.8a.52.52,0,0,1-.16.32v-9.8a.52.52,0,0,0,.16-.32" fill="#9c9493"/><path d="M197.6,306.05v9.8a.51.51,0,0,1-.15.31v-9.8a.51.51,0,0,0,.15-.31" fill="#97908f"/><path d="M197.45,306.84v9.8h0v-9.8h0" fill="#8e8785"/></g><g clip-path="url(#e)"><path d="M199.5,309.68v9.8a3.35,3.35,0,0,1-1.9-2.68V307c-.16.95.48,1.9,1.9,2.68" fill="#616160"/></g><path d="M270.64,305.1l-.16,9.64L235.7,335l.16-9.8Z" fill="#90908f"/><path d="M226.38,325.18V335l-27-15.49.16-9.8Z" fill="#646463"/><path d="M270.48,299.57c2.69,1.58,2.69,3.95,0,5.53L235.7,325.34a10.07,10.07,0,0,1-9.48,0l-26.88-15.5c-2.68-1.58-2.68-3.95,0-5.53l34.78-20.24a10.09,10.09,0,0,1,9.49,0Z" fill="#bbbab9" stroke="#4c4c4b" stroke-miterlimit="10" stroke-width="1"/><g clip-path="url(#f)"><path d="M235.86,325.18V335a5.65,5.65,0,0,1-1.42.63v-9.8a5.65,5.65,0,0,0,1.42-.63" fill="#878685"/><path d="M234.28,325.81v9.8c-.47.16-.79.16-1.26.31v-9.8a2.89,2.89,0,0,0,1.26-.31" fill="#838282"/><path d="M233,326.13v9.8a5.755,5.755,0,0,0-.79.15v-9.8a1.14,1.14,0,0,0,.79-.16" fill="#7f7e7e"/><path d="M232.22,326.28v9.8h-.78v-9.8h.78" fill="#7b7b7a"/><path d="M231.43,326.44v9.8h-.63v-9.8h.63" fill="#787776"/><path d="M230.8,326.44v9.8h-.63v-9.8c.16-.16.47,0,.63,0" fill="#747373"/><path d="M230.17,326.28v9.8h-.63v-9.8h.63" fill="#70706f"/><path d="M229.54,326.28v9.8a.92.92,0,0,1-.63-.15v-9.8c.15,0,.31.15.63.15" fill="#6c6c6b"/><path d="M228.75,326.13v9.8c-.16,0-.48-.16-.64-.16V326c.32,0,.48.16.64.16" fill="#696868"/><path d="M228.11,326v9.8c-.31-.16-.47-.16-.79-.32v-9.8c.32.16.48.32.79.32" fill="#656464"/><path d="M227.32,325.65v9.8l-.94-.47v-9.8c.31.31.63.31.94.47" fill="#616160"/></g><path d="M111.45,342.57v9.8L39.36,310.63v-9.8Z" fill="#133a62"/><path d="M300,233v9.8L111.45,352.37v-9.8Z" fill="#1b538c"/><path d="M364.54,255.94c2.85,1.74,2.85,4.43,0,6L161.88,379.72a11.09,11.09,0,0,1-10.44,0L13.6,300.2c-2.85-1.74-2.85-4.43,0-6L216.26,176.42a11.07,11.07,0,0,1,10.43,0Zm-257.3,84.56,188.55-109.57L227.8,191.28,39.36,300.83m196.5,24.35,34.78-20.24c2.53-1.58,2.53-3.95,0-5.53l-26.88-15.49a10.07,10.07,0,0,0-9.48,0L199.5,304.15c-2.53,1.58-2.53,4,0,5.53l26.88,15.5a10.07,10.07,0,0,0,9.48,0" fill="#ddd9d9"/><path d="M366.6,259.89h0c-.16.31-.16.47-.32.79a.17.17,0,0,1-.15.16h0c-.15.15-.31.47-.63.63-.16.16-.31.31-.47.31-.16.16-.32.16-.48.32L161.88,379.87a5.58,5.58,0,0,1-1.43.64c-.15,0-.31.15-.63.15s-.47.16-.79.16-.63.16-.95.16h-3c-.47,0-.79-.16-1.26-.16h-.16a10.1,10.1,0,0,0-1.11-.31h-.15a7.749,7.749,0,0,1-1.11-.48L13.44,300.52a3.7,3.7,0,0,1-2.22-3v9.8a3.7,3.7,0,0,0,2.22,3l137.85,79.51a7.18,7.18,0,0,0,1.1.48h.16a.94.94,0,0,0,.63.15c.16,0,.32,0,.32.16h.31c.32,0,.48.16.79.16h3.32a1,1,0,0,0,.64-.16h.31c.32,0,.48-.16.79-.16.16,0,.32,0,.32-.15h.16a5.679,5.679,0,0,0,1.42-.64L364.22,271.9h.16c.16-.16.32-.16.32-.32.16-.16.31-.31.47-.31h0l.48-.48.15-.16a.16.16,0,0,1,.16-.15h0l.16-.16c0-.16.16-.32.16-.48h0v-.94h0v-9.8C366.6,259.26,366.6,259.57,366.6,259.89Z" fill="#bbbab9"/><g transform="translate(-194 -138)"><path d="M296.136,230.28,107.586,339.85,39.36,300.83,227.8,191.28Z" transform="translate(194 138)" fill="#7e7f7f"/><path d="M234.28,192.55c.79.47.79,1.1,0,1.42L225.43,199a2.45,2.45,0,0,1-2.53,0l-6.8-3.95c-.63-.48-.79-1.11,0-1.43l8.85-5.06a2.45,2.45,0,0,1,2.53,0Z" transform="translate(200 143)" fill="#bbbab9"/><path d="M222,199.82c.79.47.79,1.1,0,1.42l-8.85,5.06a2.45,2.45,0,0,1-2.53,0l-6.8-4c-.63-.48-.79-1.11,0-1.43l8.85-5a2.4,2.4,0,0,1,2.53,0Z" transform="translate(200 143)" fill="#bbbab9"/><path d="M209.3,207.25c.79.47.79,1.1,0,1.42l-8.85,5.06a2.45,2.45,0,0,1-2.53,0l-6.8-3.95c-.63-.48-.63-1.11,0-1.43l8.85-5a2.4,2.4,0,0,1,2.53,0Z" transform="translate(200 143)" fill="#bbbab9"/><path d="M196.5,214.68c.79.47.79,1.1,0,1.42l-8.85,5.06a2.45,2.45,0,0,1-2.53,0l-6.8-3.95c-.64-.48-.79-1.11,0-1.43l8.85-5.05a2.4,2.4,0,0,1,2.53,0Z" transform="translate(200 143)" fill="#bbbab9"/><path d="M183.85,222c.79.47.79,1.11,0,1.42L175,228.43a2.4,2.4,0,0,1-2.53,0l-6.8-4c-.63-.47-.63-1.11,0-1.42l8.85-5.06a2.4,2.4,0,0,1,2.53,0Z" transform="translate(200 143)" fill="#bbbab9"/><path d="M171.21,229.38c.78.47.78,1.11,0,1.42l-8.86,5.06a2.4,2.4,0,0,1-2.53,0l-6.8-4c-.63-.47-.79-1.11,0-1.42l8.86-5.06a2.4,2.4,0,0,1,2.53,0Z" transform="translate(200 143)" fill="#bbbab9"/><path d="M158.56,236.65c.79.47.79,1.11,0,1.42l-8.85,5.06a2.4,2.4,0,0,1-2.53,0l-6.8-3.95c-.64-.47-.64-1.11,0-1.42l8.85-5.06a2.4,2.4,0,0,1,2.53,0Z" transform="translate(200 143)" fill="#bbbab9"/><path d="M145.91,244.08c.79.47.79,1.11,0,1.42l-8.85,5.06a2.4,2.4,0,0,1-2.53,0l-6.8-3.95c-.63-.47-.63-1.11,0-1.42l8.85-5.06a2.4,2.4,0,0,1,2.53,0Z" transform="translate(200 143)" fill="#bbbab9"/><path d="M133.26,251.35c.79.48.79,1.11,0,1.43l-8.85,5a2.4,2.4,0,0,1-2.53,0l-6.8-3.95c-.63-.47-.79-1.1,0-1.42l8.85-5.06a2.4,2.4,0,0,1,2.53,0Z" transform="translate(200 143)" fill="#bbbab9"/><path d="M120.46,258.78c.79.48.79,1.11,0,1.43l-8.85,5.05a2.4,2.4,0,0,1-2.53,0l-6.8-3.95c-.64-.47-.64-1.11,0-1.42l8.85-5.06a2.4,2.4,0,0,1,2.53,0Z" transform="translate(200 143)" fill="#bbbab9"/><path d="M107.81,266.05c.79.48.79,1.11,0,1.43L99,272.54a2.45,2.45,0,0,1-2.53,0l-6.8-4c-.63-.47-.79-1.1,0-1.42l8.85-5.06a2.45,2.45,0,0,1,2.53,0Z" transform="translate(200 143)" fill="#bbbab9"/><path d="M95.17,273.48c.79.48.79,1.11,0,1.43L86.31,280a2.45,2.45,0,0,1-2.53,0L77,276c-.63-.47-.79-1.1,0-1.42l8.86-5.06a2.45,2.45,0,0,1,2.53,0Z" transform="translate(200 143)" fill="#bbbab9"/><path d="M82.52,280.76c.79.47.79,1.1,0,1.42l-8.85,5.06a2.45,2.45,0,0,1-2.53,0l-6.8-3.95c-.63-.48-.63-1.11,0-1.43l8.85-5.06a2.45,2.45,0,0,1,2.53,0Z" transform="translate(200 143)" fill="#bbbab9"/><path d="M69.87,288.19c.79.47.79,1.1,0,1.42L61,294.67a2.45,2.45,0,0,1-2.53,0l-6.8-3.95c-.63-.48-.79-1.11,0-1.43l8.85-5.06a2.45,2.45,0,0,1,2.53,0Z" transform="translate(200 143)" fill="#bbbab9"/><path d="M57.23,295.46c.79.47.79,1.11,0,1.42l-8.86,5.06a2.45,2.45,0,0,1-2.53,0L39,298c-.63-.48-.63-1.11,0-1.43l8.86-5.05a2.4,2.4,0,0,1,2.53,0Z" transform="translate(200 143)" fill="#bbbab9"/><path d="M244.71,198.71c.79.47.79,1.11,0,1.42l-29.87,17.39a2.4,2.4,0,0,1-2.53,0l-6.8-4c-.79-.47-.79-1.11,0-1.42l29.88-17.39a2.4,2.4,0,0,1,2.53,0Z" transform="translate(200 143)" fill="#bbbab9"/><path d="M211,218.16c.79.47.63,1.1,0,1.42l-8.85,5.06a2.45,2.45,0,0,1-2.53,0l-6.8-3.95c-.79-.48-.63-1.11,0-1.43l8.85-5.06a2.45,2.45,0,0,1,2.53,0Z" transform="translate(200 143)" fill="#bbbab9"/><path d="M198.4,225.59c.79.47.79,1.1,0,1.42l-8.86,5.06a2.45,2.45,0,0,1-2.53,0l-6.8-3.95c-.79-.48-.63-1.11,0-1.43l8.86-5.06a2.45,2.45,0,0,1,2.53,0Z" transform="translate(200 143)" fill="#bbbab9"/><path d="M185.75,233c.79.48.79,1.11,0,1.43l-8.85,5.06a2.45,2.45,0,0,1-2.53,0l-6.8-4c-.79-.47-.79-1.1,0-1.42l8.85-5.06a2.45,2.45,0,0,1,2.53,0Z" transform="translate(200 143)" fill="#bbbab9"/><path d="M173.1,240.29c.79.47.63,1.1,0,1.42l-8.85,5.06a2.45,2.45,0,0,1-2.53,0l-6.8-4c-.79-.48-.63-1.11,0-1.43l8.85-5.06a2.45,2.45,0,0,1,2.53,0Z" transform="translate(200 143)" fill="#bbbab9"/><path d="M160.46,247.72c.79.47.79,1.1,0,1.42l-8.86,5.06a2.43,2.43,0,0,1-2.52,0l-6.8-3.95c-.79-.48-.79-1.11,0-1.43l8.85-5.06a2.45,2.45,0,0,1,2.53,0Z" transform="translate(200 143)" fill="#bbbab9"/><path d="M147.81,255c.79.47.63,1.11,0,1.42L139,261.47a2.45,2.45,0,0,1-2.53,0l-6.8-4c-.79-.48-.64-1.11,0-1.42l8.85-5.06a2.4,2.4,0,0,1,2.53,0Z" transform="translate(200 143)" fill="#bbbab9"/><path d="M135.16,262.42c.79.47.63,1.11,0,1.42l-8.85,5.06a2.4,2.4,0,0,1-2.53,0L117,265c-.79-.48-.63-1.11,0-1.42l8.85-5.06a2.4,2.4,0,0,1,2.53,0Z" transform="translate(200 143)" fill="#bbbab9"/><path d="M122.36,269.69c.79.47.79,1.11,0,1.42l-8.85,5.06a2.4,2.4,0,0,1-2.53,0l-6.8-3.95c-.79-.47-.79-1.11,0-1.42l8.85-5.06a2.4,2.4,0,0,1,2.53,0Z" transform="translate(200 143)" fill="#bbbab9"/><path d="M109.71,277.12c.79.47.63,1.11,0,1.42l-8.85,5.06a2.4,2.4,0,0,1-2.53,0l-6.8-4c-.79-.47-.63-1.11,0-1.42l8.85-5.06a2.4,2.4,0,0,1,2.53,0Z" transform="translate(200 143)" fill="#bbbab9"/><path d="M97.06,284.39c.79.48.79,1.11,0,1.43l-8.85,5.05a2.4,2.4,0,0,1-2.53,0l-6.8-3.95c-.79-.47-.63-1.1,0-1.42l8.85-5.06a2.4,2.4,0,0,1,2.53,0Z" transform="translate(200 143)" fill="#bbbab9"/><path d="M84.42,291.82c.79.48.79,1.11,0,1.43l-8.85,5.05a2.4,2.4,0,0,1-2.53,0l-6.8-3.95c-.79-.47-.79-1.1,0-1.42l8.85-5.06a2.4,2.4,0,0,1,2.53,0Z" transform="translate(200 143)" fill="#bbbab9"/><path d="M71.77,299.09c.79.48.63,1.11,0,1.43l-12.862,7.51a2.45,2.45,0,0,1-2.53,0l-6.8-4c-.79-.47-.63-1.1,0-1.42L62.44,295.1a2.45,2.45,0,0,1,2.53,0Z" transform="translate(200 143)" fill="#bbbab9"/><path d="M255.3,204.72c.79.47.79,1.1,0,1.42l-9.48,5.53a2.4,2.4,0,0,1-2.53,0l-6.8-3.95c-.79-.47-.79-1.11,0-1.42l9.49-5.53a2.39,2.39,0,0,1,2.52,0Z" transform="translate(200 143)" fill="#bbbab9"/><path d="M242.18,212.31c.79.47.64,1.1,0,1.42L231.913,219.7a2.4,2.4,0,0,1-2.53,0l-6.8-3.95c-.79-.47-.79-1.11,0-1.42l10.267-5.982a2.45,2.45,0,0,1,2.53,0Z" transform="translate(200 143)" fill="#bbbab9"/><path d="M276.17,216.73c.79.48.79,1.11,0,1.43l-6.64,4a2.195,2.195,0,0,1-2.384,0l-17.376-10c-.79-.48-.79-1.11,0-1.42l6.64-4a2.45,2.45,0,0,1,2.53,0Z" transform="translate(200 143)" fill="#bbbab9"/><path d="M215.47,227.8c.63.47.79,1.1,0,1.42l-8.85,5.06a2.4,2.4,0,0,1-2.53,0l-6.8-3.95c-.79-.48-.79-1.11,0-1.42l8.85-5.06a2.4,2.4,0,0,1,2.53,0Z" transform="translate(200 143)" fill="#bbbab9"/><path d="M238.71,226.38c.79.47.79,1.1,0,1.42l-17.55,10.12a2.45,2.45,0,0,1-2.53,0l-6.8-4c-.63-.47-.79-1.1,0-1.42l7.43-4.27-9.17-5.21c-.79-.48-.79-1.11,0-1.43l8.85-5.06a2.45,2.45,0,0,1,2.53,0l10.44,6,2.53,1.42Z" transform="translate(200 143)" fill="#bbbab9"/><path d="M202.82,235.23c.64.47.64,1.1,0,1.42L194,241.71a2.45,2.45,0,0,1-2.53,0l-6.8-4c-.79-.48-.79-1.11,0-1.42l8.85-5.06a2.4,2.4,0,0,1,2.53,0Z" transform="translate(200 143)" fill="#bbbab9"/><path d="M190,242.5c.63.47.63,1.11,0,1.42L181.17,249a2.4,2.4,0,0,1-2.53,0l-6.8-3.95c-.79-.47-.79-1.11,0-1.42l8.85-5.06a2.4,2.4,0,0,1,2.53,0Z" transform="translate(200 143)" fill="#bbbab9"/><path d="M177.37,249.93c.63.47.63,1.11,0,1.42l-8.85,5.06a2.4,2.4,0,0,1-2.53,0l-6.8-4c-.79-.47-.79-1.11,0-1.42L168,246a2.4,2.4,0,0,1,2.53,0Z" transform="translate(200 143)" fill="#bbbab9"/><path d="M164.73,257.2c.63.48.63,1.11,0,1.42l-8.86,5.22a2.4,2.4,0,0,1-2.53,0l-6.8-3.95c-.79-.47-.79-1.11,0-1.42l8.86-5.22a2.4,2.4,0,0,1,2.53,0Z" transform="translate(200 143)" fill="#bbbab9"/><path d="M152.08,264.63c.63.48.79,1.11,0,1.42l-8.85,5.06a2.4,2.4,0,0,1-2.53,0l-6.8-3.95c-.79-.47-.79-1.11,0-1.42l8.85-5.06a2.4,2.4,0,0,1,2.53,0Z" transform="translate(200 143)" fill="#bbbab9"/><path d="M139.43,271.9c.63.48.63,1.11,0,1.43l-8.85,5.06a2.45,2.45,0,0,1-2.53,0l-6.8-4c-.79-.47-.79-1.1,0-1.42L130.1,268a2.45,2.45,0,0,1,2.53,0Z" transform="translate(200 143)" fill="#bbbab9"/><path d="M126.79,279.33c.63.48.63,1.11,0,1.43l-8.86,5.06a2.45,2.45,0,0,1-2.53,0l-6.8-4c-.79-.47-.79-1.1,0-1.42l8.86-5.06a2.45,2.45,0,0,1,2.53,0Z" transform="translate(200 143)" fill="#bbbab9"/><path d="M114.14,286.76c.63.48.79,1.11,0,1.43l-8.85,5.06a2.45,2.45,0,0,1-2.53,0l-6.8-4c-.79-.47-.79-1.1,0-1.42l8.85-5.06a2.45,2.45,0,0,1,2.53,0Z" transform="translate(200 143)" fill="#bbbab9"/><path d="M101.49,294c.63.47.63,1.1,0,1.42l-8.85,5.06a2.45,2.45,0,0,1-2.53,0l-6.8-3.95c-.79-.48-.79-1.11,0-1.43l8.85-5.06a2.45,2.45,0,0,1,2.53,0Z" transform="translate(200 143)" fill="#bbbab9"/><path d="M88.69,301.47c.63.47.79,1.1,0,1.42L69.24,314.27a2.45,2.45,0,0,1-2.53,0l-6.8-3.95c-.79-.48-.79-1.11,0-1.42L79.2,297.67a2.45,2.45,0,0,1,2.53,0Z" transform="translate(200 143)" fill="#bbbab9"/><path d="M217.37,238.86c.79.48.79,1.11,0,1.43l-8.86,5.06a2.45,2.45,0,0,1-2.53,0l-6.8-4c-.63-.47-.63-1.1,0-1.42l8.86-5.06a2.45,2.45,0,0,1,2.53,0Z" transform="translate(200 143)" fill="#bbbab9"/><path d="M204.72,246.14c.79.47.79,1.1,0,1.42l-8.85,5.06a2.45,2.45,0,0,1-2.53,0l-6.8-4c-.64-.48-.79-1.11,0-1.43l8.85-5.06a2.45,2.45,0,0,1,2.53,0Z" transform="translate(200 143)" fill="#bbbab9"/><path d="M192.07,253.57c.79.47.79,1.1,0,1.42l-8.85,5.06a2.45,2.45,0,0,1-2.53,0l-6.8-3.95c-.63-.48-.63-1.11,0-1.43l8.85-5.06a2.45,2.45,0,0,1,2.53,0Z" transform="translate(200 143)" fill="#bbbab9"/><path d="M179.27,260.84c.79.47.79,1.1,0,1.42l-8.86,5.06a2.45,2.45,0,0,1-2.53,0l-6.8-3.95c-.63-.48-.63-1.11,0-1.43l8.86-5.05a2.4,2.4,0,0,1,2.53,0Z" transform="translate(200 143)" fill="#bbbab9"/><path d="M166.62,268.27c.79.47.79,1.1,0,1.42l-8.85,5.06a2.45,2.45,0,0,1-2.53,0l-6.8-3.95c-.63-.48-.79-1.11,0-1.43l8.85-5.05a2.4,2.4,0,0,1,2.53,0Z" transform="translate(200 143)" fill="#bbbab9"/><path d="M154,275.54c.79.47.79,1.11,0,1.42L145.12,282a2.4,2.4,0,0,1-2.53,0l-6.8-3.95c-.63-.47-.63-1.11,0-1.42l8.85-5.06a2.4,2.4,0,0,1,2.53,0Z" transform="translate(200 143)" fill="#bbbab9"/><path d="M141.33,283c.79.47.79,1.11,0,1.42l-8.86,5.06a2.39,2.39,0,0,1-2.52,0l-6.81-3.95c-.63-.47-.79-1.11,0-1.42L132,279a2.4,2.4,0,0,1,2.53,0Z" transform="translate(200 143)" fill="#bbbab9"/><path d="M128.68,290.24c.79.48.79,1.11,0,1.42l-8.85,5.06a2.4,2.4,0,0,1-2.53,0l-6.8-4c-.63-.47-.79-1.11,0-1.42l8.85-5.06a2.4,2.4,0,0,1,2.53,0Z" transform="translate(200 143)" fill="#bbbab9"/><path d="M116,297.67c.79.48.79,1.11,0,1.42l-8.85,5.06a2.4,2.4,0,0,1-2.53,0l-6.8-3.95c-.63-.47-.63-1.11,0-1.42l8.85-5.06a2.4,2.4,0,0,1,2.53,0Z" transform="translate(200 143)" fill="#bbbab9"/><path d="M103.39,305.1c.79.48.79,1.11,0,1.42l-8.86,5.06a2.39,2.39,0,0,1-2.52,0l-6.81-3.95c-.63-.47-.79-1.11,0-1.42l8.86-5.06a2.4,2.4,0,0,1,2.53,0Z" transform="translate(200 143)" fill="#bbbab9"/><path d="M90.74,312.37c.79.48.79,1.11,0,1.43l-10.91,6.32a2.45,2.45,0,0,1-2.53,0l-6.8-3.95c-.63-.48-.63-1.11,0-1.43l10.91-6.32a2.45,2.45,0,0,1,2.53,0Z" transform="translate(200 143)" fill="#bbbab9"/><path d="M265.58,222.9c.79.47.79,1.1,0,1.42l-9.48,5.53a2.4,2.4,0,0,1-2.53,0l-6.8-3.95c-.79-.47-.64-1.11,0-1.42l9.48-5.53a2.4,2.4,0,0,1,2.53,0Z" transform="translate(200 143)" fill="#bbbab9"/><path d="M251.83,230.8c.63.48.63,1.11,0,1.42l-11.7,6.8a2.4,2.4,0,0,1-2.53,0l-6.8-4c-.79-.47-.79-1.1,0-1.42l11.7-6.8a2.4,2.4,0,0,1,2.53,0Z" transform="translate(200 143)" fill="#bbbab9"/><path d="M236.34,239.81c.63.48.79,1.11,0,1.43l-8.86,5a2.38,2.38,0,0,1-2.52,0l-6.8-3.95c-.79-.47-.79-1.1,0-1.42l8.85-5.06a2.4,2.4,0,0,1,2.53,0Z" transform="translate(200 143)" fill="#bbbab9"/><path d="M223.69,247.24c.63.48.63,1.11,0,1.43l-8.85,5.05a2.4,2.4,0,0,1-2.53,0l-6.8-3.95c-.79-.47-.79-1.1,0-1.42l8.85-5.06a2.4,2.4,0,0,1,2.53,0Z" transform="translate(200 143)" fill="#bbbab9"/><path d="M211,254.51c.64.48.64,1.11,0,1.43L202.19,261a2.45,2.45,0,0,1-2.53,0l-6.8-4c-.79-.47-.79-1.1,0-1.42l8.85-5.06a2.45,2.45,0,0,1,2.53,0Z" transform="translate(200 143)" fill="#bbbab9"/><path d="M198.4,261.94c.63.48.63,1.11,0,1.43l-8.86,5.06a2.43,2.43,0,0,1-2.52,0l-6.81-4c-.78-.47-.78-1.1,0-1.42l8.86-5.06a2.45,2.45,0,0,1,2.53,0Z" transform="translate(200 143)" fill="#bbbab9"/><path d="M185.59,269.37c.64.48.64,1.11,0,1.43l-8.85,5.2a2.4,2.4,0,0,1-2.53,0l-6.8-3.95c-.79-.47-.79-1.1,0-1.42l8.85-5.22a2.45,2.45,0,0,1,2.53,0Z" transform="translate(200 143)" fill="#bbbab9"/><path d="M173,276.65c.63.47.79,1.1,0,1.42l-8.86,5.06a2.45,2.45,0,0,1-2.53,0l-6.8-3.95c-.79-.48-.79-1.11,0-1.43l8.86-5.06a2.45,2.45,0,0,1,2.53,0Z" transform="translate(200 143)" fill="#bbbab9"/><path d="M160.3,284.08c.63.47.63,1.1,0,1.42l-8.85,5.06a2.45,2.45,0,0,1-2.53,0l-6.8-3.95c-.79-.48-.79-1.11,0-1.43l8.85-5.06a2.45,2.45,0,0,1,2.53,0Z" transform="translate(200 143)" fill="#bbbab9"/><path d="M147.65,291.35c.63.47.63,1.1,0,1.42l-8.85,5.06a2.45,2.45,0,0,1-2.53,0l-6.8-3.95c-.79-.48-.79-1.11,0-1.43l8.85-5.05a2.4,2.4,0,0,1,2.53,0Z" transform="translate(200 143)" fill="#bbbab9"/><path d="M135,298.78c.63.47.79,1.1,0,1.42l-8.86,5.06a2.45,2.45,0,0,1-2.53,0l-6.8-3.95c-.79-.48-.79-1.11,0-1.43l8.86-5.05a2.4,2.4,0,0,1,2.53,0Z" transform="translate(200 143)" fill="#bbbab9"/><path d="M122.36,306.05c.63.47.63,1.11,0,1.42l-8.85,5.06a2.4,2.4,0,0,1-2.53,0l-6.8-3.95c-.79-.47-.79-1.11,0-1.42L113,302.1a2.4,2.4,0,0,1,2.53,0Z" transform="translate(200 143)" fill="#bbbab9"/><path d="M109.55,313.64c.63.47.79,1.1,0,1.42L90.27,326.28a2.4,2.4,0,0,1-2.53,0l-6.8-3.95c-.79-.47-.79-1.1,0-1.42l19.28-11.23a2.45,2.45,0,0,1,2.53,0Z" transform="translate(200 143)" fill="#bbbab9"/><path d="M297,228.9c.79.48.79,1.11,0,1.43l-6.64,3.95a2.45,2.45,0,0,1-2.53,0l-17.23-10c-.79-.47-.79-1.11,0-1.42l6.64-4a2.108,2.108,0,0,1,2.358,0Z" transform="translate(190 137)" fill="#bbbab9"/><path d="M282.65,237.28c.79.48.79,1.11,0,1.43l-8.85,5.06a2.45,2.45,0,0,1-2.53,0l-6.8-4c-.63-.47-.79-1.1,0-1.42l8.85-5.06a2.45,2.45,0,0,1,2.53,0Z" transform="translate(193 135)" fill="#bbbab9"/><path d="M270,244.56c.79.47.79,1.1,0,1.42L261.15,251a2.45,2.45,0,0,1-2.53,0l-6.8-4c-.63-.47-.63-1.1,0-1.42l8.86-5.06a2.45,2.45,0,0,1,2.53,0Z" transform="translate(193 135)" fill="#bbbab9"/><path d="M257.36,252c.79.47.79,1.1,0,1.42l-8.85,5.06a2.45,2.45,0,0,1-2.53,0l-6.8-4c-.63-.48-.79-1.11,0-1.43L248,248a2.45,2.45,0,0,1,2.53,0Z" transform="translate(193 135)" fill="#bbbab9"/><path d="M244.71,259.41c.79.48.79,1.11,0,1.43l-8.85,5.06a2.45,2.45,0,0,1-2.53,0l-6.8-4c-.63-.47-.63-1.1,0-1.42l8.85-5.06a2.45,2.45,0,0,1,2.53,0Z" transform="translate(193 135)" fill="#bbbab9"/><path d="M231.91,266.69c.79.47.79,1.1,0,1.42l-59.44,34.62a2.45,2.45,0,0,1-2.53,0l-6.8-4c-.63-.48-.79-1.11,0-1.43l59.44-34.62a2.45,2.45,0,0,1,2.53,0Z" transform="translate(193 135)" fill="#bbbab9"/><path d="M168.68,303.52c.78.47.78,1.11,0,1.42L159.82,310a2.4,2.4,0,0,1-2.53,0l-6.8-3.95c-.63-.47-.63-1.11,0-1.42l8.86-5.06a2.4,2.4,0,0,1,2.53,0Z" transform="translate(193 135)" fill="#bbbab9"/><path d="M156,311c.79.47.79,1.11,0,1.42l-8.85,5.06a2.4,2.4,0,0,1-2.53,0l-6.8-3.95c-.63-.47-.79-1.11,0-1.42L146.7,307a2.4,2.4,0,0,1,2.53,0Z" transform="translate(193 135)" fill="#bbbab9"/><path d="M143.38,318.22c.79.48.79,1.11,0,1.43l-8.85,5.05a2.4,2.4,0,0,1-2.53,0l-6.8-3.95c-.63-.47-.63-1.1,0-1.42l8.85-5.06a2.4,2.4,0,0,1,2.53,0Z" transform="translate(193 135)" fill="#bbbab9"/><path d="M130.74,325.65c.79.48.79,1.11,0,1.43l-8.86,5.05a2.4,2.4,0,0,1-2.53,0l-6.8-3.95c-.63-.47-.63-1.11,0-1.42l8.86-5.06a2.39,2.39,0,0,1,2.52,0Z" transform="translate(193 135)" fill="#bbbab9"/><path d="M118.09,332.92c.79.48.79,1.11,0,1.43l-10.17,5.963a2.45,2.45,0,0,1-2.53,0l-6.8-3.95c-.63-.48-.63-1.11,0-1.43l10.17-5.963a2.45,2.45,0,0,1,2.53,0Z" transform="translate(193 135)" fill="#bbbab9"/><path d="M251.83,230.8c.63.48.63,1.11,0,1.42l-13.315,7.62a2.4,2.4,0,0,1-2.53,0l-6.8-4c-.79-.47-.79-1.1,0-1.42L242.5,226.8a2.4,2.4,0,0,1,2.53,0Z" transform="translate(204 129)" fill="#bbbab9"/></g><path d="M10.43,294.35l-8.37-4.9a3.6,3.6,0,0,1-1.59-3.32L8.85,291a3.8,3.8,0,0,0,1.58,3.35Z" fill="#bbbab9"/><g clip-path="url(#g)"><path d="M10.43,294.35l-8.37-4.9a3.6,3.6,0,0,1-1.59-3.32L8.85,291a3.8,3.8,0,0,0,1.58,3.32" fill="#bbbab9"/></g><g clip-path="url(#h)"><path d="M210.88,161.56l-8.38-4.9a10.251,10.251,0,0,0,2.06-1.58l8.38,4.9a18.731,18.731,0,0,1-2.06,1.58" fill="#c3bab8"/><path d="M212.94,160l-8.38-4.9a3.42,3.42,0,0,0,.63-.79l8.38,4.9c-.32.32-.47.63-.63.79" fill="#beb5b3"/><path d="M213.57,159.19l-8.38-4.9c.16-.16.32-.47.48-.63l8.37,4.9a2,2,0,0,1-.47.63" fill="#b9b0af"/><path d="M214.05,158.72l-8.38-4.9a2.46,2.46,0,0,0,.47-.64l8.38,4.9a2,2,0,0,0-.47.64" fill="#b5acaa"/><path d="M214.52,158.08l-8.38-4.9c.16-.16.32-.31.32-.47l8.37,4.9c-.15.16-.31.31-.31.47" fill="#b0a7a6"/><path d="M214.83,157.61l-8.37-4.9c.15-.16.15-.32.31-.48l8.38,4.9c-.16.16-.16.32-.32.48" fill="#aba2a1"/><path d="M215.15,157l-8.38-4.9c.16-.16.16-.32.32-.48l8.38,4.9c-.16.16-.32.32-.32.48" fill="#a69e9c"/><path d="M215.47,156.5l-8.38-4.9c.16-.16.16-.31.32-.47l8.37,4.9c-.15.16-.31.31-.31.47" fill="#a19998"/><path d="M215.63,156l-8.38-4.9c.16-.16.16-.32.31-.48l8.38,4.9c-.16.16-.16.32-.31.48" fill="#9c9493"/><path d="M215.94,155.39l-8.38-4.89a.58.58,0,0,0,.16-.48l8.38,4.9c0,.16-.16.32-.16.47" fill="#97908f"/><path d="M216.1,154.92l-8.38-4.9c0-.16.16-.31.16-.63l8.38,4.9c0,.31,0,.47-.16.63" fill="#928b8a"/><path d="M216.42,154.29l-8.38-4.9c0-.16.16-.48.16-.63l8.37,4.9a1.15,1.15,0,0,0-.15.63" fill="#8e8785"/><path d="M216.57,153.66l-8.37-4.9c0-.16.15-.48.15-.64l8.38,4.9c0,.16-.16.48-.16.64" fill="#898281"/><path d="M216.73,153l-8.38-4.9a7.369,7.369,0,0,1,.16-.79l8.38,4.9a7.365,7.365,0,0,0-.16.79" fill="#847d7c"/><path d="M216.89,152.23l-8.38-4.9a3.34,3.34,0,0,0,0-1.26l8.38,4.9v1.26" fill="#7f7978"/></g><path d="M216.89,151l-8.38-4.9L208.2,20.9l8.37,4.9Z" fill="#827c7b"/><g clip-path="url(#i)"><path d="M216.57,25.77l-8.37-4.9c0-1.9-.64-3.32-1.74-4l8.38,4.91c1.1.63,1.73,2.05,1.73,3.95" fill="#7f7978"/></g><g clip-path="url(#j)"><path d="M210.41,22.29,202,17.39a3.21,3.21,0,0,0,.79-.48l8.38,4.9a3.21,3.21,0,0,1-.79.48" fill="#1c5692"/><path d="M211.36,21.81,203,16.91c.32-.15.47-.15.79-.31l8.38,4.9c-.32.16-.63.16-.79.31" fill="#1b548e"/><path d="M212,21.5l-8.38-4.9c.16,0,.32-.16.48-.16l8.37,4.9a.58.58,0,0,1-.47.16" fill="#1b528a"/><path d="M212.62,21.5l-8.38-4.9h.48l8.38,4.9c-.16-.16-.32,0-.48,0" fill="#1a5087"/><path d="M212.94,21.34l-8.38-4.9H205l8.38,4.9h-.47" fill="#194e83"/><path d="M213.41,21.34,205,16.44h.32l8.38,4.9c0,.16-.16,0-.32,0" fill="#194c7f"/><path d="M213.73,21.5l-8.38-4.9c.16,0,.16,0,.32.16l8.38,4.9c0-.16-.16-.16-.32-.16" fill="#18497c"/><path d="M214.2,21.5l-8.38-4.9c.16,0,.16,0,.32.16l8.38,4.9a.65.65,0,0,1-.32-.16" fill="#174778"/><path d="M214.52,21.66l-8.38-4.9c.16,0,.16.15.32.15l8.38,4.9a.53.53,0,0,1-.32-.15" fill="#164574"/><path d="M214.83,21.81l-8.37-4.9h0l8.38,4.9h0" fill="#164371"/></g><path d="M212.94.47l8.38,4.9c-.95-.63-2.22-.47-3.8.32L209.15.79C210.57,0,212-.16,212.94.47Z" fill="#bbbab9"/><g clip-path="url(#k)"><path d="M217.68,5.69,209.3.79c.32-.16.48-.32.79-.32l8.38,4.9a1.23,1.23,0,0,0-.79.32" fill="#bbbab9"/><path d="M218.31,5.37,209.93.47a1,1,0,0,1,.64-.16L219,5.22a1.19,1.19,0,0,0-.64.15" fill="#bbbab9"/><path d="M219,5.06,210.57.16A.58.58,0,0,0,211,0l8.38,4.9a.59.59,0,0,1-.47.16" fill="#bbbab9"/><path d="M219.42,5.06,211,.16h.32l8.38,4.9h-.32" fill="#bbbab9"/><path d="M219.89,5.06,211.52.16h.31l8.38,4.9h-.32" fill="#bbbab9"/><path d="M220.21,5.06,211.83.16h.32l8.38,4.9h-.32" fill="#bbbab9"/><path d="M220.53,5.06,212.15.16h.31l8.38,4.9h-.31" fill="#bbbab9"/><path d="M220.84,5.06,212.47.16c.15,0,.15,0,.31.16l8.38,4.9a.65.65,0,0,1-.32-.16" fill="#bbbab9"/><path d="M221,5.22,212.62.31c.16,0,.16.16.32.16l8.38,4.9c-.16-.15-.16-.15-.32-.15" fill="#bbbab9"/><path d="M221.32,5.37,212.94.47h0l8.38,4.9h0" fill="#bbbab9"/></g><path d="M21.34,271,13,266.06l189.39-109.4,8.53,4.9Z" fill="#d2c8c6"/><g clip-path="url(#l)"><path d="M117.62,70l-8.38-4.9v-.32c0-.63-.16-1.1-.63-1.26l8.37,4.9a1.42,1.42,0,0,1,.64,1.26V70" fill="#7f7978"/></g><path d="M20.87,131.68l-8.38-4.9L202,17.39l8.38,4.9Z" fill="#1e5d9d"/><g clip-path="url(#m)"><path d="M117.61,70l-8.37-4.9v-.32c0-.63-.16-1.1-.64-1.26l8.38,4.9a1.39,1.39,0,0,1,.63,1.26V70" fill="#7f7978"/></g><g clip-path="url(#n)"><path d="M114.29,73.19l-8.37-4.9h0l8.37,4.9h0" fill="#97908f"/><path d="M114.29,73.19l-8.37-4.9h.15l8.22,4.9h0" fill="#9c9493"/><path d="M114.45,73.19l-8.38-4.9h.16l8.22,4.9h0" fill="#a19998"/><path d="M114.45,73.19l-8.38-4.9h.16l8.22,4.9h0" fill="#a69e9c"/><path d="M114.61,73.19l-8.38-4.9h.16l8.22,4.9h0" fill="#aba2a1"/><path d="M114.77,73.35l-8.38-4.9h.16l8.22,4.9h0" fill="#b0a7a6"/><path d="M114.93,73.35l-8.38-4.9h.16l8.22,4.9h0" fill="#b5acaa"/><path d="M114.93,73.19l-8.38-4.9h.16l8.37,4.9h-.15" fill="#b9b0af"/><path d="M115.24,73.19l-8.37-4.9H107l8.38,4.9h-.16" fill="#beb5b3"/><path d="M115.4,73.19l-8.4-4.9c.16,0,.16-.16.32-.16s.47-.31.63-.47l8.38,4.9c-.16.16-.47.31-.63.47-.16,0-.16,0-.32.16" fill="#c3bab8"/><path d="M116.35,72.56,108,67.66l.16-.16,8.38,4.9a.16.16,0,0,0-.16.15h0" fill="#beb5b3"/><path d="M116.51,72.24l-8.38-4.9.16-.15,8.38,4.9a.16.16,0,0,1-.16.15h0" fill="#b9b0af"/><path d="M116.67,72.09l-8.38-4.9.16-.16,8.37,4.9-.15.16" fill="#b5acaa"/><path d="M116.82,71.93,108.45,67a.14.14,0,0,1,.15-.16h0l8.38,4.9-.16.16" fill="#b0a7a6"/><path d="M117,71.77l-8.38-4.9a.16.16,0,0,1,.16-.16h0l8.38,4.9a.16.16,0,0,0-.16.15h0" fill="#aba2a1"/><path d="M117,71.61l-8.38-4.9a.16.16,0,0,1,.16-.16h0l8.38,4.9-.16.16" fill="#a69e9c"/><path d="M117.14,71.45l-8.38-4.9a.17.17,0,0,1,.15-.16h0l8.38,4.9c-.16,0-.16,0-.16.16" fill="#a19998"/><path d="M117.14,71.3l-8.38-4.91v-.15l8.38,4.9c.16,0,.16,0,0,.15" fill="#9c9493"/><path d="M117.3,71.14l-8.38-4.9v-.16L117.3,71v.16" fill="#97908f"/><path d="M117.3,71l-8.38-4.9v-.16l8.38,4.9c.16,0,.16,0,0,.16" fill="#928b8a"/><path d="M117.46,70.66l-8.38-4.9V65.6l8.38,4.9v.16" fill="#8e8785"/><path d="M117.46,70.5l-8.38-4.9v-.16l8.38,4.91v.15" fill="#898281"/><path d="M117.61,70.35l-8.37-4.9v-.32l8.37,4.9v.32" fill="#847d7c"/><path d="M117.62,70l-8.38-4.9v-.32c0-.63-.16-1.1-.63-1.26l8.37,4.9a1.42,1.42,0,0,1,.64,1.26V70" fill="#7f7978"/></g><g clip-path="url(#o)"><path d="M115.72,68.61l-8.54-4.9c.16,0,.16-.16.32-.16l8.38,4.9a.15.15,0,0,0-.16.15h0" fill="#072742"/><path d="M115.88,68.45l-8.38-4.9a.17.17,0,0,0,.16-.15h0l8.37,4.9a.15.15,0,0,1-.15.16h0" fill="#072641"/><path d="M116.19,68.29l-8.38-4.9H108l8.38,4.9h-.16" fill="#07253f"/><path d="M116.35,68.29,108,63.39h.16l8.22,4.9h0" fill="#07243d"/><path d="M116.51,68.29l-8.38-4.9h.16l8.22,4.9h0" fill="#06233c"/><path d="M116.67,68.29l-8.38-4.9h.16l8.22,4.9h0" fill="#06223a"/><path d="M116.67,68.29l-8.38-4.9h.16l8.22,4.9h0" fill="#062138"/><path d="M116.82,68.29l-8.37-4.9h.15l8.22,4.9h0" fill="#062037"/><path d="M117,68.29l-8.38-4.9h.16l8.22,4.9h0" fill="#061f35"/><path d="M117,68.45l-8.38-4.9h0l8.38,4.9h0" fill="#061e33"/></g><path d="M115.71,68.6c1.11-.63,1.9-.15,1.9,1.11a4,4,0,0,1-1.9,3.32c-1.1.63-1.9.16-1.9-1.11a3.75,3.75,0,0,1,1.9-3.32Z" fill="#bbbab9"/><g clip-path="url(#p)"><path d="M114.29,73.19l-8.37-4.9a1.42,1.42,0,0,1-.64-1.26v-.32l8.38,4.9v.32a1.64,1.64,0,0,0,.63,1.26" fill="#05192b"/><path d="M113.82,71.45l-8.38-4.9v-.31l8.38,4.9v.31" fill="#051a2d"/><path d="M113.82,71.3l-8.38-4.9v-.16l8.38,4.9v.15" fill="#051b2e"/><path d="M113.82,71l-8.38-4.9v-.16l8.38,4.9V71" fill="#051c30"/><path d="M114,70.82l-8.54-4.9v-.16l8.38,4.9a.16.16,0,0,1,.16.15h0" fill="#051d32"/><path d="M114,70.66l-8.38-4.9V65.6L114,70.5v.16" fill="#061e33"/><path d="M114,70.51l-8.4-4.91v-.15l8.38,4.9c.16,0,.16.15,0,.15" fill="#061f35"/><path d="M114.14,70.35l-8.54-4.9a.16.16,0,0,1,.15-.16h0l8.38,4.9v.16" fill="#062037"/><path d="M114.14,70.19l-8.38-4.9a.15.15,0,0,1,.15-.16h0l8.37,4.9-.15.16" fill="#062138"/><path d="M114.29,70l-8.37-4.9a.15.15,0,0,1,.15-.16h0l8.38,4.9c-.16,0-.16,0-.16.16" fill="#06223a"/><path d="M114.45,69.87,106.07,65a.16.16,0,0,1,.16-.15h0l8.38,4.9c-.16,0-.16,0-.16.15" fill="#06233c"/><path d="M114.45,69.71l-8.38-4.9.16-.15,8.38,4.9-.16.15" fill="#07243d"/><path d="M114.61,69.4l-8.38-4.9.16-.16,8.38,4.9a.16.16,0,0,1-.15.16h0" fill="#07253f"/><path d="M114.77,69.24l-8.38-4.9a.16.16,0,0,1,.15-.16h0l8.54,4.9c-.16,0-.16.16-.32.16" fill="#072641"/><path d="M115.09,69.08l-8.38-4.9c.15-.16.47-.31.63-.47l8.38,4.9c-.32,0-.48.31-.63.47" fill="#072742"/></g><path d="M15.18,267.47l-8.38-4.9-.48-125.2,8.54,4.9Z" fill="#133a61"/><g clip-path="url(#q)"><path d="M14.86,142.27l-8.38-4.9v-1.26l8.38,4.9v1.26" fill="#12385f"/><path d="M14.86,141l-8.38-4.9a6.909,6.909,0,0,1,.16-.79l8.38,4.9a1.44,1.44,0,0,1-.16.79" fill="#133a62"/><path d="M15,140.22l-8.38-4.9c0-.16.16-.47.16-.63l8.38,4.9a1.26,1.26,0,0,1-.16.63" fill="#143c66"/><path d="M15.18,139.43l-8.38-4.9c0-.16.16-.47.16-.63l8.37,4.9c0,.31,0,.47-.15.63" fill="#143f6a"/><path d="M15.49,138.8l-8.38-4.9c0-.16.16-.32.16-.64l8.38,4.9a1.2,1.2,0,0,0-.16.64" fill="#15416d"/><path d="M15.65,138.32l-8.38-4.9c0-.16.16-.31.16-.47l8.38,4.9a1.63,1.63,0,0,0-.16.47" fill="#164371"/><path d="M15.81,137.69l-8.38-4.9c0-.16.16-.32.32-.47l8.37,4.9c-.15.15-.15.31-.31.47" fill="#164574"/><path d="M16.13,137.22l-8.54-4.91c.16-.15.16-.31.31-.47l8.38,4.9c0,.16-.16.32-.16.47" fill="#174778"/><path d="M16.28,136.74l-8.38-4.9c.16-.16.16-.32.32-.47l8.38,4.9a1.86,1.86,0,0,0-.32.47" fill="#18497c"/><path d="M16.6,136.11l-8.38-4.9c.16-.16.16-.32.32-.47l8.37,4.9c0,.15-.15.31-.31.47" fill="#194c7f"/><path d="M16.91,135.63l-8.37-4.9c.15-.15.15-.31.31-.47l8.38,4.9c0,.16-.16.32-.32.47" fill="#194e83"/><path d="M17.39,135.16,9,130.26l.47-.47,8.38,4.9a.4.4,0,0,0-.47.35.24.24,0,0,0,0,.12" fill="#1a5087"/><path d="M17.71,134.53l-8.38-4.9c.16-.16.31-.48.47-.63l8.38,4.9a2.41,2.41,0,0,1-.47.63" fill="#1b528a"/><path d="M18.18,133.9,9.8,129c.16-.32.48-.48.63-.79l8.38,4.9a1.63,1.63,0,0,1-.63.79" fill="#1b548e"/><path d="M18.81,133.26l-8.38-4.9a10.541,10.541,0,0,1,2.06-1.58l8.38,4.9a15.191,15.191,0,0,0-2.06,1.58" fill="#1c5692"/></g><path d="M217.68,5.69c2.85-1.74,5.22-.32,5.22,3l.47,158.4a11.43,11.43,0,0,1-5.21,9L14.23,293.88c-2.85,1.74-5.22.31-5.22-3l-.47-158.4a11.43,11.43,0,0,1,5.21-9ZM216.89,151l-.31-125.2c0-3.95-2.85-5.53-6.17-3.48L20.87,131.68a13.55,13.55,0,0,0-6.17,10.6L15,267.47c0,4,2.69,5.54,6.16,3.48L210.73,161.56A13.15,13.15,0,0,0,216.89,151M115.72,68.61a4,4,0,0,0-1.9,3.32c0,1.26,1,1.74,1.9,1.1a4,4,0,0,0,1.9-3.32c0-1.26-1-1.73-1.9-1.1" fill="#f4ebe6"/><path d="M216.89,151a13.15,13.15,0,0,1-6.16,10.59L95.8,228,21.34,271c-3.32,1.9-6.16.32-6.16-3.48l-.32-125.2A13.13,13.13,0,0,1,21,131.69l93.42-53.91,96.12-55.49c3.32-1.9,6.16-.31,6.16,3.48Z" fill="#2d2c2b"/><path d="M8.85,290.87.48,286,0,127.57l8.38,4.9Z" fill="#bbbab9"/><path d="M13.75,123.46l-8.53-4.9L209.14.79l8.54,4.9Z" fill="#bbbab9"/><path d="M8.38,132.47,0,127.57a11.5,11.5,0,0,1,5.22-9l8.38,4.9a11.7,11.7,0,0,0-5.22,9Z" fill="#bbbab9"/><g clip-path="url(#r)"><path d="M8.38,132.47,0,127.57v-1.1l8.38,4.9a2.55,2.55,0,0,1,0,1.1" fill="#bbbab9"/><path d="M8.54,131.53l-8.38-4.9a1.39,1.39,0,0,1,.16-.8l8.37,4.9a1.45,1.45,0,0,0-.15.79" fill="#bbbab9"/><path d="M8.69,130.74.32,125.83c0-.15.15-.47.15-.63l8.38,4.9a1.29,1.29,0,0,0-.16.64" fill="#bbbab9"/><path d="M8.85,130.1.47,125.2c0-.16.16-.31.16-.47L9,129.63a.58.58,0,0,0-.16.47" fill="#bbbab9"/><path d="M9,129.63l-8.38-4.9c0-.16.16-.32.16-.48l8.38,4.9a.6.6,0,0,0-.16.48" fill="#bbbab9"/><path d="M9.17,129.15l-8.38-4.9c0-.15.16-.31.16-.47l8.38,4.9c0,.16-.16.32-.16.47" fill="#bbbab9"/><path d="M9.33,128.68,1,123.78c0-.16.16-.32.16-.47l8.37,4.9c0,.15-.15.31-.15.47" fill="#bbbab9"/><path d="M9.49,128.2l-8.38-4.9c0-.15.16-.31.16-.47l8.37,4.9a.57.57,0,0,1-.15.47" fill="#bbbab9"/><path d="M9.8,127.73l-8.53-4.9c.15-.16.15-.32.31-.47l8.38,4.9c0,.15-.16.31-.16.47" fill="#bbbab9"/><path d="M10,127.26l-8.38-4.9c.16-.16.16-.32.32-.48l8.38,4.9c-.16.16-.16.32-.32.48" fill="#bbbab9"/><path d="M10.28,126.94,1.9,122c.16-.16.16-.32.31-.47l8.38,4.9c-.16.15-.16.31-.31.47" fill="#bbbab9"/><path d="M10.59,126.47l-8.38-4.9c.16-.16.16-.32.32-.48l8.38,4.9c-.16.16-.16.32-.32.48" fill="#bbbab9"/><path d="M10.91,126l-8.38-4.9.47-.47,8.38,4.9c-.16,0-.31.31-.47.47" fill="#bbbab9"/><path d="M11.38,125.36,3,120.46a2.39,2.39,0,0,1,.64-.63l8.37,4.9-.63.63" fill="#bbbab9"/><path d="M11.86,124.88,3.48,120a18.259,18.259,0,0,1,1.74-1.42l8.38,4.9a12,12,0,0,0-1.74,1.42" fill="#bbbab9"/></g><path d="M95.8,228,21.34,271c-3.32,1.9-6.16.31-6.16-3.48l-.32-125.2A13.15,13.15,0,0,1,21,131.68l93.42-53.9C144.33,105.76,165.83,154.76,95.8,228Z" fill="#3f3f3f"/></g></svg>