<svg xmlns="http://www.w3.org/2000/svg" width="459.018" height="160.764" viewBox="0 0 459.018 160.764">
  <g id="oculos_lentes" data-name="oculos lentes" transform="translate(0 0)" opacity="0.91">
    <path id="Caminho_328" data-name="Caminho 328" d="M401.328,178.891s-51.309-6.711-78.275,3.639-26.421,17.7-26.421,17.7-9.26,27.237,0,60.739,18.8,53.386,50.935,61.557c22.334,5.2,70,14.709,96.149-12.53s38.133-64.042,32.412-96.165S401.328,178.891,401.328,178.891Z" transform="translate(-292.517 -167.689)"/>
    <path id="Caminho_329" data-name="Caminho 329" d="M616.06,172.581c-37.588-1.226-66.641-4.129-99.3,4.268s-61.263,29.508-52.274,60.013,26.965,70.955,49.845,79.535,64.553,9.8,78.852,3.676,40.041-17.188,46.985-43.526,8.988-59.312,8.988-59.312S653.649,173.807,616.06,172.581Z" transform="translate(-190.306 -171.088)"/>
    <g id="Grupo_28" data-name="Grupo 28" opacity="0.91">
      <path id="Caminho_330" data-name="Caminho 330" d="M401.328,178.891s-51.309-6.711-78.275,3.639-26.421,17.7-26.421,17.7-9.26,27.237,0,60.739,18.8,53.386,50.935,61.557c22.334,5.2,70,14.709,96.149-12.53s38.133-64.042,32.412-96.165S401.328,178.891,401.328,178.891Z" transform="translate(-292.517 -167.689)"/>
      <path id="Caminho_331" data-name="Caminho 331" d="M616.06,172.581c-37.588-1.226-66.641-4.129-99.3,4.268s-61.263,29.508-52.274,60.013,26.965,70.955,49.845,79.535,64.553,9.8,78.852,3.676,40.041-17.188,46.985-43.526,8.988-59.312,8.988-59.312S653.649,173.807,616.06,172.581Z" transform="translate(-190.306 -171.088)"/>
    </g>
    <g id="Grupo_29" data-name="Grupo 29" opacity="0.91">
      <path id="Caminho_332" data-name="Caminho 332" d="M401.328,178.891s-51.309-6.711-78.275,3.639-26.421,17.7-26.421,17.7-9.26,27.237,0,60.739,18.8,53.386,50.935,61.557c22.334,5.2,70,14.709,96.149-12.53s38.133-64.042,32.412-96.165S401.328,178.891,401.328,178.891Z" transform="translate(-292.517 -167.689)"/>
      <path id="Caminho_333" data-name="Caminho 333" d="M616.06,172.581c-37.588-1.226-66.641-4.129-99.3,4.268s-61.263,29.508-52.274,60.013,26.965,70.955,49.845,79.535,64.553,9.8,78.852,3.676,40.041-17.188,46.985-43.526,8.988-59.312,8.988-59.312S653.649,173.807,616.06,172.581Z" transform="translate(-190.306 -171.088)"/>
    </g>
  </g>
</svg>
