<svg xmlns="http://www.w3.org/2000/svg" xmlns:xlink="http://www.w3.org/1999/xlink" viewBox="0 0 240.29 137.53"><defs><style>.cls-1{fill:none;}.cls-2{fill:#282828;opacity:0.5;isolation:isolate;}.cls-3{fill:#082a48;}.cls-4{fill:#ff9810;}.cls-5{fill:#f4e8e6;}.cls-6{fill:#348cd1;}.cls-7{clip-path:url(#clip-path);}.cls-8{clip-path:url(#clip-path-2);}.cls-9{clip-path:url(#clip-path-3);}.cls-10{clip-path:url(#clip-path-4);}</style><clipPath id="clip-path"><path class="cls-1" d="M206.62,48.22c.15,0,.15.31-.16.79a2.08,2.08,0,0,1-1,1.26l-57.07-33a2.69,2.69,0,0,0,.95-1.26,2.14,2.14,0,0,0,.16-.79C166.62,25.13,189.38,38.26,206.62,48.22Z"/></clipPath><clipPath id="clip-path-2"><path class="cls-1" d="M149.23,16.44l-.79.79c-.31.16-.31-.16-.16-.63a2.1,2.1,0,0,1,.95-1.27c.32-.15.32.16.16.64A.74.74,0,0,1,149.23,16.44Z"/></clipPath><clipPath id="clip-path-3"><path class="cls-1" d="M148.28,17.23h.16l57.07,33h-.16C188.28,40.47,165.36,27.19,148.28,17.23Z"/></clipPath><clipPath id="clip-path-4"><path class="cls-1" d="M149.54,15.18l57.07,33h-.16a2.71,2.71,0,0,0-.94,1.27,2,2,0,0,0-.16.79l-57.07-33c-.16,0-.16-.31.16-.79a2.08,2.08,0,0,1,.95-1.26Z"/></clipPath></defs><title>papel-lapis</title><g id="Layer_2" data-name="Layer 2"><g id="Layer_1-2" data-name="Layer 1"><path class="cls-2" d="M107.5,0,2.69,60.86l132.79,76.67L240.29,76.67ZM213.89,82.68a3.67,3.67,0,0,0-2.22-3,11,11,0,0,0-5.21-1.27,11,11,0,0,1,5.21,1.27A3.67,3.67,0,0,1,213.89,82.68Zm-9.33-15.81h0l-1.74-1ZM168.68,46.16l-1.74-.95h0ZM74.93,91.69l86-50-86,50ZM57.07,81.41l86-49.95-86,49.95Zm62.12-63.86,1.74,1.1-1.74-1.1-86,50Zm6,3.48L39.05,71h0ZM40.15,71.61l.79.48h0Zm4.9,2.85,86-50,1.74,1.11h0l-1.74-1.11-86,50,1.74,1.11Zm92-46.64,1.74.95-1.74-.95-86,50ZM98.8,105.44l86-49.95-86,49.95,1.74,1h0Zm6,3.48L190.8,59l-86,50,1.74,1h0Zm5.86,3.48,86-50,1.74,1h0l-1.74-1.1-86,50.11,1.74.95h0Z"/><path class="cls-3" d="M130.26,25.45,44.1,75.4l-1.73-1,86-49.95Z"/><path class="cls-3" d="M201.87,66.87l-86.15,49.95-1.74-1.1,86-50Z"/><path class="cls-4" d="M209,79.67c2.84,1.74,2.84,4.43,0,6s-7.59,1.74-10.44,0-2.84-4.42,0-6A11.15,11.15,0,0,1,209,79.67Z"/><path class="cls-3" d="M207.72,70.19l-86,50.11L120,119.2l86-50Z"/><path class="cls-3" d="M195.87,63.39l-86.16,50L108,112.4l86.16-50.12Z"/><path class="cls-3" d="M189.86,59.91l-86,50-1.9-1L188.12,59Z"/><path class="cls-3" d="M183.85,56.43l-86,50.12-1.74-1.11,86-49.95Z"/><path class="cls-3" d="M178,53,91.85,103.07,90.11,102l86-50Z"/><path class="cls-3" d="M172,49.64l-86.16,50-1.74-1,86.16-50.11Z"/><path class="cls-3" d="M166,46.16l-86,50-1.9-1,86.16-50.12Z"/><path class="cls-3" d="M160,42.68l-86,50-1.74-1,86-50Z"/><path class="cls-3" d="M154.13,39.2,68,89.32l-1.74-1.11,86-49.95Z"/><path class="cls-3" d="M148.13,35.73,62,85.84l-1.74-1.11,86.16-49.95Z"/><path class="cls-3" d="M142.12,32.41l-86,50-1.9-1L140.38,31.3Z"/><path class="cls-3" d="M136.11,28.93l-86,49.95-1.74-.94,86-50.12Z"/><path class="cls-3" d="M124.25,22,38.1,72.09,36.36,71l86.15-50Z"/><path class="cls-3" d="M118.25,18.65l-86,50-1.9-1.11,86.16-49.95Z"/><path class="cls-3" d="M91.69,27,46.79,53.12l-1.74-.95L90,26.08Z"/><path class="cls-5" d="M104.81,0,237.6,76.67,132.79,137.53,0,60.86ZM68,89.32l86-50-1.74-1.11-86,50L68,89.32M44.1,75.41l86-50-1.73-1.11-86,50,1.73,1.11m47.75,27.66,86-49.95-1.74-.95-86,50,1.74.95m29.87,17.23,86-49.95L206,69.4l-86,49.8,1.74,1.11M38.1,72.09l86-50-1.74-.95-86,50,1.74,1M62,85.84l86-50-1.74-1-86,50,1.74,1M32.25,68.61l86-50-1.74-1.1-86,50,1.74,1.11M74,92.64l86-50-1.73-1-86,50,1.73,1m23.88,13.91,86-50-1.74-1-86,50,1.74,1m6,3.32,86-50L188.12,59l-86,50,1.74,1m5.85,3.47,86-49.95-1.74-1-86,50,1.74.94M85.84,99.59l86-49.95-1.74-1-86,50,1.74,1M56.12,82.36l86-49.95-1.74-.95-86,49.95,1.74,1m-6-3.48,86-49.95L134.37,28l-86,50,1.74.95M80,96.11l86-49.95-1.74-.95-86,50,1.74.94m35.73,20.71,86-49.95-1.74-1-86,50,1.74.95m82.83-31.14a11.09,11.09,0,0,0,10.44,0c2.84-1.74,2.84-4.43,0-6a11.09,11.09,0,0,0-10.44,0c-2.84,1.58-2.84,4.27,0,6M46.79,53.11,91.69,27l-1.74-1L45.05,52.17l1.74.94"/><path class="cls-6" d="M206.62,48.22c.15,0,.15.31-.16.79a2.08,2.08,0,0,1-1,1.26l-57.07-33a2.69,2.69,0,0,0,.95-1.26,2.14,2.14,0,0,0,.16-.79C166.62,25.13,189.38,38.26,206.62,48.22Z"/><g class="cls-7"><path class="cls-6" d="M148.44,17.23l57.07,33a.16.16,0,0,0,.16-.15h0l-57.07-33a.16.16,0,0,1-.15.16h0"/><path class="cls-6" d="M148.6,17.07l57.07,33h0l-57.07-33h0"/><path class="cls-6" d="M148.76,17.07l57.06,33h0l-57.06-33h0"/><path class="cls-6" d="M148.76,16.91l57.06,33h0l-57.06-33h0"/><path class="cls-6" d="M148.76,16.91l57.06,33h0l-57.06-33h0"/><path class="cls-6" d="M148.91,16.91,206,50h0l-57.07-33h0"/><path class="cls-6" d="M148.91,16.76,206,49.8h0l-57.07-33h0"/><path class="cls-6" d="M148.91,16.76,206,49.8h0l-57.07-33h0"/><path class="cls-6" d="M148.91,16.76,206,49.8h0l-57.07-33c.16-.16.16,0,0,0"/><path class="cls-6" d="M149.07,16.6l57.07,33h0l-57.07-33h0"/><path class="cls-6" d="M149.07,16.6l57.07,33h0l-57.07-33h0"/><path class="cls-6" d="M149.07,16.6l57.07,33h0l-57.07-33h0"/><path class="cls-6" d="M149.07,16.44l57.07,33h0l-57.07-33h0"/><path class="cls-6" d="M149.23,16.44l57.07,33h0l-57.07-33h0"/><path class="cls-6" d="M149.23,16.28l57.07,33h0l-57.07-33h0"/><path class="cls-6" d="M149.23,16.28l57.07,33h0l-57.07-33h0"/><path class="cls-6" d="M149.23,16.28l57.07,33v-.15L149.23,16.28c.16-.15,0-.15,0,0"/><path class="cls-6" d="M149.39,16.12l57.07,33c0-.15.15-.15.15-.31v-.16l-57.06-33v.16a.47.47,0,0,0-.16.31"/><path class="cls-6" d="M149.55,15.65l57.07,33v-.16L149.55,15.65h0"/><path class="cls-6" d="M149.55,15.65l57.07,33v-.16L149.55,15.65h0"/><path class="cls-6" d="M149.55,15.49l57.07,33h0l-57.07-33h0"/><path class="cls-6" d="M149.55,15.49l57.07,33h0l-57.07-33h0"/><path class="cls-6" d="M149.55,15.33l57.07,33h0l-57.07-33h0"/><path class="cls-6" d="M149.55,15.33l57.07,33h0l-57.07-33h0"/><path class="cls-6" d="M149.55,15.33l57.07,33h0l-57.07-33h0"/><path class="cls-6" d="M149.55,15.33l57.07,33h0l-57.07-33h0"/><path class="cls-6" d="M149.55,15.18l57.07,33h0l-57.07-33h0"/><path class="cls-6" d="M149.55,15.18l57.07,33h0l-57.07-33h0"/><path class="cls-6" d="M149.55,15.18l57.07,33h0l-57.07-33h0"/><path class="cls-6" d="M149.55,15.18l57.07,33h0l-57.07-33h0"/><path class="cls-6" d="M149.55,15.18l57.07,33h0l-57.07-33h0"/><path class="cls-6" d="M149.55,15.18l57.07,33h0l-57.07-33h0"/></g><path class="cls-6" d="M149.23,16.44l-.79.79c-.31.16-.31-.16-.16-.63a2.1,2.1,0,0,1,.95-1.27c.32-.15.32.16.16.64A.74.74,0,0,1,149.23,16.44Z"/><g class="cls-8"><path class="cls-6" d="M149.23,16.44l.16-.47c0-.16,0-.16.16-.32l-.32.79"/><path class="cls-6" d="M149.23,16.44l.32-.79v-.32l-.32,1.11"/><path class="cls-6" d="M149.23,16.44l.32-1.11v-.15l-.32,1.26"/><path class="cls-6" d="M149.23,16.44l.32-1.26h0l-.32,1.26"/><path class="cls-6" d="M149.23,16.44l.16-1.26h0l-.16,1.26"/><path class="cls-6" d="M149.23,16.44l.16-1.26h0l-.16,1.26"/><path class="cls-6" d="M149.23,16.44V15.18h-.16l.16,1.26"/><path class="cls-6" d="M149.23,16.44V15.33h-.16l.16,1.11"/><path class="cls-6" d="M149.23,16.44l-.16-1.11-.15.16.31,1"/><path class="cls-6" d="M149.23,16.44l-.16-1-.15.16.31.79"/><path class="cls-6" d="M149.23,16.44l-.32-1-.15.16.47.79"/><path class="cls-6" d="M149.23,16.44l-.32-.79a.14.14,0,0,1-.15.16h0l.47.63"/><path class="cls-6" d="M149.23,16.44l-.47-.63a.17.17,0,0,1-.15.16h0l.63.47"/><path class="cls-6" d="M149.23,16.44,148.6,16a.52.52,0,0,0-.16.31l.79.16"/><path class="cls-6" d="M149.23,16.44l-.79-.16c0,.16-.16.16-.16.32a.56.56,0,0,1-.15.32l1.1-.48"/><path class="cls-6" d="M149.23,16.44l-.95.48v.15l.95-.63"/><path class="cls-6" d="M149.23,16.44l-.95.63v.16l.95-.79"/><path class="cls-6" d="M149.23,16.44l-.95.79h0l.95-.79"/><path class="cls-6" d="M149.23,16.44l-.95.79h0l.95-.79"/><path class="cls-6" d="M149.23,16.44l-.95.79h0l.95-.79"/><path class="cls-6" d="M149.23,16.44l-.95.95h0l.95-.95"/><path class="cls-6" d="M149.23,16.44l-.79.95h0l.79-.95"/><path class="cls-6" d="M149.23,16.44l-.79.79h0l.79-.79"/></g><path class="cls-6" d="M148.28,17.23h.16l57.07,33h-.16C188.28,40.47,165.36,27.19,148.28,17.23Z"/><g class="cls-9"><path class="cls-6" d="M148.28,17.23l57.07,33h.16l-57.07-33h-.16"/></g><path class="cls-6" d="M149.54,15.18l57.07,33h-.16a2.71,2.71,0,0,0-.94,1.27,2,2,0,0,0-.16.79l-57.07-33c-.16,0-.16-.31.16-.79a2.08,2.08,0,0,1,.95-1.26Z"/><g class="cls-10"><path class="cls-6" d="M149.55,15.18l57.06,33h-.15a.16.16,0,0,0-.16.16h0l-57.07-33,.16-.15h.16"/><path class="cls-6" d="M149.23,15.33l57.07,33h0l-57.07-33h0"/><path class="cls-6" d="M149.07,15.33l57.07,33h0l-57.07-33h0"/><path class="cls-6" d="M149.07,15.49l57.07,33h0l-57.07-33h0"/><path class="cls-6" d="M149.07,15.49l57.07,33h0l-57.07-33h0"/><path class="cls-6" d="M148.91,15.49l57.07,33h0l-57.07-33h0"/><path class="cls-6" d="M148.91,15.65l57.07,33h0l-57.07-33h0"/><path class="cls-6" d="M148.91,15.65l57.07,33h0l-57.07-33h0"/><path class="cls-6" d="M148.76,15.65l57.06,33h0l-57.06-33h0"/><path class="cls-6" d="M148.76,15.81l57.06,33h0l-57.06-33h0"/><path class="cls-6" d="M148.76,15.81l57.06,33h0l-57.06-33h0"/><path class="cls-6" d="M148.76,15.81l57.06,33h0l-57.06-33h0"/><path class="cls-6" d="M148.76,16l57.06,33h0L148.76,16h0"/><path class="cls-6" d="M148.6,16l57.07,33h0L148.6,16h0"/><path class="cls-6" d="M148.6,16.12l57.07,33h0l-57.07-33h0"/><path class="cls-6" d="M148.6,16.12l57.07,33h0l-57.07-33h0"/><path class="cls-6" d="M148.6,16.12l57.07,33v.16L148.6,16.12c-.16.16,0,.16,0,0"/><path class="cls-6" d="M148.44,16.28l57.07,33c0,.16-.16.16-.16.32v.16l-57.07-33V16.6a.49.49,0,0,0,.16-.32"/><path class="cls-6" d="M148.28,16.76l57.07,33V50l-57.07-33.2h0"/><path class="cls-6" d="M148.28,16.76l57.07,33V50l-57.07-33.2h0"/><path class="cls-6" d="M148.28,16.91l57.07,33h0l-57.07-33h0"/><path class="cls-6" d="M148.28,16.91l57.07,33h0l-57.07-33h0"/><path class="cls-6" d="M148.28,17.07l57.07,33h0l-57.07-33h0"/><path class="cls-6" d="M148.28,17.07l57.07,33h0l-57.07-33h0"/><path class="cls-6" d="M148.28,17.07l57.07,33h0l-57.07-33h0"/><path class="cls-6" d="M148.28,17.07l57.07,33h0l-57.07-33h0"/><path class="cls-6" d="M148.28,17.07l57.07,33h0l-57.07-33h0"/><path class="cls-6" d="M148.28,17.23l57.07,33h0l-57.07-33h0"/><path class="cls-6" d="M148.28,17.23l57.07,33h0l-57.07-33h0"/><path class="cls-6" d="M148.28,17.23l57.07,33h0l-57.07-33h0"/><path class="cls-6" d="M148.28,17.23l57.07,33h0l-57.07-33h0"/><path class="cls-6" d="M148.28,17.23l57.07,33.2h0l-57.07-33.2h0"/></g><path class="cls-6" d="M205.51,50.27c-.31.16-.31-.16-.16-.63a2.1,2.1,0,0,1,1-1.27c.32-.15.32.16.16.64A2.69,2.69,0,0,1,205.51,50.27Z"/></g></g></svg>