<svg xmlns="http://www.w3.org/2000/svg" width="359.483" height="123.275"><path fill="none" d="M62.9 30.757c-18.528 0-33.603 15.074-33.603 33.603 0 18.528 15.074 33.602 33.603 33.602S96.502 82.888 96.502 64.36 81.428 30.757 62.9 30.757z"/><g fill="#27AAE1"><path d="M63.089 27.289c-20.517 0-37.209 16.564-37.209 36.925 0 20.359 16.692 36.924 37.209 36.924s37.209-16.565 37.209-36.924c.001-20.361-16.692-36.925-37.209-36.925zm-.19 71.452c-3.597 0-7.127-.575-10.516-1.711 2.936-9.302 6.829-14.809 10.516-14.809s7.58 5.507 10.516 14.809a33.01 33.01 0 0 1-10.516 1.711zm.19-30.406c1.937 0 3.513-1.563 3.513-3.485a3.488 3.488 0 0 0-2.082-3.181V50.572l9.196 16.427-7.739 7.68H60.2l-7.739-7.68 9.197-16.427v11.097a3.489 3.489 0 0 0-2.082 3.181c.001 1.921 1.577 3.485 3.513 3.485zm-.262 9.343h8.277c.57 0 1.059.335 1.289.813v1.214a1.43 1.43 0 0 1-1.289.813H55.076a1.427 1.427 0 0 1-1.431-1.42c0-.784.642-1.421 1.431-1.421h7.751zm13.57 17.966c-1.689-5.42-3.646-9.59-5.815-12.443h.521c2.368 0 4.293-1.91 4.293-4.26s-1.926-4.262-4.293-4.262h-1.078l6.479-6.428c.452-.449.55-1.141.239-1.694L64.34 44.402c-.009-.016-.021-.028-.03-.043a1.152 1.152 0 0 0-.066-.1c-.017-.023-.034-.047-.053-.07l-.054-.059a1.435 1.435 0 0 0-.078-.078c-.021-.019-.043-.04-.065-.058l-.066-.049a1.458 1.458 0 0 0-.097-.063c-.017-.01-.03-.023-.048-.032-.007-.005-.016-.006-.023-.01l-.069-.033a1.54 1.54 0 0 0-.112-.045c-.028-.01-.055-.022-.082-.031-.023-.007-.047-.011-.07-.016a1.065 1.065 0 0 0-.11-.021c-.031-.005-.061-.013-.092-.016-.027-.003-.056-.001-.084-.002-.018 0-.034-.005-.052-.005s-.034.004-.052.005c-.029.001-.057 0-.085.002-.031.002-.062.01-.092.016a1.84 1.84 0 0 0-.107.021c-.024.005-.049.009-.073.017-.028.008-.055.021-.083.031a1.405 1.405 0 0 0-.107.043c-.024.011-.049.021-.074.035l-.021.009c-.018.009-.032.022-.049.033-.032.02-.063.039-.093.061-.024.017-.048.034-.071.053l-.064.058c-.026.023-.05.047-.074.073-.02.021-.04.041-.058.064l-.053.069c-.022.03-.042.062-.062.094-.01.017-.023.03-.033.047L49.435 66.557a1.413 1.413 0 0 0 .24 1.694l6.478 6.428h-1.078c-2.368 0-4.293 1.912-4.293 4.262s1.926 4.26 4.293 4.26h.523c-2.169 2.854-4.126 7.023-5.815 12.443-12.361-5.159-21.041-17.287-21.041-31.429 0-18.825 15.378-34.085 34.347-34.085s34.347 15.26 34.347 34.085c.001 14.139-8.678 26.268-21.039 31.429zM52.967 77.19c-.003.004-.005.008-.009.011v-.011h.009z"/><path d="M61.627 81.831c-.726.277-1.453.756-2.174 1.421h7.272c-.721-.665-1.448-1.144-2.174-1.421h-2.924z"/><path d="M61.627 81.831h-4.83c-.407.43-.807.904-1.2 1.421h3.856c.722-.665 1.449-1.144 2.174-1.421zm2.925 0c.726.277 1.453.756 2.174 1.421h3.855a17.063 17.063 0 0 0-1.2-1.421h-4.829z"/></g><g fill="#414042"><path d="M62.9 30.188c18.873 0 34.172 15.3 34.172 34.172S81.772 98.532 62.9 98.532c-18.873 0-34.172-15.3-34.172-34.172S44.027 30.188 62.9 30.188m0-2.848c-20.413 0-37.02 16.607-37.02 37.02s16.607 37.02 37.02 37.02 37.02-16.607 37.02-37.02S83.313 27.34 62.9 27.34z"/><path d="M62.9 101.949c-20.727 0-37.589-16.862-37.589-37.589S42.173 26.771 62.9 26.771s37.589 16.862 37.589 37.589-16.862 37.589-37.589 37.589zm0-74.039c-20.099 0-36.45 16.351-36.45 36.45s16.352 36.45 36.45 36.45 36.45-16.351 36.45-36.45S82.999 27.91 62.9 27.91zm0 71.192c-19.157 0-34.742-15.585-34.742-34.742S43.743 29.618 62.9 29.618 97.642 45.203 97.642 64.36 82.057 99.102 62.9 99.102zm0-68.345c-18.528 0-33.603 15.074-33.603 33.603 0 18.528 15.074 33.602 33.603 33.602S96.502 82.888 96.502 64.36 81.428 30.757 62.9 30.757z"/></g><path d="M119.897 74.688c-1.228 0-2.37-.197-3.425-.592-1.056-.393-1.96-.944-2.716-1.652a7.93 7.93 0 0 1-1.795-2.504c-.441-.961-.661-2.008-.661-3.143 0-1.229.26-2.345.779-3.354a7.704 7.704 0 0 1 2.197-2.599c.945-.724 2.063-1.291 3.354-1.701 1.291-.409 2.724-.614 4.299-.614 1.039 0 2.047.087 3.023.26.976.173 1.826.433 2.551.779v-1.134c0-2.866-1.653-4.299-4.96-4.299-1.354 0-2.646.229-3.874.685-1.229.457-2.52 1.142-3.874 2.055l-2.22-4.724c1.637-1.07 3.338-1.874 5.102-2.409 1.764-.535 3.638-.803 5.622-.803 3.748 0 6.645.882 8.693 2.646 2.047 1.764 3.071 4.346 3.071 7.748v6.378c0 .756.118 1.283.354 1.582.236.301.653.48 1.252.544v6.378c-.661.156-1.26.26-1.795.307-.536.047-1.024.07-1.465.07-1.417 0-2.488-.275-3.212-.826-.725-.551-1.181-1.33-1.37-2.338l-.142-1.135c-1.103 1.418-2.417 2.504-3.945 3.26a10.77 10.77 0 0 1-4.843 1.135zm2.221-5.433c.818 0 1.613-.142 2.386-.426.771-.283 1.409-.66 1.913-1.133.724-.567 1.086-1.165 1.086-1.795v-2.363a12.262 12.262 0 0 0-2.149-.59 11.927 11.927 0 0 0-2.149-.213c-1.386 0-2.527.315-3.425.945-.897.63-1.346 1.449-1.346 2.458 0 .913.346 1.66 1.04 2.243.691.583 1.572.874 2.644.874zm34.108 5.433c-1.89 0-3.528-.395-4.913-1.182a8.113 8.113 0 0 1-3.212-3.307v14.078h-7.559V49.413h6.567v4.016c.913-1.417 2.055-2.519 3.425-3.307 1.37-.787 3-1.181 4.89-1.181 1.669 0 3.205.331 4.606.992a11.259 11.259 0 0 1 3.638 2.716c1.023 1.15 1.826 2.504 2.409 4.063.583 1.559.874 3.236.874 5.031 0 1.858-.268 3.575-.803 5.15-.536 1.574-1.276 2.937-2.221 4.086a10.36 10.36 0 0 1-3.401 2.717c-1.324.66-2.757.992-4.3.992zm-2.551-6.378c.819 0 1.566-.18 2.244-.543a5.969 5.969 0 0 0 1.771-1.44 6.359 6.359 0 0 0 1.158-2.103 7.96 7.96 0 0 0 .401-2.527c0-.913-.15-1.755-.449-2.527-.3-.771-.709-1.441-1.229-2.008s-1.15-1.008-1.89-1.323a6.044 6.044 0 0 0-2.386-.473c-1.039 0-2.04.307-3 .921a5.982 5.982 0 0 0-2.197 2.48v5.102a7.806 7.806 0 0 0 2.291 3.165c1.026.851 2.12 1.276 3.286 1.276zm17.007-28.581h7.559v25.652c0 1.89.803 2.835 2.409 2.835.378 0 .795-.055 1.252-.166a4.561 4.561 0 0 0 1.252-.496l.992 5.67c-.945.441-2.031.787-3.26 1.039-1.228.252-2.378.378-3.449.378-2.173 0-3.843-.567-5.007-1.7-1.166-1.135-1.748-2.771-1.748-4.914V39.729zm15.92 6.85v-6.85h7.559v6.85h-7.559zm0 27.637V49.413h7.559v24.803h-7.559zm11.291-12.425c0-1.701.299-3.331.897-4.889.599-1.559 1.465-2.929 2.599-4.11s2.527-2.118 4.181-2.811 3.535-1.04 5.646-1.04c2.865 0 5.275.607 7.229 1.819 1.951 1.213 3.416 2.795 4.393 4.748l-7.369 2.221c-.977-1.575-2.41-2.362-4.299-2.362-1.576 0-2.891.583-3.945 1.748-1.055 1.166-1.582 2.725-1.582 4.677 0 .977.142 1.866.425 2.669.284.803.677 1.488 1.181 2.055a5.377 5.377 0 0 0 1.771 1.323 5.043 5.043 0 0 0 2.15.472c.944 0 1.811-.228 2.598-.685.787-.456 1.37-1.046 1.748-1.771l7.37 2.268c-.914 1.921-2.37 3.496-4.37 4.724-2 1.229-4.434 1.844-7.299 1.844-2.078 0-3.945-.355-5.598-1.063-1.654-.709-3.056-1.653-4.205-2.835a11.993 11.993 0 0 1-2.622-4.109 13.51 13.51 0 0 1-.899-4.893zm35.43 12.897c-1.228 0-2.37-.197-3.425-.592-1.056-.393-1.961-.944-2.717-1.652-.756-.709-1.354-1.543-1.795-2.504s-.661-2.008-.661-3.143c0-1.229.26-2.345.779-3.354a7.713 7.713 0 0 1 2.196-2.599c.945-.724 2.063-1.291 3.354-1.701 1.291-.409 2.724-.614 4.3-.614 1.039 0 2.047.087 3.023.26.975.173 1.826.433 2.551.779v-1.134c0-2.866-1.654-4.299-4.961-4.299-1.354 0-2.646.229-3.873.685-1.229.457-2.521 1.142-3.875 2.055l-2.22-4.724c1.638-1.07 3.338-1.874 5.103-2.409 1.764-.535 3.637-.803 5.621-.803 3.748 0 6.645.882 8.693 2.646 2.047 1.764 3.07 4.346 3.07 7.748v6.378c0 .756.117 1.283.354 1.582.236.301.654.48 1.252.544v6.378c-.66.156-1.26.26-1.795.307s-1.023.07-1.465.07c-1.416 0-2.488-.275-3.212-.826-.725-.551-1.181-1.33-1.37-2.338l-.142-1.135c-1.103 1.418-2.417 2.504-3.944 3.26a10.756 10.756 0 0 1-4.841 1.135zm2.221-5.433c.818 0 1.613-.142 2.386-.426.771-.283 1.408-.66 1.913-1.133.724-.567 1.087-1.165 1.087-1.795v-2.363c-.662-.251-1.379-.449-2.15-.59s-1.488-.213-2.148-.213c-1.387 0-2.527.315-3.426.945-.897.63-1.346 1.449-1.346 2.458 0 .913.346 1.66 1.039 2.243.692.583 1.574.874 2.645.874zm18.377 4.961v-7.701h6.189v7.701h-6.189zm50.55 0h-7.56V60.279c0-1.637-.299-2.826-.897-3.566-.599-.74-1.37-1.11-2.314-1.11-.504 0-1.016.111-1.535.331a5.22 5.22 0 0 0-1.441.921 7.4 7.4 0 0 0-1.204 1.394 7.523 7.523 0 0 0-.874 1.748v14.22h-7.559V60.279c0-1.637-.3-2.826-.898-3.566-.599-.74-1.37-1.11-2.314-1.11-1.009 0-1.992.401-2.952 1.205-.962.803-1.662 1.866-2.103 3.189v14.22h-7.559V49.413h6.803v4.158a8.994 8.994 0 0 1 3.708-3.449c1.56-.787 3.378-1.181 5.457-1.181 1.039 0 1.944.126 2.716.378a6.558 6.558 0 0 1 2.008 1.04 5.516 5.516 0 0 1 1.37 1.535c.347.583.598 1.205.756 1.866.945-1.543 2.188-2.732 3.732-3.567 1.543-.834 3.307-1.252 5.291-1.252 1.574 0 2.842.292 3.803.874a6.322 6.322 0 0 1 2.244 2.268c.535.929.89 1.945 1.063 3.047.173 1.103.261 2.173.261 3.213v15.873zm16.817.472c-2.079 0-3.944-.34-5.599-1.017-1.653-.677-3.055-1.599-4.204-2.764a11.824 11.824 0 0 1-2.622-4.039 13.011 13.011 0 0 1-.897-4.795c0-1.795.299-3.488.897-5.079a12.324 12.324 0 0 1 2.599-4.181c1.134-1.197 2.527-2.142 4.181-2.834s3.535-1.04 5.646-1.04c2.109 0 3.983.347 5.622 1.04 1.637.693 3.023 1.629 4.157 2.811s1.991 2.544 2.574 4.086c.583 1.543.874 3.166.874 4.866 0 .441-.016.874-.047 1.299a9.272 9.272 0 0 1-.142 1.11h-18.33c.125 1.67.732 2.937 1.818 3.803a5.789 5.789 0 0 0 3.709 1.299c1.102 0 2.165-.268 3.188-.803s1.708-1.26 2.056-2.174l6.425 1.795c-.977 1.953-2.488 3.544-4.535 4.771-2.048 1.231-4.505 1.846-7.37 1.846zm5.244-15.212c-.158-1.575-.726-2.818-1.701-3.732-.977-.913-2.189-1.37-3.638-1.37-1.48 0-2.701.465-3.661 1.394-.961.929-1.52 2.166-1.677 3.708h10.677z" fill="#414042"/></svg>