<svg xmlns="http://www.w3.org/2000/svg" width="275" height="272"><g data-name="Grupo 390"><g data-name="Think Out Of The Box"><g data-name="Grupo 378"><g data-name="Grupo 377"><path data-name="Caminho 477" d="M98.519 164.881a35.241 35.241 0 1 0-34.14.142 17.63 17.63 0 0 1 5.981 5.366h22.248a17.067 17.067 0 0 1 5.911-5.508z" fill="#fddf7f"/></g></g><g data-name="Grupo 380"><g data-name="Grupo 379"><path data-name="Caminho 478" d="M129.474 170.388h-96.3L7.791 195.232h25.381V245.2h96.3v-49.968h25.381z" fill="#1798e0"/></g></g><g data-name="Grupo 382"><g data-name="Grupo 381"><path data-name="Caminho 479" d="M13.752 111.047a69.333 69.333 0 0 1 135.143 0h11.436a80.52 80.52 0 0 0-158.014 0z" fill="#1798e0"/></g></g><g data-name="Grupo 384"><g data-name="Grupo 383"><path data-name="Caminho 480" d="M37.011 111.046a46.948 46.948 0 0 1 88.623 0h11.723a58.146 58.146 0 0 0-112.07 0z" fill="#dc1924"/></g></g><g data-name="Grupo 386"><g data-name="Grupo 385"><path data-name="Caminho 481" d="M25.284 111.046a58.146 58.146 0 0 1 112.07 0h11.54a69.333 69.333 0 0 0-135.143 0z" fill="#ecf4f7"/></g></g><path data-name="Caminho 482" d="M114.221 132.707a32.912 32.912 0 0 0-32.427-31.518h-.474a32.926 32.926 0 0 0-19.082 59.758 2.315 2.315 0 1 1-2.687 3.771 37.556 37.556 0 0 1 21.765-68.159h.541a37.556 37.556 0 0 1 21.237 68.156 2.315 2.315 0 1 1-2.687-3.77 32.884 32.884 0 0 0 13.814-28.238zm42.254 60.871a2.315 2.315 0 0 1-1.619 3.97h-48.152a2.315 2.315 0 0 1-1.62-.661l-23.761-23.259-23.761 23.259a2.315 2.315 0 0 1-1.62.661H7.79a2.315 2.315 0 0 1-1.619-3.97l25.381-24.844a2.313 2.313 0 0 1 1.619-.661h96.3a2.313 2.313 0 0 1 1.619.661zM75.648 172.7H34.116l-20.651 20.218h41.532zm73.533 20.214l-20.65-20.214H86.998l20.651 20.214zm-19.706 7.438a2.315 2.315 0 0 0-2.315 2.315v40.215H83.638v-50.32a2.315 2.315 0 0 0-4.63 0v50.32H35.487v-40.211a2.315 2.315 0 0 0-4.63 0V245.2a2.315 2.315 0 0 0 2.315 2.315h96.3a2.315 2.315 0 0 0 2.315-2.315v-42.53a2.315 2.315 0 0 0-2.312-2.314zM76.241 25.712h2.767v2.767a2.315 2.315 0 0 0 4.63 0v-2.767h2.767a2.315 2.315 0 0 0 0-4.63h-2.767v-2.767a2.315 2.315 0 0 0-4.63 0v2.767h-2.767a2.315 2.315 0 1 0 0 4.63zm71.837 38.424h2.767V66.9a2.315 2.315 0 1 0 4.63 0v-2.764h2.767a2.315 2.315 0 0 0 0-4.63h-2.767v-2.767a2.315 2.315 0 1 0-4.63 0v2.767h-2.767a2.315 2.315 0 0 0 0 4.63zm-143.674 0h2.767V66.9a2.315 2.315 0 1 0 4.63 0v-2.764h2.767a2.315 2.315 0 1 0 0-4.63h-2.766v-2.767a2.315 2.315 0 1 0-4.63 0v2.767H4.405a2.315 2.315 0 1 0 0 4.63zM162.602 110.6a82.835 82.835 0 0 0-162.559 0 2.315 2.315 0 1 0 4.544.888 78.2 78.2 0 0 1 153.47 0 2.315 2.315 0 0 0 2.269 1.872 2.341 2.341 0 0 0 .447-.044 2.315 2.315 0 0 0 1.829-2.716zm-36.971 2.762a2.317 2.317 0 0 0 2.185-3.083 49.263 49.263 0 0 0-92.992 0 2.315 2.315 0 0 0 4.369 1.535 44.632 44.632 0 0 1 84.253 0 2.317 2.317 0 0 0 2.185 1.548zm23.259 0a2.317 2.317 0 0 0 2.259-2.834 71.661 71.661 0 0 0-139.657 0 2.315 2.315 0 1 0 4.513 1.036 67.019 67.019 0 0 1 130.631 0 2.315 2.315 0 0 0 2.257 1.798zm-11.536 0a2.317 2.317 0 0 0 2.232-2.935 60.461 60.461 0 0 0-116.531 0 2.315 2.315 0 1 0 4.462 1.238 55.83 55.83 0 0 1 107.607 0 2.318 2.318 0 0 0 2.232 1.697zM81.323 186.9a2.315 2.315 0 0 0 2.315-2.315v-1.776a2.315 2.315 0 0 0-4.63 0v1.776a2.315 2.315 0 0 0 2.315 2.315zm0-21.757a2.315 2.315 0 0 0 2.315-2.315v-17.877l10.6-10.71a2.315 2.315 0 0 0-3.29-3.258l-9.63 9.725-9.63-9.725a2.315 2.315 0 0 0-3.29 3.258l10.6 10.709v17.879a2.315 2.315 0 0 0 2.325 2.316z" fill="#1c1d21"/></g><path data-name="Retângulo 18" fill="none" d="M0 0h275v272H0z"/></g></svg>