<svg xmlns="http://www.w3.org/2000/svg" width="198.175" height="212" viewBox="0 0 198.175 212">
  <g id="Website_Design" data-name="Website Design" transform="translate(-16.302)">
    <g id="Grupo_343" data-name="Grupo 343" transform="translate(197.802 193.913)">
      <path id="Caminho_450" data-name="Caminho 450" d="M444.37,473.309l14.555-7.983-14.555-7.984Z" transform="translate(-444.37 -457.343)" fill="#aab1ba"/>
    </g>
    <g id="Grupo_344" data-name="Grupo 344" transform="translate(18.422 193.913)">
      <path id="Caminho_451" data-name="Caminho 451" d="M200.683,457.343H23.493a2.19,2.19,0,0,0-2.19,2.19v11.585a2.19,2.19,0,0,0,2.19,2.19h177.19Z" transform="translate(-21.303 -457.343)" fill="#fddf7f"/>
    </g>
    <g id="Grupo_345" data-name="Grupo 345" transform="translate(18.422 193.913)">
      <path id="Caminho_452" data-name="Caminho 452" d="M36.1,457.343H23.493a2.19,2.19,0,0,0-2.19,2.19v11.585a2.19,2.19,0,0,0,2.19,2.19H36.1V457.343Z" transform="translate(-21.303 -457.343)" fill="#1798e0"/>
    </g>
    <g id="Grupo_346" data-name="Grupo 346" transform="translate(18.422 166.293)">
      <path id="Caminho_453" data-name="Caminho 453" d="M209.786,409.242H23.64a2.336,2.336,0,0,1-2.337-2.337V394.539A2.336,2.336,0,0,1,23.64,392.2H209.786a2.336,2.336,0,0,1,2.337,2.337v12.367A2.337,2.337,0,0,1,209.786,409.242Z" transform="translate(-21.303 -392.202)" fill="#dc1924"/>
    </g>
    <g id="Grupo_347" data-name="Grupo 347" transform="translate(18.422 16.788)">
      <rect id="Retângulo_8" data-name="Retângulo 8" width="190.82" height="98.556" fill="#1798e0"/>
    </g>
    <g id="Grupo_348" data-name="Grupo 348" transform="translate(32.182 30.045)">
      <rect id="Retângulo_9" data-name="Retângulo 9" width="163.3" height="24.572" fill="#ecf4f7"/>
    </g>
    <g id="Grupo_349" data-name="Grupo 349" transform="translate(97.087 80.654)">
      <rect id="Retângulo_10" data-name="Retângulo 10" width="98.395" height="21.434" transform="translate(0)" fill="#ecf4f7"/>
    </g>
    <g id="Grupo_350" data-name="Grupo 350" transform="translate(18.422 2.12)">
      <path id="Caminho_454" data-name="Caminho 454" d="M201.038,5H32.388A11.085,11.085,0,0,0,21.3,16.085v3.584h190.82V16.085A11.085,11.085,0,0,0,201.038,5Z" transform="translate(-21.303 -5)" fill="#ecf4f7"/>
    </g>
    <g id="Grupo_351" data-name="Grupo 351" transform="translate(91.53 135.14)">
      <rect id="Retângulo_11" data-name="Retângulo 11" width="44.604" height="20.38" fill="#aab1ba"/>
    </g>
    <g id="Grupo_352" data-name="Grupo 352" transform="translate(18.422 115.345)">
      <path id="Caminho_455" data-name="Caminho 455" d="M21.3,280.75a11.243,11.243,0,0,0,.057,1.133,11.018,11.018,0,0,0,.441,2.163q.162.52.373,1.018a11.1,11.1,0,0,0,10.213,6.77H201.037a11.1,11.1,0,0,0,10.214-6.77q.211-.5.373-1.018a11.024,11.024,0,0,0,.441-2.163,11.243,11.243,0,0,0,.057-1.133v-8.71H21.3Z" transform="translate(-21.303 -272.04)" fill="#aab1ba"/>
    </g>
    <g id="Grupo_353" data-name="Grupo 353" transform="translate(43.051 40.168)">
      <circle id="Elipse_19" data-name="Elipse 19" cx="13.681" cy="13.681" r="13.681" transform="translate(0 12.236) rotate(-26.565)" fill="#fddf7f"/>
    </g>
    <g id="Grupo_354" data-name="Grupo 354" transform="translate(41.9 72.204)">
      <path id="Caminho_456" data-name="Caminho 456" d="M103.881,170.293h-15.4A11.809,11.809,0,0,0,76.674,182.1v18.076H115.69V182.1A11.809,11.809,0,0,0,103.881,170.293Z" transform="translate(-76.674 -170.293)" fill="#fddf7f"/>
    </g>
    <path id="Caminho_457" data-name="Caminho 457" d="M16.3,54.617V52.068a2.12,2.12,0,0,1,4.24,0v2.549a2.12,2.12,0,1,1-4.24,0Zm0,69.438V63.791a2.12,2.12,0,0,1,4.24,0v49.434h186.58V18.908H20.542V43.744a2.12,2.12,0,1,1-4.24,0V13.205A13.22,13.22,0,0,1,29.507,0h168.65a13.22,13.22,0,0,1,13.205,13.205V124.055a13.22,13.22,0,0,1-13.205,13.205h-59.9V153.4h11.473a2.12,2.12,0,1,1,0,4.24H77.938a2.12,2.12,0,1,1,0-4.24H89.41V137.26h-59.9A13.22,13.22,0,0,1,16.3,124.055ZM134.014,137.26H93.65V153.4h40.363ZM207.122,14.668V13.205a8.975,8.975,0,0,0-8.965-8.965H29.507a8.975,8.975,0,0,0-8.965,8.965v1.463Zm-186.58,102.8v6.59a8.975,8.975,0,0,0,8.965,8.965H198.157a8.975,8.975,0,0,0,8.965-8.965v-6.59ZM35.168,7.61H30.754a2.12,2.12,0,1,0,0,4.24h4.413a2.12,2.12,0,0,0,0-4.24Zm12.413,0H43.167a2.12,2.12,0,1,0,0,4.24H47.58a2.12,2.12,0,1,0,0-4.24Zm12.413,0H55.58a2.12,2.12,0,1,0,0,4.24h4.413a2.12,2.12,0,0,0,0-4.24ZM197.6,54.617a2.12,2.12,0,0,1-2.12,2.12H77.1a15.728,15.728,0,0,1-5.245,13.622A13.952,13.952,0,0,1,83.035,84.013v18.076a2.12,2.12,0,0,1-4.24,0V84.013a9.7,9.7,0,0,0-9.689-9.689h-15.4a9.7,9.7,0,0,0-9.689,9.689v18.076a2.12,2.12,0,0,1-4.24,0V84.013A13.952,13.952,0,0,1,50.955,70.358,15.729,15.729,0,0,1,45.71,56.737H32.182a2.12,2.12,0,0,1-2.12-2.12V30.045a2.12,2.12,0,0,1,2.12-2.12h163.3a2.12,2.12,0,0,1,2.12,2.12V54.617ZM72.968,58.523A11.561,11.561,0,1,0,61.407,70.084,11.574,11.574,0,0,0,72.968,58.523ZM193.362,32.165H34.3V52.5H46.8a15.8,15.8,0,0,1,29.207,0H193.362V32.165Zm2.12,72.044a2.12,2.12,0,0,0,2.12-2.12V80.654a2.12,2.12,0,0,0-2.12-2.12h-98.4a2.12,2.12,0,0,0-2.12,2.12v21.434a2.12,2.12,0,1,0,4.24,0V82.774H126.25v19.314a2.12,2.12,0,1,0,4.24,0V82.774h31.587v19.314a2.12,2.12,0,0,0,4.24,0V82.774h27.044v19.314A2.12,2.12,0,0,0,195.482,104.209ZM51.625,83.431a2.12,2.12,0,0,0-2.12,2.12v16.538a2.12,2.12,0,1,0,4.24,0V85.551A2.12,2.12,0,0,0,51.625,83.431Zm17.445,2.12v16.538a2.12,2.12,0,1,0,4.24,0V85.551a2.12,2.12,0,1,0-4.24,0ZM97.087,65.769h21.127a2.12,2.12,0,1,0,0-4.24H97.087a2.12,2.12,0,0,0,0,4.24Zm30.083,0a2.12,2.12,0,0,0,0-4.24h-1.752a2.12,2.12,0,0,0,0,4.24ZM97.087,74.324H142.26a2.12,2.12,0,0,0,0-4.24H97.087a2.12,2.12,0,0,0,0,4.24Zm80.772,106.89a2.12,2.12,0,0,0,0,4.24H180.4a2.12,2.12,0,0,0,0-4.24Zm-157.1,4.24H169.131a2.12,2.12,0,0,0,0-4.24H20.759a.217.217,0,0,1-.217-.217V168.63a.217.217,0,0,1,.217-.217h8.005v6.4a2.12,2.12,0,1,0,4.24,0v-6.4h9.585v6.4a2.12,2.12,0,1,0,4.24,0v-6.4h9.584v6.4a2.12,2.12,0,1,0,4.24,0v-6.4h9.584v6.4a2.12,2.12,0,1,0,4.24,0v-6.4h9.584v6.4a2.12,2.12,0,1,0,4.24,0v-6.4h9.584v6.4a2.12,2.12,0,1,0,4.24,0v-6.4h9.584v6.4a2.12,2.12,0,1,0,4.24,0v-6.4h9.584v6.4a2.12,2.12,0,1,0,4.24,0v-6.4h9.585v6.4a2.12,2.12,0,1,0,4.24,0v-6.4h9.585v6.4a2.12,2.12,0,1,0,4.24,0v-6.4h9.585v6.4a2.12,2.12,0,1,0,4.24,0v-6.4h9.585v6.4a2.12,2.12,0,1,0,4.24,0v-6.4h9.585v6.4a2.12,2.12,0,1,0,4.24,0v-6.4H206.9a.217.217,0,0,1,.217.217V181a.217.217,0,0,1-.217.217H187.326a2.12,2.12,0,0,0,0,4.24H206.9A4.462,4.462,0,0,0,211.359,181V168.63a4.462,4.462,0,0,0-4.457-4.457H20.759A4.462,4.462,0,0,0,16.3,168.63V181A4.462,4.462,0,0,0,20.759,185.454ZM214.477,201.9a2.12,2.12,0,0,1-1.1,1.859l-14.555,7.983c-.047.026-.1.046-.145.068-.024.011-.047.024-.072.034a2.111,2.111,0,0,1-.34.106c-.028.006-.056.011-.084.016a2.143,2.143,0,0,1-.378.038H20.613a4.316,4.316,0,0,1-4.31-4.311V196.1a4.316,4.316,0,0,1,4.31-4.31H197.8c.012,0,.024,0,.036,0a2.154,2.154,0,0,1,.337.034c.028.005.057.009.085.015a2.071,2.071,0,0,1,.34.106c.028.011.054.025.082.038.047.021.094.04.14.065l14.555,7.983A2.118,2.118,0,0,1,214.477,201.9Zm-18.795-5.863H35.34v3.743H56.456a2.12,2.12,0,0,1,0,4.24H35.34v3.743H195.682v-3.743H72.358a2.12,2.12,0,0,1,0-4.24H195.682ZM20.613,207.76H31.1V196.033H20.613a.07.07,0,0,0-.07.07v11.585A.071.071,0,0,0,20.613,207.76ZM207.949,201.9l-8.026-4.4v8.8ZM63.6,204.016h1.947a2.12,2.12,0,1,0,0-4.24H63.6a2.12,2.12,0,1,0,0,4.24Z" fill="#1c1d21"/>
  </g>
</svg>
