<svg xmlns="http://www.w3.org/2000/svg" width="191.683" height="191.683"><g data-name="Grupo 339"><circle data-name="Elipse 17" cx="93.925" cy="93.925" r="93.925" fill="none" transform="translate(1.917 1.917)"/></g><g data-name="Grupo 340"><circle data-name="Elipse 18" cx="72.329" cy="72.329" r="72.329" fill="#dc1924" transform="translate(23.512 23.512)"/></g><g data-name="Grupo 341"><path data-name="Caminho 447" d="M98.081 69.075h-4.478c-18.407 0-35.987 11.088-48.541 30.615 12.554 19.528 30.135 30.615 48.541 30.615h4.479c18.407 0 35.987-11.088 48.541-30.615-12.556-19.527-30.136-30.615-48.542-30.615z" fill="#ecf4f7"/></g><g data-name="Grupo 342"><path data-name="Caminho 448" d="M93.602 69.075a47.934 47.934 0 0 0-20.7 4.809 26.424 26.424 0 1 0 45.874 0 47.934 47.934 0 0 0-20.7-4.809z" fill="#1798e0"/></g><path data-name="Caminho 449" d="M154.585 25.024a1.917 1.917 0 0 1 2.45-2.948q.85.706 1.683 1.431A1.918 1.918 0 1 1 156.2 26.4q-.8-.7-1.615-1.376zm10.708 4.771a1.917 1.917 0 0 0-2.777 2.643A91.867 91.867 0 1 1 146.471 19a1.917 1.917 0 0 0 2.112-3.2 95.874 95.874 0 1 0-52.741 175.883 95.842 95.842 0 0 0 69.451-161.888zM95.842 21.6a74.187 74.187 0 1 0 68.246 44.959 1.917 1.917 0 0 0-3.522 1.514 70.5 70.5 0 1 1-10.988-17.73 1.917 1.917 0 0 0 2.924-2.479A74.155 74.155 0 0 0 95.842 21.6zM155.3 58.1a1.917 1.917 0 0 0 3.236-2.057 71.36 71.36 0 0 0-1.136-1.732 1.917 1.917 0 1 0-3.176 2.146c.364.543.726 1.1 1.076 1.643zM71.82 72.3a1.9 1.9 0 0 1 .264-.154A50.378 50.378 0 0 1 89.9 67.3l.357-.026q.644-.045 1.289-.073l.426-.018a49 49 0 0 1 1.627-.031h4.479c.543 0 1.085.012 1.626.031.143 0 .286.012.429.018q.644.028 1.288.073l.357.026a50.375 50.375 0 0 1 17.822 4.852 1.9 1.9 0 0 1 .264.154c10.75 5.2 20.557 14.2 28.368 26.347a1.917 1.917 0 0 1 0 2.073c-12.868 20.016-31.149 31.5-50.153 31.5H93.6c-19 0-37.285-11.48-50.153-31.5a1.917 1.917 0 0 1 0-2.073C51.26 86.5 61.066 77.507 71.817 72.306zm21.78-1.309c-.494 0-.988.011-1.481.028-.126 0-.251.011-.377.016q-.608.026-1.214.068l-.274.019a46.506 46.506 0 0 0-15.995 4.266 24.507 24.507 0 1 0 43.161 0 46.5 46.5 0 0 0-15.995-4.266l-.274-.019q-.607-.043-1.214-.068l-.377-.016a42.986 42.986 0 0 0-1.481-.028H93.6zM47.35 99.69c12.1 18.256 28.9 28.7 46.252 28.7h4.479c17.349 0 34.149-10.442 46.252-28.7A70.153 70.153 0 0 0 122.8 78.27a28.341 28.341 0 1 1-53.918 0A70.16 70.16 0 0 0 47.35 99.69zm50.408-46.3V47.4a1.917 1.917 0 1 0-3.834 0v5.987a1.917 1.917 0 1 0 3.834 0zm32.792 11.018a1.915 1.915 0 0 0 1.535-.767l3.018-4.024a1.917 1.917 0 1 0-3.067-2.3l-3.018 4.024a1.917 1.917 0 0 0 1.532 3.067zm-69.418 0a1.917 1.917 0 0 0 1.532-3.067l-3.018-4.024a1.917 1.917 0 1 0-3.067 2.3l3.021 4.022a1.914 1.914 0 0 0 1.532.767z" fill="#1c1d21"/></svg>