<svg xmlns="http://www.w3.org/2000/svg" width="200" height="200"><g data-name="Grupo 369"><path data-name="Caminho 469" d="M114.527 107.041a7.839 7.839 0 0 1 7.839-7.839h4.241V73.948a1.218 1.218 0 0 1 1.218-1.218h9.644a1.218 1.218 0 0 1 1.218 1.218v17.8h18.7a13.429 13.429 0 0 1 13.429 13.429v28.662h15.835a1.353 1.353 0 0 0 1.349-1.353V13.353a1.353 1.353 0 0 0-1.353-1.354H13.353A1.352 1.352 0 0 0 12 13.353v119.133a1.353 1.353 0 0 0 1.353 1.353h101.429a13.036 13.036 0 0 1-.255-2.56z" fill="#1798e0"/></g><g data-name="Grupo 370"><path data-name="Caminho 470" d="M44.768 129.245l.05-.12a8.752 8.752 0 0 1 8.075-5.485h3.851v-11.347h-3.852a8.753 8.753 0 0 1-8.075-5.485l-.05-.12a8.777 8.777 0 0 1 1.822-9.615l2.722-2.722-8.023-8.023-2.722 2.726a8.778 8.778 0 0 1-9.615 1.822l-.12-.05a8.752 8.752 0 0 1-5.485-8.074v-3.851H12v20.245a19.658 19.658 0 0 1 17.268 34.7h14.874a9.013 9.013 0 0 1 .626-4.601z" fill="#ecf4f7"/></g><g data-name="Grupo 371"><path data-name="Caminho 471" d="M119.6 64.184h-6.7a1.99 1.99 0 0 1-1.99-1.99V28.629a1.99 1.99 0 0 1 1.99-1.99h39.487a1.99 1.99 0 0 1 1.99 1.99v33.565a1.99 1.99 0 0 1-1.99 1.99h-7.056" fill="#dc1924"/></g><g data-name="Grupo 372"><path data-name="Caminho 472" d="M132.646 46.13l-5.023 5.54a8.769 8.769 0 0 0 .7 12.514h8.654a8.77 8.77 0 0 0 .7-12.514z" fill="#ecf4f7"/></g><g data-name="Grupo 373"><path data-name="Retângulo 13" fill="#aab1ba" d="M128.318 64.184h8.655v8.546h-8.655z"/></g><g data-name="Grupo 374"><path data-name="Caminho 473" d="M191.88 2H8.12A6.12 6.12 0 0 0 2 8.12v129.6a6.12 6.12 0 0 0 6.12 6.12h116.041a13.016 13.016 0 0 1-9.379-10H13.353A1.353 1.353 0 0 1 12 132.486V13.353A1.353 1.353 0 0 1 13.353 12h173.294A1.353 1.353 0 0 1 188 13.353v119.133a1.353 1.353 0 0 1-1.353 1.353h-15.835v10h21.069a6.12 6.12 0 0 0 6.12-6.12V8.119A6.12 6.12 0 0 0 191.88 2z" fill="#aab1ba"/></g><g data-name="Grupo 375"><path data-name="Caminho 474" d="M157.383 91.75h-18.7v-17.8a1.218 1.218 0 0 0-1.218-1.218h-9.644a1.218 1.218 0 0 0-1.218 1.218v25.255h-4.241a7.839 7.839 0 0 0-7.839 7.839v24.238a13.005 13.005 0 0 0 10.167 12.69 3.571 3.571 0 0 1 2.833 3.47v50.563h43.287v-92.827a13.428 13.428 0 0 0-13.427-13.428z" fill="#fddf7f"/></g><g data-name="Grupo 376"><path data-name="Caminho 475" d="M112.36 158.106H4.167A2.167 2.167 0 0 0 2 160.273v11a2.167 2.167 0 0 0 2.167 2.168H112.36a2.167 2.167 0 0 0 2.167-2.167v-11a2.167 2.167 0 0 0-2.167-2.168z" fill="#dc1924"/></g><path data-name="Caminho 476" d="M177.8 131.839a2 2 0 0 0 0 4h8.847a3.357 3.357 0 0 0 3.353-3.353V13.353A3.357 3.357 0 0 0 186.647 10H13.353A3.357 3.357 0 0 0 10 13.353v119.133a3.357 3.357 0 0 0 3.353 3.353H107.2a2 2 0 1 0 0-4H46.13a7.06 7.06 0 0 1 .485-1.826l.052-.126a6.745 6.745 0 0 1 6.225-4.245h3.851a2 2 0 0 0 2-2v-11.348a2 2 0 0 0-2-2h-3.851a6.744 6.744 0 0 1-6.224-4.243l-.054-.13A6.777 6.777 0 0 1 48 98.488l2.722-2.722a2 2 0 0 0 0-2.828L42.7 84.914a2 2 0 0 0-2.828 0l-2.722 2.722a6.777 6.777 0 0 1-7.435 1.388l-.126-.052a6.745 6.745 0 0 1-4.245-6.225V78.9a2 2 0 0 0-2-2H14V14h172v117.839zM14 100.695a17.651 17.651 0 0 1 14.583 31.144H14zm7.346-19.8v1.851a10.732 10.732 0 0 0 6.726 9.925l.11.046a10.764 10.764 0 0 0 11.8-2.254l1.308-1.308 5.194 5.194-1.308 1.308a10.762 10.762 0 0 0-2.255 11.8l.047.114a10.731 10.731 0 0 0 9.924 6.725h1.851v7.346h-1.851a10.732 10.732 0 0 0-9.925 6.726l-.046.112a11.064 11.064 0 0 0-.813 3.36h-7.813A21.656 21.656 0 0 0 14 96.62V80.9h7.346zM0 137.72V53.8a2 2 0 0 1 4 0v83.92a4.124 4.124 0 0 0 4.12 4.12H111.7a2 2 0 0 1 0 4H8.12A8.129 8.129 0 0 1 0 137.72zM0 47.2v-1.788a2 2 0 0 1 4 0V47.2a2 2 0 0 1-4 0zM200 8.12v129.6a8.129 8.129 0 0 1-8.12 8.12H177.8a2 2 0 0 1 0-4h14.08a4.124 4.124 0 0 0 4.12-4.12V8.12A4.124 4.124 0 0 0 191.88 4H8.12A4.124 4.124 0 0 0 4 8.12v27.347a2 2 0 0 1-4 0V8.12A8.129 8.129 0 0 1 8.12 0h183.76A8.129 8.129 0 0 1 200 8.12zm-42.617 81.63h-16.7v-15.8a3.219 3.219 0 0 0-1.712-2.842v-6.08a10.757 10.757 0 0 0 .177-14.7l-5.023-5.54c-.01-.012-.024-.019-.034-.03a1.979 1.979 0 0 0-.186-.166c-.039-.032-.076-.068-.117-.1a2 2 0 0 0-.238-.137c-.037-.019-.071-.043-.109-.059a1.982 1.982 0 0 0-.312-.1c-.025-.006-.048-.018-.074-.023a1.993 1.993 0 0 0-.412-.043 2.021 2.021 0 0 0-.412.043c-.025.005-.048.016-.074.023a2.01 2.01 0 0 0-.312.1c-.038.017-.072.04-.109.059a2 2 0 0 0-.238.137c-.042.029-.078.064-.117.1a1.931 1.931 0 0 0-.186.166c-.01.011-.024.019-.034.03l-5.023 5.54a10.758 10.758 0 0 0 .176 14.7v6.08a3.22 3.22 0 0 0-1.712 2.842V97.2h-2.241a9.85 9.85 0 0 0-9.839 9.839v24.241a15.091 15.091 0 0 0 11.733 14.642 1.572 1.572 0 0 1 1.267 1.517V198a2 2 0 0 0 4 0v-50.561a5.547 5.547 0 0 0-4.4-5.422 11.066 11.066 0 0 1-8.6-10.738v-24.238a5.845 5.845 0 0 1 5.839-5.839h2.241v14.962a2 2 0 0 0 4 0V74.73h8.079v29.87a2 2 0 0 0 4 0V93.75h6.409v10.85a2 2 0 0 0 4 0V93.75h6.216v10.85a2 2 0 1 0 4 0V94.445a11.449 11.449 0 0 1 7.5 10.733V198a2 2 0 0 0 4 0v-92.822a15.445 15.445 0 0 0-15.423-15.428zm-28.278-36.737l1.541-1.7v3.424a2 2 0 0 0 4 0v-3.423l1.541 1.7a6.761 6.761 0 0 1-.028 9.17h-7.026a6.763 6.763 0 0 1-.028-9.17zm1.213 17.717v-4.546h4.655v4.546zm10.367 44.349v1.086a2 2 0 1 1-4 0v-1.086a2 2 0 0 1 4 0zm10.409 0v1.086a2 2 0 1 1-4 0v-1.086a2 2 0 0 1 4 0zm10.216 0v1.086a2 2 0 0 1-4 0v-1.086a2 2 0 0 1 4 0zm-48.95 41.027H4.167A4.171 4.171 0 0 0 0 160.272v11a4.171 4.171 0 0 0 4.167 4.167H112.36a4.171 4.171 0 0 0 4.167-4.167v-11a4.171 4.171 0 0 0-4.167-4.166zm.167 15.166a.167.167 0 0 1-.167.167H4.167a.167.167 0 0 1-.167-.167v-11a.167.167 0 0 1 .167-.167h8.7v4.833a2 2 0 1 0 4 0v-4.833h8.4v4.833a2 2 0 1 0 4 0v-4.833h8.4v4.833a2 2 0 0 0 4 0v-4.833h8.4v4.833a2 2 0 0 0 4 0v-4.833h8.4v4.833a2 2 0 0 0 4 0v-4.833h8.4v4.833a2 2 0 0 0 4 0v-4.833h8.4v4.833a2 2 0 0 0 4 0v-4.833h8.4v4.833a2 2 0 0 0 4 0v-4.833h8.7a.167.167 0 0 1 .167.167zm32.806-109.088h7.057l-.01-33.555-39.477.01V44.13h7.497a2 2 0 0 1 0 4h-7.492v5.027h7.49a2 2 0 0 1 0 4h-7.489v5.027h.288c.033 0 .064.008.1.01l6.3-.01a2 2 0 0 1 0 4h-56a2 2 0 0 1 0-4h45.312v-5.027H63.6a2 2 0 0 1 0-4h45.312V48.13H63.6a2 2 0 0 1 0-4h45.312v-15.5a3.994 3.994 0 0 1 3.99-3.99h39.488a3.994 3.994 0 0 1 3.99 3.99v33.564a3.994 3.994 0 0 1-3.99 3.99h-7.057a2 2 0 0 1 0-4zM57.2 46.13a2 2 0 0 1-2 2h-2.533a2 2 0 0 1 0-4H55.2a2 2 0 0 1 2 2zm0 9.027a2 2 0 0 1-2 2h-2.533a2 2 0 0 1 0-4H55.2a2 2 0 0 1 2 2zm0 9.026a2 2 0 0 1-2 2h-2.533a2 2 0 0 1 0-4H55.2a2 2 0 0 1 2 2.001z" fill="#1c1d21"/></svg>