<svg xmlns="http://www.w3.org/2000/svg" width="198.175" height="212"><g data-name="Website Design"><g data-name="Grupo 343"><path data-name="Caminho 450" d="M181.5 209.879l14.555-7.983-14.555-7.984z" fill="#aab1ba"/></g><g data-name="Grupo 344"><path data-name="Caminho 451" d="M181.5 193.913H4.31a2.19 2.19 0 0 0-2.19 2.19v11.585a2.19 2.19 0 0 0 2.19 2.19H181.5z" fill="#fddf7f"/></g><g data-name="Grupo 345"><path data-name="Caminho 452" d="M16.917 193.913H4.31a2.19 2.19 0 0 0-2.19 2.19v11.585a2.19 2.19 0 0 0 2.19 2.19h12.607v-15.965z" fill="#1798e0"/></g><g data-name="Grupo 346"><path data-name="Caminho 453" d="M190.603 183.333H4.457a2.336 2.336 0 0 1-2.337-2.337V168.63a2.336 2.336 0 0 1 2.337-2.339h186.146a2.336 2.336 0 0 1 2.337 2.337v12.367a2.337 2.337 0 0 1-2.337 2.338z" fill="#dc1924"/></g><g data-name="Grupo 347"><path data-name="Ret창ngulo 8" fill="#1798e0" d="M2.12 16.788h190.82v98.556H2.12z"/></g><g data-name="Grupo 348"><path data-name="Ret창ngulo 9" fill="#ecf4f7" d="M15.88 30.045h163.3v24.572H15.88z"/></g><g data-name="Grupo 349"><path data-name="Ret창ngulo 10" fill="#ecf4f7" d="M80.785 80.654h98.395v21.434H80.785z"/></g><g data-name="Grupo 350"><path data-name="Caminho 454" d="M181.855 2.12H13.205A11.085 11.085 0 0 0 2.117 13.205v3.584h190.82v-3.584A11.085 11.085 0 0 0 181.855 2.12z" fill="#ecf4f7"/></g><g data-name="Grupo 351"><path data-name="Ret창ngulo 11" fill="#aab1ba" d="M75.228 135.14h44.604v20.38H75.228z"/></g><g data-name="Grupo 352"><path data-name="Caminho 455" d="M2.117 124.055a11.243 11.243 0 0 0 .057 1.133 11.018 11.018 0 0 0 .441 2.163q.162.52.373 1.018a11.1 11.1 0 0 0 10.213 6.77h168.653a11.1 11.1 0 0 0 10.214-6.77q.211-.5.373-1.018a11.024 11.024 0 0 0 .441-2.163 11.243 11.243 0 0 0 .057-1.133v-8.71H2.117z" fill="#aab1ba"/></g><g data-name="Grupo 353"><circle data-name="Elipse 19" cx="13.681" cy="13.681" r="13.681" transform="rotate(-26.565 124.368 -30.453)" fill="#fddf7f"/></g><g data-name="Grupo 354"><path data-name="Caminho 456" d="M52.805 72.204h-15.4a11.809 11.809 0 0 0-11.807 11.807v18.076h39.016V84.011a11.809 11.809 0 0 0-11.809-11.807z" fill="#fddf7f"/></g><path data-name="Caminho 457" d="M-.002 54.617v-2.549a2.12 2.12 0 0 1 4.24 0v2.549a2.12 2.12 0 1 1-4.24 0zm0 69.438V63.791a2.12 2.12 0 0 1 4.24 0v49.434h186.58V18.908H4.24v24.836a2.12 2.12 0 1 1-4.24 0V13.205A13.22 13.22 0 0 1 13.205 0h168.65a13.22 13.22 0 0 1 13.205 13.205v110.85a13.22 13.22 0 0 1-13.205 13.205h-59.9v16.14h11.473a2.12 2.12 0 1 1 0 4.24H61.636a2.12 2.12 0 1 1 0-4.24h11.472v-16.14h-59.9a13.22 13.22 0 0 1-13.21-13.205zm117.714 13.205H77.348v16.14h40.363zM190.82 14.668v-1.463a8.975 8.975 0 0 0-8.965-8.965H13.205a8.975 8.975 0 0 0-8.965 8.965v1.463zM4.24 117.468v6.59a8.975 8.975 0 0 0 8.965 8.965h168.65a8.975 8.975 0 0 0 8.965-8.965v-6.59zM18.866 7.61h-4.414a2.12 2.12 0 1 0 0 4.24h4.413a2.12 2.12 0 0 0 0-4.24zm12.413 0h-4.414a2.12 2.12 0 1 0 0 4.24h4.413a2.12 2.12 0 1 0 0-4.24zm12.413 0h-4.414a2.12 2.12 0 1 0 0 4.24h4.413a2.12 2.12 0 0 0 0-4.24zm137.606 47.007a2.12 2.12 0 0 1-2.12 2.12H60.798a15.728 15.728 0 0 1-5.245 13.622 13.952 13.952 0 0 1 11.18 13.654v18.076a2.12 2.12 0 0 1-4.24 0V84.013a9.7 9.7 0 0 0-9.689-9.689h-15.4a9.7 9.7 0 0 0-9.689 9.689v18.076a2.12 2.12 0 0 1-4.24 0V84.013a13.952 13.952 0 0 1 11.178-13.655 15.729 15.729 0 0 1-5.245-13.621H15.88a2.12 2.12 0 0 1-2.12-2.12V30.045a2.12 2.12 0 0 1 2.12-2.12h163.3a2.12 2.12 0 0 1 2.12 2.12v24.572zM56.666 58.523a11.561 11.561 0 1 0-11.561 11.561 11.574 11.574 0 0 0 11.561-11.561zM177.06 32.165H17.998V52.5h12.5a15.8 15.8 0 0 1 29.207 0H177.06V32.165zm2.12 72.044a2.12 2.12 0 0 0 2.12-2.12V80.654a2.12 2.12 0 0 0-2.12-2.12h-98.4a2.12 2.12 0 0 0-2.12 2.12v21.434a2.12 2.12 0 1 0 4.24 0V82.774h27.048v19.314a2.12 2.12 0 1 0 4.24 0V82.774h31.587v19.314a2.12 2.12 0 0 0 4.24 0V82.774h27.044v19.314a2.12 2.12 0 0 0 2.121 2.121zM35.323 83.431a2.12 2.12 0 0 0-2.12 2.12v16.538a2.12 2.12 0 1 0 4.24 0V85.551a2.12 2.12 0 0 0-2.12-2.12zm17.445 2.12v16.538a2.12 2.12 0 1 0 4.24 0V85.551a2.12 2.12 0 1 0-4.24 0zm28.017-19.782h21.127a2.12 2.12 0 1 0 0-4.24H80.785a2.12 2.12 0 0 0 0 4.24zm30.083 0a2.12 2.12 0 0 0 0-4.24h-1.752a2.12 2.12 0 0 0 0 4.24zm-30.083 8.555h45.173a2.12 2.12 0 0 0 0-4.24H80.785a2.12 2.12 0 0 0 0 4.24zm80.772 106.89a2.12 2.12 0 0 0 0 4.24h2.541a2.12 2.12 0 0 0 0-4.24zm-157.1 4.24h148.372a2.12 2.12 0 0 0 0-4.24H4.457a.217.217 0 0 1-.217-.217V168.63a.217.217 0 0 1 .217-.217h8.005v6.4a2.12 2.12 0 1 0 4.24 0v-6.4h9.585v6.4a2.12 2.12 0 1 0 4.24 0v-6.4h9.584v6.4a2.12 2.12 0 1 0 4.24 0v-6.4h9.584v6.4a2.12 2.12 0 1 0 4.24 0v-6.4h9.584v6.4a2.12 2.12 0 1 0 4.24 0v-6.4h9.584v6.4a2.12 2.12 0 1 0 4.24 0v-6.4h9.584v6.4a2.12 2.12 0 1 0 4.24 0v-6.4h9.584v6.4a2.12 2.12 0 1 0 4.24 0v-6.4h9.585v6.4a2.12 2.12 0 1 0 4.24 0v-6.4h9.585v6.4a2.12 2.12 0 1 0 4.24 0v-6.4h9.585v6.4a2.12 2.12 0 1 0 4.24 0v-6.4h9.585v6.4a2.12 2.12 0 1 0 4.24 0v-6.4h9.585v6.4a2.12 2.12 0 1 0 4.24 0v-6.4h8.002a.217.217 0 0 1 .217.217V181a.217.217 0 0 1-.217.217h-19.574a2.12 2.12 0 0 0 0 4.24h19.574a4.462 4.462 0 0 0 4.459-4.457v-12.37a4.462 4.462 0 0 0-4.457-4.457H4.457a4.462 4.462 0 0 0-4.459 4.457V181a4.462 4.462 0 0 0 4.459 4.454zM198.175 201.9a2.12 2.12 0 0 1-1.1 1.859l-14.555 7.983c-.047.026-.1.046-.145.068-.024.011-.047.024-.072.034a2.111 2.111 0 0 1-.34.106l-.084.016a2.143 2.143 0 0 1-.378.038H4.311a4.316 4.316 0 0 1-4.31-4.311V196.1a4.316 4.316 0 0 1 4.31-4.31h177.223a2.154 2.154 0 0 1 .337.034c.028.005.057.009.085.015a2.071 2.071 0 0 1 .34.106c.028.011.054.025.082.038.047.021.094.04.14.065l14.555 7.983a2.118 2.118 0 0 1 1.102 1.869zm-18.795-5.863H19.038v3.743h21.116a2.12 2.12 0 0 1 0 4.24H19.038v3.743H179.38v-3.743H56.056a2.12 2.12 0 0 1 0-4.24H179.38zM4.311 207.76h10.487v-11.727H4.311a.07.07 0 0 0-.07.07v11.585a.071.071 0 0 0 .07.072zm187.336-5.86l-8.026-4.4v8.8zm-144.349 2.116h1.947a2.12 2.12 0 1 0 0-4.24h-1.947a2.12 2.12 0 1 0 0 4.24z" fill="#1c1d21"/></g></svg>