<svg xmlns="http://www.w3.org/2000/svg" width="559.037" height="190.449"><defs><linearGradient id="a" y1=".5" x2="1" y2=".5" gradientUnits="objectBoundingBox"><stop offset="0" stop-color="#161615" stop-opacity=".698"/><stop offset="1" stop-color="#161615"/></linearGradient><linearGradient id="b" y1=".5" x2="1" y2=".5" gradientUnits="objectBoundingBox"><stop offset="0" stop-color="#161615" stop-opacity=".8"/><stop offset="1" stop-color="#161615"/></linearGradient><linearGradient id="c" y1=".5" x2="1" y2=".5" gradientUnits="objectBoundingBox"><stop offset="0" stop-color="#79313e"/><stop offset=".037" stop-color="#7a303c"/><stop offset=".281" stop-color="#7e2e39"/><stop offset=".669" stop-color="#914853"/><stop offset=".888" stop-color="#a97d70"/><stop offset="1" stop-color="#986069"/></linearGradient></defs><g transform="translate(-1180.821 -360.384)"><g data-name="Grupo 395" opacity=".91"><path data-name="Caminho 328" d="M401.328 178.891s-51.309-6.711-78.275 3.639-26.421 17.7-26.421 17.7-9.26 27.237 0 60.739 18.795 53.386 50.935 61.557c22.334 5.2 70 14.709 96.149-12.53s38.133-64.042 32.412-96.165-74.8-34.94-74.8-34.94z" transform="translate(946.253 211.522)" fill="url(#a)"/><path data-name="Caminho 329" d="M616.06 172.581c-37.588-1.226-66.641-4.129-99.3 4.268s-61.263 29.508-52.274 60.013 26.965 70.955 49.845 79.535 64.553 9.8 78.852 3.676 40.041-17.188 46.985-43.526 8.988-59.312 8.988-59.312 4.493-43.428-33.096-44.654z" transform="translate(1048.464 208.123)" fill="url(#b)"/><g data-name="Grupo 28" opacity=".91"><path data-name="Caminho 330" d="M401.328 178.891s-51.309-6.711-78.275 3.639-26.421 17.7-26.421 17.7-9.26 27.237 0 60.739 18.795 53.386 50.935 61.557c22.334 5.2 70 14.709 96.149-12.53s38.133-64.042 32.412-96.165-74.8-34.94-74.8-34.94z" transform="translate(946.253 211.522)" fill="url(#a)"/><path data-name="Caminho 331" d="M616.06 172.581c-37.588-1.226-66.641-4.129-99.3 4.268s-61.263 29.508-52.274 60.013 26.965 70.955 49.845 79.535 64.553 9.8 78.852 3.676 40.041-17.188 46.985-43.526 8.988-59.312 8.988-59.312 4.493-43.428-33.096-44.654z" transform="translate(1048.464 208.123)" fill="url(#b)"/></g><g data-name="Grupo 29" opacity=".91"><path data-name="Caminho 332" d="M401.328 178.891s-51.309-6.711-78.275 3.639-26.421 17.7-26.421 17.7-9.26 27.237 0 60.739 18.795 53.386 50.935 61.557c22.334 5.2 70 14.709 96.149-12.53s38.133-64.042 32.412-96.165-74.8-34.94-74.8-34.94z" transform="translate(946.253 211.522)" fill="url(#a)"/><path data-name="Caminho 333" d="M616.06 172.581c-37.588-1.226-66.641-4.129-99.3 4.268s-61.263 29.508-52.274 60.013 26.965 70.955 49.845 79.535 64.553 9.8 78.852 3.676 40.041-17.188 46.985-43.526 8.988-59.312 8.988-59.312 4.493-43.428-33.096-44.654z" transform="translate(1048.464 208.123)" fill="url(#b)"/></g></g><path data-name="Caminho 502" d="M810.73 167.921s-75.83-10.885-116.413-8.161-112.218 29.417-119.3 33.23c-27.511 11.984-47.706 11.4-75.992-.546-16.965-7.162-63.325-22.606-126.925-20.972S263.9 186.18 263.9 186.18l3.432 38.263s12.875-8.48 17.442 5.218 12.72 47.946 20.873 66.863 19.9 47.944 71.429 52.185 91.651-4.241 106.979-24.787 29.681-47.3 35.226-64.745 9.928-28.037 21.526-28.863 18.265 11.416 26.744 33.268 25.575 52.386 45.049 62.872 36.61 16.546 62.772 16.615 74.783-4.085 90.036-41.674 18.521-66.732 21.79-78.988 11.046-22.88 17.78-20.428 5.752-34.058 5.752-34.058zM460.891 320.462c-26.149 27.239-73.815 17.734-96.149 12.53-32.14-8.171-41.674-28.055-50.935-61.557s0-60.739 0-60.739-.544-7.355 26.421-17.7 78.274-3.639 78.274-3.639 69.081 2.821 74.8 34.945-6.264 68.922-32.411 96.16zM768.54 224.3s-2.042 32.974-8.988 59.312-32.684 37.4-46.985 43.526-55.972 4.9-78.852-3.676-40.857-49.029-49.845-79.535 19.611-51.615 52.274-60.013 61.715-5.494 99.3-4.268S768.54 224.3 768.54 224.3z" transform="translate(929.078 201.062)" fill="url(#c)"/><ellipse data-name="Elipse 27" cx="14.436" cy="3.405" rx="14.436" ry="3.405" transform="translate(1208.293 405.185)" fill="#9dada3"/><g data-name="Grupo 396" transform="translate(1208.293 402.223)"><ellipse data-name="Elipse 11" cx="15.238" cy="5.039" rx="15.238" ry="5.039" fill="#4e2531"/><ellipse data-name="Elipse 12" cx="13.049" cy="3.405" rx="13.049" ry="3.405" transform="translate(1.634 2.962)" fill="#9dada3"/><ellipse data-name="Elipse 13" cx="13.049" cy="3.405" rx="13.049" ry="3.405" transform="translate(1.634 4.562)" fill="#727a77"/></g><g data-name="Grupo 397" transform="translate(1697.163 382.587)"><ellipse data-name="Elipse 14" cx="15.238" cy="5.039" rx="15.238" ry="5.039" fill="#4e2531"/><ellipse data-name="Elipse 15" cx="13.049" cy="3.405" rx="13.049" ry="3.405" transform="translate(1.634 2.962)" fill="#9dada3"/><ellipse data-name="Elipse 16" cx="13.049" cy="3.405" rx="13.049" ry="3.405" transform="translate(1.634 4.562)" fill="#727a77"/></g></g></svg>