<svg xmlns="http://www.w3.org/2000/svg" width="459.018" height="160.764"><g data-name="oculos lentes" opacity=".91"><path data-name="Caminho 328" d="M108.811 11.202s-51.309-6.711-78.275 3.639-26.421 17.7-26.421 17.7-9.26 27.237 0 60.739 18.8 53.386 50.935 61.557c22.334 5.2 70 14.709 96.149-12.53s38.133-64.042 32.412-96.165-74.8-34.94-74.8-34.94z"/><path data-name="Caminho 329" d="M425.754 1.493c-37.588-1.226-66.641-4.129-99.3 4.268s-61.263 29.508-52.274 60.013 26.965 70.955 49.845 79.535 64.553 9.8 78.852 3.676 40.041-17.188 46.985-43.526 8.988-59.312 8.988-59.312 4.493-43.428-33.096-44.654z"/><g data-name="Grupo 28" opacity=".91"><path data-name="Caminho 330" d="M108.811 11.202s-51.309-6.711-78.275 3.639-26.421 17.7-26.421 17.7-9.26 27.237 0 60.739 18.8 53.386 50.935 61.557c22.334 5.2 70 14.709 96.149-12.53s38.133-64.042 32.412-96.165-74.8-34.94-74.8-34.94z"/><path data-name="Caminho 331" d="M425.754 1.493c-37.588-1.226-66.641-4.129-99.3 4.268s-61.263 29.508-52.274 60.013 26.965 70.955 49.845 79.535 64.553 9.8 78.852 3.676 40.041-17.188 46.985-43.526 8.988-59.312 8.988-59.312 4.493-43.428-33.096-44.654z"/></g><g data-name="Grupo 29" opacity=".91"><path data-name="Caminho 332" d="M108.811 11.202s-51.309-6.711-78.275 3.639-26.421 17.7-26.421 17.7-9.26 27.237 0 60.739 18.8 53.386 50.935 61.557c22.334 5.2 70 14.709 96.149-12.53s38.133-64.042 32.412-96.165-74.8-34.94-74.8-34.94z"/><path data-name="Caminho 333" d="M425.754 1.493c-37.588-1.226-66.641-4.129-99.3 4.268s-61.263 29.508-52.274 60.013 26.965 70.955 49.845 79.535 64.553 9.8 78.852 3.676 40.041-17.188 46.985-43.526 8.988-59.312 8.988-59.312 4.493-43.428-33.096-44.654z"/></g></g></svg>