<?xml version="1.0" encoding="utf-8"?>
<!-- Generator: Adobe Illustrator 23.0.3, SVG Export Plug-In . SVG Version: 6.00 Build 0)  -->
<svg version="1.1" id="Layer_1" xmlns="http://www.w3.org/2000/svg" xmlns:xlink="http://www.w3.org/1999/xlink" x="0px" y="0px"
	 viewBox="0 0 459 160.8" style="enable-background:new 0 0 459 160.8;" xml:space="preserve">
<style type="text/css">
	.st0{opacity:0.91;}
</style>
<g id="oculos_lentes" transform="translate(0 0)">
	<path id="Caminho_328" d="M108.8,11.2c0,0-51.3-6.7-78.3,3.6S4.1,32.5,4.1,32.5s-9.3,27.2,0,60.7s18.8,53.4,50.9,61.6
		c22.3,5.2,70,14.7,96.1-12.5s38.1-64,32.4-96.2S108.8,11.2,108.8,11.2z"/>
	<path id="Caminho_329" d="M425.8,1.5c-37.6-1.2-66.6-4.1-99.3,4.3s-61.3,29.5-52.3,60s27,71,49.8,79.5c22.9,8.6,64.6,9.8,78.9,3.7
		s40-17.2,47-43.5s9-59.3,9-59.3S463.3,2.7,425.8,1.5z"/>
	<g id="Grupo_28" class="st0">
		<path id="Caminho_330" d="M108.8,11.2c0,0-51.3-6.7-78.3,3.6S4.1,32.5,4.1,32.5s-9.3,27.2,0,60.7s18.8,53.4,50.9,61.6
			c22.3,5.2,70,14.7,96.1-12.5s38.1-64,32.4-96.2S108.8,11.2,108.8,11.2z"/>
		<path id="Caminho_331" d="M425.8,1.5c-37.6-1.2-66.6-4.1-99.3,4.3s-61.3,29.5-52.3,60s27,71,49.8,79.5c22.9,8.6,64.6,9.8,78.9,3.7
			s40-17.2,47-43.5s9-59.3,9-59.3S463.3,2.7,425.8,1.5z"/>
	</g>
	<g id="Grupo_29" class="st0">
		<path id="Caminho_332" d="M108.8,11.2c0,0-51.3-6.7-78.3,3.6S4.1,32.5,4.1,32.5s-9.3,27.2,0,60.7s18.8,53.4,50.9,61.6
			c22.3,5.2,70,14.7,96.1-12.5s38.1-64,32.4-96.2S108.8,11.2,108.8,11.2z"/>
		<path id="Caminho_333" d="M425.8,1.5c-37.6-1.2-66.6-4.1-99.3,4.3s-61.3,29.5-52.3,60s27,71,49.8,79.5c22.9,8.6,64.6,9.8,78.9,3.7
			s40-17.2,47-43.5s9-59.3,9-59.3S463.3,2.7,425.8,1.5z"/>
	</g>
</g>
</svg>
