<svg xmlns="http://www.w3.org/2000/svg" width="1160.919" height="1325.472" viewBox="0 0 1160.919 1325.472">
  <g id="poe-lines-gray" transform="translate(0.178 0.415)">
    <g id="Grupo_15" data-name="Grupo 15" transform="translate(0 0)">
      <path id="Caminho_6" data-name="Caminho 6" d="M-436.156,292.187c-4.081,5.908-9.006,11.667-10.195,18.75-1.519,9.051,3.729,18.228,11.11,23.683s16.567,7.82,25.6,9.44c8.756,1.568,17.929,2.525,26.426-.106s16.177-9.64,17.122-18.486c1.253-11.722-8.776-21.11-15.106-31.055-14.007-22.008-10.661-50.96-20.868-74.967-.666-1.565-11.656,12.421-12.33,13.763-3,5.98-4.722,12.6-6.111,19.116C-423.555,266.623-427.748,280.009-436.156,292.187Z" transform="translate(990.895 236.629)" fill="none" stroke="#161615" stroke-miterlimit="10" stroke-width="1"/>
      <path id="Caminho_7" data-name="Caminho 7" d="M-401.4,317.995c-2.327,2.94-4.513,6.337-4.425,10.085a6.155,6.155,0,0,0,7.471-1.579c.682-.866,1.114-1.907,1.8-2.772,1.557-1.967,4.228-2.748,6.735-2.72a40.329,40.329,0,0,1,7.409,1.232,42.886,42.886,0,0,0,12.1.678,2.909,2.909,0,0,0,1.975-.709,2.915,2.915,0,0,0,.555-1.675c.482-4.452.408-9.15-1.616-13.144C-377.734,290.948-394.991,309.891-401.4,317.995Z" transform="translate(1015.373 285.583)" fill="none" stroke="#161615" stroke-miterlimit="10" stroke-width="1"/>
      <path id="Caminho_8" data-name="Caminho 8" d="M-448.689,300.372a7.2,7.2,0,0,0-2.97,2.143c-3.82,4.164-5.646,10.632-2.964,15.605,3.626,6.724,21.844,4.221,25.691-2.008C-425.435,310.451-443.295,298.635-448.689,300.372Z" transform="translate(985.324 285.172)" fill="none" stroke="#161615" stroke-miterlimit="10" stroke-width="1"/>
      <path id="Caminho_9" data-name="Caminho 9" d="M-421.134,233.5a389.533,389.533,0,0,0-21.513,47.166c-5.788,15.312-10.757,31.273-20.491,44.435-3.682,4.981-8.14,9.769-9.4,15.836-2.015,9.72,4.959,19.134,13,24.962a60.307,60.307,0,0,0,42.7,10.864" transform="translate(975.125 245.14)" fill="none" stroke="#161615" stroke-miterlimit="10" stroke-width="1"/>
      <path id="Caminho_10" data-name="Caminho 10" d="M-391.611,256.448c.912,10.984-3.181,22.667,1.288,32.744,2.517,5.676,7.4,9.885,11.293,14.717,4.873,6.044,8.324,13.387,8.955,21.126s-1.757,15.849-7.143,21.44" transform="translate(1023.402 258.912)" fill="none" stroke="#161615" stroke-miterlimit="10" stroke-width="1"/>
      <path id="Caminho_11" data-name="Caminho 11" d="M-367.27,291.128c-1.65,9.678.528,19.711,4.559,28.665s9.843,16.975,15.786,24.789" transform="translate(1038.185 279.727)" fill="none" stroke="#161615" stroke-miterlimit="10" stroke-width="1"/>
      <path id="Caminho_12" data-name="Caminho 12" d="M-470.233,304.8c-1.418,14.445-7.572,28.009-14.749,40.626-3.28,5.767-7.422,11.882-13.861,13.479" transform="translate(959.546 287.931)" fill="none" stroke="#161615" stroke-miterlimit="10" stroke-width="1"/>
      <path id="Caminho_13" data-name="Caminho 13" d="M-583.637,213.173c-2.962-6.7-13.007-7.51-18.87-3.117s-8.311,11.973-9.584,19.19a95.922,95.922,0,0,0,9.326,60.463" transform="translate(890.724 229.426)" fill="none" stroke="#161615" stroke-miterlimit="10" stroke-width="1"/>
      <path id="Caminho_14" data-name="Caminho 14" d="M-594.548,226.143c-2.016,1.1-4.548.021-6.31-1.45s-3.249-3.37-5.364-4.26q.6,20.972,2.589,41.87" transform="translate(895.096 237.295)" fill="none" stroke="#161615" stroke-miterlimit="10" stroke-width="1"/>
      <path id="Caminho_15" data-name="Caminho 15" d="M-261.9,201.453a199.283,199.283,0,0,1,9.648,47.576,17.745,17.745,0,0,0,.727,4.5c.76,2.173,2.359,3.932,3.544,5.9" transform="translate(1101.762 225.903)" fill="none" stroke="#161615" stroke-miterlimit="10" stroke-width="1"/>
      <path id="Caminho_16" data-name="Caminho 16" d="M-258.715,201.336c13.733-2.88,21.676,4.937,12.216,16.007-4.161,4.871-9.67,10.054-10.038,16.9-.344,6.386,4.729,10.9,5.59,16.969.715,5.037-1.394,9.438.531,14.628" transform="translate(1103.674 225.472)" fill="none" stroke="#161615" stroke-miterlimit="10" stroke-width="1"/>
      <path id="Caminho_17" data-name="Caminho 17" d="M-415.782,117.219q-2.77,37.241-2.24,74.628" transform="translate(1008.005 175.344)" fill="none" stroke="#161615" stroke-miterlimit="10" stroke-width="1"/>
      <path id="Caminho_18" data-name="Caminho 18" d="M-437.934,120.956l-1.747,79" transform="translate(995.056 177.587)" fill="none" stroke="#161615" stroke-miterlimit="10" stroke-width="1"/>
      <path id="Caminho_19" data-name="Caminho 19" d="M-573.6,178.566c7.641-6.244,18.039-7.668,27.871-8.5,66.006-5.614,132.555,4.465,196.554,21.564a114.841,114.841,0,0,0,57.041.646c8.328-2.008,16.221-5.466,24.186-8.624a355.752,355.752,0,0,1,119.758-24.789c22.713-.7,45.7-1.051,68.06,3.005,11.968,2.171,23.923,5.82,36.042,4.786-.867,11.8-4.2,23.483-5.068,35.286-.427,5.8-.97,11.934-4.375,16.65-4.319,5.982-12.072,8.166-19.228,9.96.735,30.332-8.155,62.092-29.89,83.261-17.492,17.034-41.9,25.816-66.263,27.5s-48.76-3.258-72.01-10.712c-7.815-2.506-15.823-5.474-21.574-11.328-3.7-3.764-6.223-8.492-8.7-13.151l-27.031-50.842c-4.143-7.793-9.761-16.589-18.57-17.149-5.377-.342-10.515,2.738-13.992,6.855s-5.582,9.188-7.631,14.171l-17.1,41.535c-5.351,13-12.051,27.354-25.263,32.176a259.4,259.4,0,0,1-76.114,15.069c-25.511,1.122-51.605-2.5-74.588-13.627-7.058-3.416-14.159-7.919-17.508-15.008-2.052-4.34-2.49-9.235-3.092-14a181.153,181.153,0,0,0-29.567-78.526,11.941,11.941,0,0,0-3.877-4.085c-1.72-.933-3.765-.992-5.653-1.506-4.458-1.21-7.881-4.951-9.83-9.14s-2.64-8.833-3.309-13.4c-.477-3.245-.739-7.1,1.751-9.235a9.818,9.818,0,0,1,4.369-1.763C-590.18,183.841-579.957,183.764-573.6,178.566Z" transform="translate(896.053 200.077)" fill="none" stroke="#161615" stroke-miterlimit="10" stroke-width="1"/>
      <path id="Caminho_20" data-name="Caminho 20" d="M-552.1,187.731c-8.166,7.791-12.949,18.6-15.255,29.652s-2.322,22.433-2.175,33.718c.162,12.427.554,25.106,4.778,36.792s12.971,22.413,24.911,25.866c5.29,1.53,10.881,1.57,16.388,1.576,12.013.013,24.027-.088,36.03-.514,15.906-.565,32-1.744,47.086-6.8s29.26-14.407,37.277-28.156c5.561-9.539,7.884-20.624,9.076-31.6.675-6.206,1.01-12.533-.251-18.646-2.376-11.536-10.328-21.356-19.959-28.135s-20.886-10.846-32.156-14.266c-17.473-5.3-35.59-9.256-53.839-8.627s-36.755,6.17-50.616,18.055" transform="translate(917.085 212.14)" fill="none" stroke="#161615" stroke-miterlimit="10" stroke-width="1"/>
      <path id="Caminho_21" data-name="Caminho 21" d="M-391,205.2c-.847,14.748-1.69,29.625.526,44.23s7.75,29.113,18.081,39.672c16.247,16.607,41.266,20.808,64.5,21.254,20.532.394,42.555-2.015,58.333-15.16,15.759-13.13,22.118-34.352,25.149-54.639,1.1-7.351,1.864-14.866.622-22.193-1.469-8.67-5.666-16.62-10.169-24.171-2.765-4.634-5.77-9.3-10.123-12.488-4.932-3.613-11.113-4.989-17.122-6.114-32.42-6.074-67.817-6.913-96.363,9.612a175.531,175.531,0,0,0-18.506,12.952l-20.793,15.927" transform="translate(1020.755 207.979)" fill="none" stroke="#161615" stroke-miterlimit="10" stroke-width="1"/>
      <path id="Caminho_22" data-name="Caminho 22" d="M-413.776,188.363a174.392,174.392,0,0,0,1.544,38.181c.5,3.32,1.933,7.42,5.285,7.623" transform="translate(1010.353 218.046)" fill="none" stroke="#161615" stroke-miterlimit="10" stroke-width="1"/>
      <path id="Caminho_23" data-name="Caminho 23" d="M-441.031,188.7c.694,14.035,1.277,28.7-4.577,41.476" transform="translate(991.499 218.25)" fill="none" stroke="#161615" stroke-miterlimit="10" stroke-width="1"/>
      <path id="Caminho_24" data-name="Caminho 24" d="M-513.665,198.438a50.917,50.917,0,0,0,.107,11.97c.662,3.945,2.364,7.852,5.431,10.419,3.865,3.232,9.228,3.885,14.264,4.05a23.365,23.365,0,0,0,6.942-.541c5.434-1.487,9.289-6.247,12.288-11.016,2.087-3.317,4.016-7.227,3-11.011-.854-3.18-3.6-5.466-6.383-7.227a46.161,46.161,0,0,0-13.6-5.8,4.64,4.64,0,0,0-2.119-.168,4.62,4.62,0,0,0-1.9,1.152,43.888,43.888,0,0,0-14.855,31l8.3,4.276" transform="translate(950.469 218.457)" fill="none" stroke="#161615" stroke-miterlimit="10" stroke-width="1"/>
      <path id="Caminho_25" data-name="Caminho 25" d="M-356.719,230.972c5.977,2.991,13.151,1.872,19.583.058,4.069-1.149,8.151-2.594,11.477-5.207s5.812-6.588,5.716-10.816a13.529,13.529,0,0,0-5.068-9.691,27.5,27.5,0,0,0-10.021-4.978,58.036,58.036,0,0,0-15.825-2.445,4.437,4.437,0,0,0-2.727.576,4.574,4.574,0,0,0-1.323,2.019c-2.541,5.991-4.829,13.453-.742,18.518,2.416,2.994,6.414,4.157,10.2,4.842,3.322.6,6.83.946,10.009-.194,4.561-1.631,7.6-6.046,9.188-10.624a29.373,29.373,0,0,0,1.114-14.885c-1.085-5.842-4.881-11.965-10.781-12.672-4.122-.494-8.054,1.8-11.312,4.37a54.286,54.286,0,0,0-15.7,20.071c-2.359,5.2-3.757,11.677-.467,16.345,3.069,4.353,8.971,5.428,14.269,5.966,10.241,1.039,21.081.429,27.671-8.622,5.212-7.159,5.036-16.961-1.888-22.957C-340.058,186.176-361.608,214.953-356.719,230.972Z" transform="translate(1039.676 216.271)" fill="none" stroke="#161615" stroke-miterlimit="10" stroke-width="1"/>
      <path id="Caminho_26" data-name="Caminho 26" d="M-447.478,378.579a22.446,22.446,0,0,1,20.776.786c2.469,1.443,4.639,3.354,7.11,4.794a22.341,22.341,0,0,0,21.861.106,35.74,35.74,0,0,1,5.175-2.88,19.766,19.766,0,0,1,6.6-.829l34.451-.4" transform="translate(990.376 330.912)" fill="none" stroke="#161615" stroke-miterlimit="10" stroke-width="1"/>
      <path id="Caminho_27" data-name="Caminho 27" d="M-463.936,394.4c9.28,6.823,18.745,13.746,29.638,17.492,9.833,3.38,20.372,4.01,30.761,4.415,12.915.5,25.933.7,38.677-1.459s25.3-6.8,35.245-15.06c4.223-3.511,8.07-7.9,9.254-13.263" transform="translate(980.498 336.986)" fill="none" stroke="#161615" stroke-miterlimit="10" stroke-width="1"/>
      <path id="Caminho_28" data-name="Caminho 28" d="M-392.592,336.564a88.555,88.555,0,0,1-31.576,18.257c-7.964,2.6-16.479,4.156-23.411,8.86-10.456,7.1-15.216,19.783-21.736,30.607a93.792,93.792,0,0,1-63.239,43.379c19.865,8.46,44.508,4.21,60.392-10.414a42.4,42.4,0,0,1-16.247,14.925,54.527,54.527,0,0,0,45.3-17.61l-6.879,8.214a98.385,98.385,0,0,0,46.875-34.291l1.131,7.835,8.71-5.9c-.93,3.272,2.325,6.63,5.724,6.783s6.506-2.04,8.64-4.69c2.917,7.374,14.658,8.923,19.388,2.559l1.135,6.063a28.545,28.545,0,0,0,11.915-5.25c-1.751,1.885.43,5.174,2.984,5.492s4.948-1.109,7.283-2.191,5.274-1.8,7.332-.253a27.421,27.421,0,0,1,2,2.043c4.612,4.282,11.718-.915,15.713-5.778.485,5.194,8.824,7.174,11.59,2.751.117,2.831,3.284,4.738,6.113,4.561s5.327-1.815,7.678-3.4c3.189,2.76,7.5,3.746,11.622,4.639,8.811,1.911,19.094,3.479,25.912-2.418a5.228,5.228,0,0,0,4.951,5.1l4.53-5a28.1,28.1,0,0,0,18.948,7.847l-1.755-5.077a25.514,25.514,0,0,0,19.39,8.691c10.419,6.625,22.365,11.842,34.691,11.131s24.842-8.736,27.549-20.782a57.238,57.238,0,0,1-43.187,1.583c-23.75-8.814-38.935-32.24-60.971-44.736-15.311-8.681-33.369-11.752-48.392-20.924-9.539-5.823-17.6-13.964-27.572-19.011-12.986-6.575-28.4-7.345-42.6-4.175s-27.348,10.04-39.464,18.108" transform="translate(939.313 299.562)" fill="none" stroke="#161615" stroke-miterlimit="10" stroke-width="1"/>
      <path id="Caminho_29" data-name="Caminho 29" d="M-463.979,404.417a313.478,313.478,0,0,0,4.546,37.992,81.2,81.2,0,0,0,8.363-22.59,63.9,63.9,0,0,0,5.684,31.475,17.525,17.525,0,0,0,10.95-16.113,121.288,121.288,0,0,0,.821,26.736l3.8-.029a175.263,175.263,0,0,0,11.078-21.758,115.885,115.885,0,0,0,2.381,24.486c4.73-.235,7.964-4.753,10.229-8.913a136.062,136.062,0,0,0,9.056-20.5l-.149,29.767,3.012,1.727a70.523,70.523,0,0,0,15.567-28.293,84.34,84.34,0,0,0,.126,23.374,57.747,57.747,0,0,0,15.466-25.408,18.3,18.3,0,0,0,3.167,13.4,56.141,56.141,0,0,0,13.627-22.061,10.35,10.35,0,0,0,.5,7.22A67.267,67.267,0,0,0-319.6,407.589c1.12-2.172,1.771-5.484-.448-6.507" transform="translate(980.472 345.723)" fill="none" stroke="#161615" stroke-miterlimit="10" stroke-width="1"/>
      <path id="Caminho_30" data-name="Caminho 30" d="M-477.645,413.155c-10.525,15.08-27.16,24.448-41.937,35.4s-28.967,25.647-30.367,43.984" transform="translate(928.872 352.969)" fill="none" stroke="#161615" stroke-miterlimit="10" stroke-width="1"/>
      <path id="Caminho_31" data-name="Caminho 31" d="M-350.277,411.291c9.742,15.636,23.174,28.556,35.227,42.487s23.1,29.644,26.495,47.749c.414,2.207.219,5.221-1.964,5.746" transform="translate(1048.718 351.851)" fill="none" stroke="#161615" stroke-miterlimit="10" stroke-width="1"/>
      <path id="Caminho_32" data-name="Caminho 32" d="M-546.941,467.473a227.417,227.417,0,0,0,22.1,61.207,48.6,48.6,0,0,0,10.662-16.055c-.662,14.989-.587,31.948,10.182,42.394a28.408,28.408,0,0,0,16.3-12.955l1.5,23.126,4.249,1.871,9.107-8.681.622,17.9a27.572,27.572,0,0,0,19.335-10.531,51.487,51.487,0,0,0,3.634,26.343,78.652,78.652,0,0,0,22.9-15.951l-.824,24.245A72.9,72.9,0,0,0-401.4,581.3l-.325,17.658,19.761-10.856a86.646,86.646,0,0,0-6.246,21.23,67.909,67.909,0,0,0,27.032-20.216l-5.694,17.426a107.36,107.36,0,0,0,25.962-18.63l-2.053,15.269a128.3,128.3,0,0,0,35.136-17.97l-.112,8.59A127.538,127.538,0,0,0-284.8,579.642a11.834,11.834,0,0,0-.578,7.814A206.112,206.112,0,0,0-262.133,572.2a18.79,18.79,0,0,0-2.308,10.229,110.9,110.9,0,0,0,32.569-24.35,16.983,16.983,0,0,1-.312,7.961q12.472-16.713,24.946-33.424l.1,5.094a172.219,172.219,0,0,0,30.674-61.373" transform="translate(930.677 385.572)" fill="none" stroke="#161615" stroke-miterlimit="10" stroke-width="1"/>
      <path id="Caminho_33" data-name="Caminho 33" d="M-227.239,316.058q-2.993,45.282-10.36,90.132c-1.325,8.065-2.775,16.18-5.818,23.765-4.482,11.168-12.2,20.67-19.166,30.479a271.972,271.972,0,0,0-42.971,95.216" transform="translate(1075.562 294.69)" fill="none" stroke="#161615" stroke-miterlimit="10" stroke-width="1"/>
      <path id="Caminho_34" data-name="Caminho 34" d="M-602.831,296.95c-.539,42.188,11.291,83.478,24.022,123.7q20.273,64.062,43.942,126.982" transform="translate(897.12 283.221)" fill="none" stroke="#161615" stroke-miterlimit="10" stroke-width="1"/>
      <path id="Caminho_35" data-name="Caminho 35" d="M-431.125,227.784c.682-8.143-6.114-14.9-12.944-19.393-22.216-14.6-52.061-18.74-77.3-10.014-10.193,3.525-11.76,11.95-4.511,20.062,8.913,9.974,25.608,8.414,37.743,8.9Q-459.646,228.47-431.125,227.784Z" transform="translate(940.63 221.333)" fill="none" stroke="#161615" stroke-miterlimit="10" stroke-width="1"/>
      <path id="Caminho_36" data-name="Caminho 36" d="M-267.345,205.426c-9.977,7.415-20.137,14.93-31.811,19.206a89.86,89.86,0,0,1-25.677,4.837,272.878,272.878,0,0,1-28.418-.245c-7.587-.344-16.543-1.562-20.043-8.3-2.77-5.33-.6-12.176,3.6-16.471s10.009-6.567,15.695-8.51a113.621,113.621,0,0,1,24.072-5.882,74.6,74.6,0,0,1,51.088,13.315" transform="translate(1034.159 218.801)" fill="none" stroke="#161615" stroke-miterlimit="10" stroke-width="1"/>
      <path id="Caminho_37" data-name="Caminho 37" d="M-537.959,16.736c-14.228,12.627-29.1,26.25-34.433,44.513-2.168,7.428-2.613,15.244-2.7,22.982-.211,19.619,1.808,39.349-.786,58.8-1.611,12.07-4.975,23.826-7.747,35.685a369.577,369.577,0,0,0-8.9,59.858" transform="translate(903.32 115.033)" fill="none" stroke="#161615" stroke-miterlimit="10" stroke-width="1"/>
      <path id="Caminho_38" data-name="Caminho 38" d="M-553.727,32.222a301.465,301.465,0,0,1,149.31-46.382c3.056-.115,6.2-.168,9.072.9,3.276,1.216,5.844,3.756,8.58,5.927,14.522,11.525,36.37,12.767,52.1,2.964,5.783-3.6,10.782-8.526,17.037-11.227,8.792-3.8,18.825-2.72,28.332-1.575,33.467,4.029,68.038,8.422,97.023,25.635,25.736,15.284,44.926,39.5,61.071,64.706,37.08,57.889,61.528,126.75,53.234,194.992" transform="translate(926.604 94.036)" fill="none" stroke="#161615" stroke-miterlimit="10" stroke-width="1"/>
      <path id="Caminho_39" data-name="Caminho 39" d="M-601.9,217.374a45.286,45.286,0,0,0,5.146-23.064,9.993,9.993,0,0,0-1.328-5.218c-2.456-3.616-9.171-4.981-8.281-9.264a6.681,6.681,0,0,1,2.189-3.192l16.407-15.988a26.882,26.882,0,0,1-11.177-4.449,19.4,19.4,0,0,1,8.51-11.072,4.989,4.989,0,0,0-4.109-1.384,30.455,30.455,0,0,0,8.7-6.23l-6.609-2.671a226.544,226.544,0,0,0,20.4-10.163l-5.649-.863a15.184,15.184,0,0,1,3.978-3.76,35.985,35.985,0,0,0-12.109-.622l11.541-5.548-20.356-.342,8.484-6.369c.754-.565,1.6-1.475,1.157-2.308s-1.839.719-.9.712" transform="translate(894.964 167.784)" fill="none" stroke="#161615" stroke-miterlimit="10" stroke-width="1"/>
      <path id="Caminho_40" data-name="Caminho 40" d="M-597.374,70.233l.144,77.838c.014,7.883.024,15.815-1.336,23.579-2.173,12.408-7.825,24.341-7.385,36.93" transform="translate(895.244 147.143)" fill="none" stroke="#161615" stroke-miterlimit="10" stroke-width="1"/>
      <path id="Caminho_41" data-name="Caminho 41" d="M-599.908,98.628q24.685-43.9,53.492-85.315" transform="translate(898.886 112.979)" fill="none" stroke="#161615" stroke-miterlimit="10" stroke-width="1"/>
      <path id="Caminho_42" data-name="Caminho 42" d="M-304.748.8c10.918,9.532,18.038,22.6,24.4,35.626,8.417,17.213,15.927,34.853,23.411,52.492,13.107,30.891,26.383,62.968,25.683,96.517" transform="translate(1076.045 105.465)" fill="none" stroke="#161615" stroke-miterlimit="10" stroke-width="1"/>
      <path id="Caminho_43" data-name="Caminho 43" d="M-561.15,61.525c2.7-.4,3.311-3.98,3.252-6.71l-1.064-49.608a222.508,222.508,0,0,0,1.143,36.6c5.5,1.083,9.852-4.463,12.453-9.425a152.861,152.861,0,0,0,16.756-56.7,246.453,246.453,0,0,0,.018,61.018l6.737,1.551a199.451,199.451,0,0,0,9.088-68.76,213.014,213.014,0,0,0,5.991,37.413c1.912,7.551,5.373,16.141,12.923,18.057a146.182,146.182,0,0,0,12.59-45.872,149.92,149.92,0,0,0,.962,37.839c7.222-2.28,11.208-9.851,14.074-16.861A224.8,224.8,0,0,0-454.59-37.495a170.393,170.393,0,0,0,3.144,38.711l7.891-.034a277.542,277.542,0,0,0,21.169-44.435l3.38,36.976c.421,4.613.883,9.369,3.074,13.45s6.58,7.353,11.174,6.771a184.1,184.1,0,0,0,26.632-59.6c-2.512,19.342-4.922,39.636,2.1,57.832,14.82-15.7,19.687-38.05,23.958-59.211a126.51,126.51,0,0,0,1.786,39.488c14.895-12.525,23.026-31.115,30.66-49.015l.879,51.641a207.726,207.726,0,0,0,31.42-40.721c-.125,16.788-.227,33.781,3.775,50.083A345.79,345.79,0,0,1-243.117-26.9q-.382,15.9.19,31.806a159.989,159.989,0,0,1,33.344-15.018,58.55,58.55,0,0,1,2.663,23.9,85.136,85.136,0,0,0,21-21.721c3.442,13.317-5.057,29.857,4.2,40.031l19.451-21.28a46.907,46.907,0,0,1,.648,25.917" transform="translate(922.149 71.038)" fill="none" stroke="#161615" stroke-miterlimit="10" stroke-width="1"/>
      <path id="Caminho_44" data-name="Caminho 44" d="M-142.415,80.4q.038-38.609,3.09-77.134C-159.4,5.613-179.67.292-198.323-7.5s-36.184-18.034-54.651-26.256c-30.1-13.4-62.32-21.273-94.337-29.073-7.388-1.8-15.021-3.613-22.525-2.378-5.468.9-10.536,3.368-15.466,5.9-14.315,7.339-28.3,15.442-43.324,21.19C-449.144-30.265-471.093-27-492.207-20.938s-42.259,15.581-55.955,32.755c-5.506,6.9-9.608,14.8-13.672,22.64-1.589,3.066-2.912,7.443-.1,9.454" transform="translate(920.692 65.609)" fill="none" stroke="#161615" stroke-miterlimit="10" stroke-width="1"/>
      <path id="Caminho_45" data-name="Caminho 45" d="M-502.354,434.456A142.144,142.144,0,0,0-516.527,472.7c-1.152,5.393-1.869,11.466,1.218,16.034,6.137-4.49,14.692-.462,21,3.777s14.324,8.83,20.987,5.167a18.28,18.28,0,0,0,3.839-3.068,90.592,90.592,0,0,0,16.9-22.686c-1.237,9.12-4.205,17.94-5.42,27.063s-.443,19.057,5.044,26.447a95.133,95.133,0,0,0,31.58-49.36A227.232,227.232,0,0,0-431.365,524l8.321,4.172a273.312,273.312,0,0,0,36.853-42.835c.97,7.972-2.383,15.74-4.405,23.514s-2.34,17.078,3.356,22.742A162.426,162.426,0,0,0-350.9,491.532c-.088,12.083-8.59,24.355-3.817,35.454,14.231-11.979,23.7-28.522,32.878-44.7l-.862,25.888c-.173,5.183,1.091,12.107,6.258,12.544a138.142,138.142,0,0,0,25.2-38.631,70.533,70.533,0,0,0,.77,31.375c12.506-12.973,16.333-31.777,19.619-49.493a55.863,55.863,0,0,0,3.114,24.229c5.506,2.357,11.221-2.976,14.125-8.216a77.6,77.6,0,0,0,7.348-20.42" transform="translate(948.34 365.754)" fill="none" stroke="#161615" stroke-miterlimit="10" stroke-width="1"/>
      <path id="Caminho_46" data-name="Caminho 46" d="M-467.4,414.748a283.194,283.194,0,0,0-28.281,49.047" transform="translate(961.442 353.925)" fill="none" stroke="#161615" stroke-miterlimit="10" stroke-width="1"/>
      <path id="Caminho_47" data-name="Caminho 47" d="M-435.348,419.51a1221.8,1221.8,0,0,0-66.567,111.575l5-.443" transform="translate(957.702 356.784)" fill="none" stroke="#161615" stroke-miterlimit="10" stroke-width="1"/>
      <path id="Caminho_48" data-name="Caminho 48" d="M-457.664,463.089q.355,26.579-.694,53.151c-.221,5.59-.219,11.9,3.77,15.823l11.122-3.61" transform="translate(983.8 382.94)" fill="none" stroke="#161615" stroke-miterlimit="10" stroke-width="1"/>
      <path id="Caminho_49" data-name="Caminho 49" d="M-409.9,446.741l-2.023,86.178c-.158,6.755.181,14.6,5.586,18.649" transform="translate(1011.698 373.128)" fill="none" stroke="#161615" stroke-miterlimit="10" stroke-width="1"/>
      <path id="Caminho_50" data-name="Caminho 50" d="M-370.738,419.463c-.026,3.3,1.392,6.425,2.8,9.411a657.927,657.927,0,0,0,48.2,84.991" transform="translate(1036.437 356.755)" fill="none" stroke="#161615" stroke-miterlimit="10" stroke-width="1"/>
      <path id="Caminho_51" data-name="Caminho 51" d="M-326.144,391.918a482.654,482.654,0,0,0,28.037,56.267" transform="translate(1063.203 340.223)" fill="none" stroke="#161615" stroke-miterlimit="10" stroke-width="1"/>
      <path id="Caminho_52" data-name="Caminho 52" d="M-250.095,246.919a590.306,590.306,0,0,1-8.921,131.112" transform="translate(1103.494 253.192)" fill="none" stroke="#161615" stroke-miterlimit="10" stroke-width="1"/>
      <path id="Caminho_53" data-name="Caminho 53" d="M-233.086,301.388a274.413,274.413,0,0,1-22.248,68.7,41.4,41.4,0,0,1,4.554-24.727,171.413,171.413,0,0,0-12.626,31.716,47.807,47.807,0,0,0-.43-16.309c-1.731-.472-2.839,1.789-3.164,3.554a129.17,129.17,0,0,0-2.059,27.818,30.325,30.325,0,0,0-3.852-16.842,138.142,138.142,0,0,0-4.349,29.553,54.927,54.927,0,0,0-3.224-18.18,180.317,180.317,0,0,0-1.915,25.832,64.116,64.116,0,0,0-2.674-20.359,113.423,113.423,0,0,0-.538,25.824,59.691,59.691,0,0,0-.674-24.648,196.845,196.845,0,0,0-14.523,37.213,59.9,59.9,0,0,0,2.866-20.521,45.61,45.61,0,0,0-5.4,13.4" transform="translate(1076.889 285.885)" fill="none" stroke="#161615" stroke-miterlimit="10" stroke-width="1"/>
      <path id="Caminho_54" data-name="Caminho 54" d="M-598.934,256.462l-6,25.227a2.586,2.586,0,0,0,3.176-1.57,258.771,258.771,0,0,0,.992,33c.126,1.339.83,3.12,2.141,2.816a53.328,53.328,0,0,1-1.5,11.864" transform="translate(895.867 258.92)" fill="none" stroke="#161615" stroke-miterlimit="10" stroke-width="1"/>
      <path id="Caminho_55" data-name="Caminho 55" d="M-599.558,270.4l17.284,92.345c.7,3.738,1.733,7.955,5.068,9.781a54.86,54.86,0,0,0,2.868-19.1,68.421,68.421,0,0,0,5.817,27.855,47.506,47.506,0,0,0,4.677-14.447,125.056,125.056,0,0,0,3.176,43.278l4.732-19.516,1.643,27.773,4.935-11.608a233.349,233.349,0,0,0,.466,26.93,29.527,29.527,0,0,1,7.015-7.675c-.242,12.341-.344,25.3,5.465,36.2a58.34,58.34,0,0,0,10.07-14.567l3.213,24.5,5.538,1.115a49.548,49.548,0,0,1,6.842-12.933,57.965,57.965,0,0,0,.667,19.563,31.284,31.284,0,0,0,8.227-10.339c1.839,5.809,6.841,9.96,11.6,13.765a33.607,33.607,0,0,0,6.374,4.341,44.993,44.993,0,0,1,5.594,2.556c3.41,2.242,5.042,6.361,7.915,9.26a14.636,14.636,0,0,0,15.562,3.162" transform="translate(899.096 267.289)" fill="none" stroke="#161615" stroke-miterlimit="10" stroke-width="1"/>
      <path id="Caminho_56" data-name="Caminho 56" d="M-147.7,477.64c10.986,14.32,18.62,30.644,33.16,40.2,14.476,9.515,29.561,12.438,38.81,28.986,5.665,10.136,7.18,22.133,6.67,33.733-2.168,49.194-39.857,92.075-85.424,110.741s-97.331,16.4-145.25,5.06-93.3-31.252-139.772-47.534c-16.98-5.95-34.291-11.5-49.7-20.792-40.445-24.4-62.277-70.9-99.087-100.5" transform="translate(905.858 391.674)" fill="none" stroke="#161615" stroke-miterlimit="10" stroke-width="1"/>
      <path id="Caminho_57" data-name="Caminho 57" d="M-442.367,493.422C-547.416,551.7-674.5,553.18-786.744,596.016" transform="translate(786.744 401.147)" fill="none" stroke="#161615" stroke-miterlimit="10" stroke-width="1"/>
      <path id="Caminho_58" data-name="Caminho 58" d="M-510.594,515.091a109.124,109.124,0,0,1-49.319,19.03c-5.457.671-11.232,1.018-15.823,4.041-6.815,4.487-9.062,13.522-14.951,19.171-9.665,9.27-25.074,6.679-38.456,7.214-37.037,1.48-68.23,31.134-105.206,33.7" transform="translate(818.192 414.153)" fill="none" stroke="#161615" stroke-miterlimit="10" stroke-width="1"/>
      <path id="Caminho_59" data-name="Caminho 59" d="M-264.767,520.815c8.513,22.406,30.862,37.123,54.028,43.276s47.528,5.185,71.5,5.191A844.539,844.539,0,0,1-40.6,575.1c37.381,4.409,78.034,13.394,100.9,43.291" transform="translate(1100.042 417.588)" fill="none" stroke="#161615" stroke-miterlimit="10" stroke-width="1"/>
      <path id="Caminho_60" data-name="Caminho 60" d="M-125.712,846.606a393.684,393.684,0,0,0,22.894-104.171c.832-10.339,1.242-20.855-1.015-30.978-3.162-14.184-11.326-26.668-16.889-40.094-13.445-32.444-11.269-68.953-8.868-103.991" transform="translate(1180.101 445.533)" fill="none" stroke="#161615" stroke-miterlimit="10" stroke-width="1"/>
      <path id="Caminho_61" data-name="Caminho 61" d="M-224.573,558.063-221.381,647c.275,7.633.622,15.556,4.138,22.336,4.037,7.782,11.63,12.93,18.21,18.719,18.782,16.53,30.311,39.652,40.188,62.64a732.745,732.745,0,0,1,42.923,134.309" transform="translate(1124.167 439.945)" fill="none" stroke="#161615" stroke-miterlimit="10" stroke-width="1"/>
      <path id="Caminho_62" data-name="Caminho 62" d="M-777.778,577.844q33.561,138.1,79.672,272.748" transform="translate(792.126 451.818)" fill="none" stroke="#161615" stroke-miterlimit="10" stroke-width="1"/>
      <path id="Caminho_63" data-name="Caminho 63" d="M-138.193,506.217a165.207,165.207,0,0,1,17.015,43.521c1.743,7.417,2.956,15.258.882,22.589-1.65,5.833-5.265,10.9-9.131,15.568-23.949,28.9-58.945,46.251-94.032,59.573-18.7,7.1-38.319,13.379-58.278,12.138-19.62-1.219-37.987-9.6-55.835-17.839l-123.213-56.894c-16.231-7.494-32.66-15.112-46.464-26.472-22.5-18.519-36.482-45.691-58.621-64.641" transform="translate(919.316 401.349)" fill="none" stroke="#161615" stroke-miterlimit="10" stroke-width="1"/>
      <path id="Caminho_64" data-name="Caminho 64" d="M-396.361,189.32A77.487,77.487,0,0,0-455.382,154.1a5.565,5.565,0,0,1,6.545-.592c-31.612-6.59-63.284,11.914-95.568,11.242" transform="translate(932.199 196.273)" fill="none" stroke="#161615" stroke-miterlimit="10" stroke-width="1"/>
      <path id="Caminho_65" data-name="Caminho 65" d="M-401.3,189.956c11.144-3.407,18.393-13.776,27.159-21.452,12.3-10.773,28.329-16.557,44.489-19.055s32.616-1.928,48.957-1.352l.13,5.9" transform="translate(1018.095 193.579)" fill="none" stroke="#161615" stroke-miterlimit="10" stroke-width="1"/>
      <path id="Caminho_66" data-name="Caminho 66" d="M-527.066,162.678c1.37,5.838,9.278,7.444,14.962,5.532s10.517-6.014,16.354-7.385l-8.932.235,32.409-.253-16.583,4.506q24.123,1.193,48.293.787l-15.208,5.58a12.981,12.981,0,0,0,8.288.17c-.262-5.4-4.65-9.894-9.652-11.941s-10.558-2.135-15.962-2.194l6.044.075-31.308.006a198.8,198.8,0,0,1,38.586,2.082A63.582,63.582,0,0,0-412.633,184.1" transform="translate(942.606 199.587)" fill="none" stroke="#161615" stroke-miterlimit="10" stroke-width="1"/>
      <path id="Caminho_67" data-name="Caminho 67" d="M-387.108,170.444a134.991,134.991,0,0,0,64.138-18.958l-36.4.474q39.62,2.271,79.335,1.293a155.148,155.148,0,0,0-24.6.789l24.082,4.338,4.546-.181" transform="translate(1026.611 195.912)" fill="none" stroke="#161615" stroke-miterlimit="10" stroke-width="1"/>
      <path id="Caminho_68" data-name="Caminho 68" d="M-560.07,184.659a120.768,120.768,0,0,0-32.089-5.354c5.977,9.568,19.116,13.917,29.621,9.8" transform="translate(903.537 212.609)" fill="none" stroke="#161615" stroke-miterlimit="10" stroke-width="1"/>
      <path id="Caminho_69" data-name="Caminho 69" d="M-258.613,172.153l-28.871-.25c-2.5,6.519,2.892,13.914,9.5,16.165s13.845.826,20.68-.618A6.847,6.847,0,0,0-263.662,180" transform="translate(1086.031 208.166)" fill="none" stroke="#161615" stroke-miterlimit="10" stroke-width="1"/>
    </g>
  </g>
</svg>
