<svg data-name="Grupo 38" xmlns="http://www.w3.org/2000/svg" xmlns:xlink="http://www.w3.org/1999/xlink" width="1226.888" height="1147.211"><defs><linearGradient id="b" y1=".5" x2="1" y2=".5" gradientUnits="objectBoundingBox"><stop offset=".409" stop-color="#bb7963"/><stop offset=".46" stop-color="#c0806a"/><stop offset=".657" stop-color="#d39985"/><stop offset=".854" stop-color="#e2ad9d"/><stop offset="1" stop-color="#ebb9aa"/></linearGradient><radialGradient id="a" cx="-86.383" cy="-43.709" r="30.582" gradientTransform="matrix(.839 0 0 .839 -69.349 -38.071)" gradientUnits="userSpaceOnUse"><stop offset=".057" stop-color="#00ace5"/><stop offset=".252" stop-color="#1caab8"/><stop offset=".591" stop-color="#49a86f"/><stop offset=".749" stop-color="#5ca853"/><stop offset=".762" stop-color="#54a153"/><stop offset=".819" stop-color="#3a8b55"/><stop offset=".877" stop-color="#277a56"/><stop offset=".937" stop-color="#1b7157"/><stop offset="1" stop-color="#186e58"/></radialGradient><radialGradient id="c" cx="-136.042" cy="-46.187" r="28.765" gradientTransform="matrix(.839 0 0 .839 -102.477 -38.638)" xlink:href="#a"/><linearGradient id="d" y1=".5" x2="1" y2=".5" gradientUnits="objectBoundingBox"><stop offset="0" stop-color="#161615" stop-opacity=".698"/><stop offset="1" stop-color="#161615"/></linearGradient><linearGradient id="e" y1=".5" x2="1" y2=".5" gradientUnits="objectBoundingBox"><stop offset="0" stop-color="#161615" stop-opacity=".8"/><stop offset="1" stop-color="#161615"/></linearGradient><linearGradient id="f" y1=".5" x2="1" y2=".5" gradientUnits="objectBoundingBox"><stop offset="0" stop-color="#79313e"/><stop offset=".037" stop-color="#7a303c"/><stop offset=".281" stop-color="#7e2e39"/><stop offset=".669" stop-color="#914853"/><stop offset=".888" stop-color="#a97d70"/><stop offset="1" stop-color="#986069"/></linearGradient></defs><g data-name="Grupo 17"><path data-name="Caminho 70" d="M6.532 1051.045c8.171-30.49 11.278-32.942 19.939-38.663s3.757-11.265 26.637-14.621 22.062-5.1 53.114-13.218c0 0 35.136-1.344 58.016-14.535s29.417-15.97 50.663-22.344 35.954-9.656 57.2-16.185 39.223-6.478 50.663-15.493 14.708-10.728 27.783-11.1 34.656-16.82 34.656-16.82l62.04 88.042 113.577 59.15 86.871 28.6h87.081l76.981-32.684 42.965-55.206-6.018-45.907-38.589-27.445s25.815 5.721 44.608 16.889 8.988 3.564 35.138 23.3 19.611 22.6 51.479 28.521 179.768 20.632 205.917 32.889 45.76 20.428 64.552 54.748 14.709 88.25 14.709 88.25L0 1122.695z" fill="#127ca2"/><path data-name="Caminho 71" d="M324.426 931.164c-2.429 3.154-4.871 6.657-8.606 8.033-2.728 1-5.737.706-8.636.494-8.705-.635-18.036-.178-25.229 4.765-10.118 6.955-13.805 21.262-24.747 26.829-6.334 3.223-13.826 2.808-20.913 2.317l-43.815-3.034c-6.743-.467-13.592-.927-20.2.495-8.275 1.778-15.61 6.374-23.128 10.259-28.538 14.751-60.931 19.713-91.974 27.984-8.7 2.319-17.481 4.978-24.986 9.957 6.8 2.426 13.346-3.53 19.814-6.732 5.772-2.858 12.328-3.58 18.708-4.465a301.748 301.748 0 0 0 80.4-22.854c13.627-6.022 27.362-13.2 42.257-13.554 12.059-.291 23.7 3.938 35.534 6.284s25.173 2.477 34.742-4.866c10.667-8.185 14.517-24.066 26.789-29.564 10.137-4.543 22.974-.335 32.427-6.172 5.738-3.544 8.905-10.053 13.871-14.616 4.036-3.711 18.178-6.609 16.069-11.974-11.36 2.083-21.545 11.544-28.377 20.414z" fill="#003b5a" opacity=".64"/><path data-name="Caminho 72" d="M888.015 944.819c9.968 10.763 22.237 19.823 36.357 23.806a120.548 120.548 0 0 0 18.526 3.2l104.67 12.5c12.658 1.512 25.418 3.045 37.52 7.054 9.272 3.071 18 7.545 26.956 11.454 22.547 9.849 46.561 16.149 68.774 26.735 7.532 3.591 15.524 8.5 17.668 16.567-4.284-8.547-15.036-10.968-24.227-13.6-11.7-3.348-22.789-8.5-33.814-13.647-26.85-12.533-54.46-25.379-84.03-27.272-7.66-.49-15.384-.235-22.971-1.394-7.228-1.1-14.194-3.464-21.248-5.383a271.627 271.627 0 0 0-38.159-7c-12.57-1.547-25.239-2.692-37.531-5.742-20.488-5.082-39.175-15.287-56.948-26.405-2.319-1.451-17.828-9.612-12.165-14.7 5.187-4.66 17.839 10.817 20.622 13.827z" fill="#197195"/></g><g data-name="Grupo 18"><path data-name="Caminho 73" d="M792.548 865.856c14.709 36.147 23.233 38.869 33.68 51.4s15.893 16.02 15.349 33.342 19.647 15.86-24.5 50.365-61.867 52.482-103.123 53.026-48.07 1.09-86.608-8.171-79.863-28.524-112.042-49.127-75.548-52.447-95.538-72.206-32.388-31.417-31.364-33.214 5.606 1.856 21.428-23.4 382.718-2.015 382.718-2.015z" fill="#e2c4c5"/><path data-name="Caminho 74" d="M486.088 970.358c7.5 8.479 16.789 15.136 26 21.707 15.085 10.758 30.246 21.528 46.662 30.118 42.347 22.157 90.938 28.784 138.56 32.817 6.206.525 12.488 1.01 18.633 0 9.942-1.639 18.795-7.055 27.36-12.362 10.027-6.212 20.177-12.522 28.3-21.078 6.8-7.163 11.965-15.689 16.927-24.227 5.415-9.318 10.745-19.017 12.269-29.687 1.955-13.712-2.845-28.026-11.915-38.495-3.186-3.679-6.982-6.988-11.544-8.683-10.12-3.759-21.593 1.283-29.522 8.609s-13.571 16.789-21.051 24.574c-11.651 12.126-27.388 19.721-43.639 24.043s-33.144 5.583-49.928 6.617c-14.488.891-29.1 1.623-43.463-.459-14.3-2.072-28.052-6.891-41.5-12.181-21.728-8.552-42.918-18.4-64.093-28.242-9.276-4.311-19.3-8.856-25.986-16.892-2.693 7.814 6.009 12.97 10.056 18.6 6.024 8.374 11.007 17.453 17.874 25.221z" fill="#9a8f96" opacity=".24"/><path data-name="Caminho 75" d="M756.899 1008.662c-.344 2.176-1.76 4.013-3.213 5.668-10.478 11.941-25.155 19.654-40.473 23.864s-31.348 5.127-47.234 5.177c-30.351.093-61.32-3.066-89.042-15.421-10.6-4.721-20.564-10.718-30.5-16.7l-48.318-29.079c-4.874-2.933-9.784-5.894-13.971-9.742-11.445-10.52-16.149-26.224-22.741-40.3 12.309-.362 22.992 7.721 33.456 14.215 16.793 10.421 35.419 17.46 53.911 24.434 23.68 8.929 47.955 17.977 73.259 18.319 22.667.306 44.593-6.294 66.806-9.788 15.1-2.375 39.913-6.353 53.426 3.287 6.714 4.787 16.002 17.406 14.634 26.066z" fill="#928086" opacity=".22"/><path data-name="Caminho 76" d="M679.969 1017.3c-.866 5.082-6.662 7.5-11.672 8.716-32.87 8.011-67.486 3.616-100.545-3.581a50.187 50.187 0 0 1-11-3.332 60.773 60.773 0 0 1-9.86-6.529 189.781 189.781 0 0 0-38.245-22.049c-3.615-1.557-7.334-3.031-10.425-5.469-3.642-2.876-6.17-6.9-8.625-10.837l-23.814-38.21c13.624.475 25.8 8.044 37.932 14.261a213.745 213.745 0 0 0 49.771 18.127c18.7 4.276 37.879 6.017 56.694 9.733s37.648 9.616 52.983 21.132c5.548 4.17 18.276 9.426 16.806 18.038z" fill="#5b4548" opacity=".15"/></g><path data-name="Caminho 77" d="M385.205 888.068l-34.656 16.82s70.017 100.153 153.9 135.282 175.83 65.364 242.212 40.032 110.069-55.389 118.456-82.441 19.012-53.8-12.856-71.885-42.156-23.262-42.156-23.262 22.137 13.751 28.674 32.139-.818 33.917-1.634 36.57-9.452 21.963-31.079 37.64-53.826 51.833-124.949 45.805-157.56-46.88-205.248-83.448-90.664-83.252-90.664-83.252z" fill="#1c5b78"/><path data-name="Caminho 78" d="M491.879 766.942c-26.695 18.789-38.133 26.416-59.924 44.935s-28.873 8.716-25.059 33.776 8.716 40.857 20.7 56.654 42.492 36.5 55.566 49.027 48.584 45.76 63.786 50.663 25.008 13.62 54.971 8.716a365.617 365.617 0 0 0 51.207-11.986s8.171 3.269 13.074 5.449 19.339 2.724 33.638-10.352 44.262-34.318 61.149-65.37 40.311-58.288 46.3-74.631-60.464-87.846-74.627-92.946 7.081 80.968-40.857 98.4-75.5 28.873-103.121 11.44-39.605-7.081-49.956-29.961-46.847-73.814-46.847-73.814z" fill="#493434"/><path data-name="Caminho 79" d="M429.196 79.424c-60.467 55.021-102.413 114.944-99.144 195.022s4.9 112.764 4.9 112.764q4.935 25.321 9.872 50.64l1.159 5.946c-4.3 20.492-8.236 49.469-8.988 84.267-1.055 48.84 4.767 111.095 32.278 164.753 55.022 107.319 98.056 184.128 137.279 220.081s199.924 13.619 199.924 13.619S833.95 812.663 863.911 689.003s15.8-270.742 15.8-270.742 19.22-115.489 3.346-168.33-29.495-112.763-90.782-160.428-191.22-52.31-191.22-52.31-111.393-12.789-171.859 42.231z" fill="#d1a3a3"/><path data-name="Caminho 80" d="M581.681 460.207s14.14-18.454 30.79-17.4 30.27 8.952 36.262 16.172-12.117-32.033-12.117-32.033l-24.2-5.316-22.849 7.9z" fill="#5b4349"/><path data-name="Caminho 81" d="M403.316 531.996c19.343 19.185 49.794 32.26 67.527 32.8s54.531-4.572 69.905-14 27.012-29.8 39.047-58.251-18.036 16.685-33.384 29.487-34.211 28.7-55.558 28.378-56.209-13.637-69.828-18.42-17.709.006-17.709.006z" fill="#643b3f" opacity=".24"/><path data-name="Caminho 82" d="M651.794 484.639s15.871 46.206 38.546 56.646 31.718 10.773 52.255 9.516 47.213-7.791 57.571-15.962-45.064 3.132-45.064 3.132l-49.17-8.958z" fill="#643b3f" opacity=".24"/><path data-name="Caminho 83" d="M535.965 743.48l86.25 99.144 99.316-92.954s7.279-8.31-9.062-16.239-22.721-6.126-22.721-6.126-29.575 27.076-56.812 28.433-73.8-22.235-82.115-28.417-14.856 16.159-14.856 16.159z" fill="#5c4743"/><path data-name="Caminho 84" d="M591.833 464.095s5.2 64.893 0 80.075-7.384 12.459-17.462 15.183-17.177.544-20.435 8.716-17.372 15.794-8.409 33.227 22.734 20.7 36.549 19.614 23.194 0 28.311 3.268 23.331 1.635 29.2 0 9.484-13.1 12.738-12 14.92 8.939 26.09 2.57 15.623-11.682 16.12-25.914-2.147-19.678-12.264-26.216-16.138-6.206-18.031-11.819-12.787-17.361-14.967-34.638-6.353-78.708-6.353-78.708l-21.971-14.221-24.038 11.83z" fill="#d1a3a3"/><path data-name="Caminho 85" d="M777.829 147.231c.863 13.533-9.108 26.151-7.676 39.636 1.821 17.149 20.976 28.066 24.214 45.006 1.2 6.271.061 12.784.967 19.1 1.431 9.984 7.747 18.482 13.858 26.506 4.932 6.476 10.973 13.554 19.11 13.808 8.028.251 14.458-6.262 19.787-12.27 6.2-7 12.648-14.461 14.463-23.635 1.469-7.431-.294-15.079-2.091-22.437-6.884-28.2-14.53-56.676-29.386-81.613-11.34-19.023-30.981-42.484-53.414-48.626-33.133-9.073-.687 31.1.168 44.525z" fill="#fff" opacity=".22"/><path data-name="Caminho 86" d="M838.01 356.659c18.444.309 29.924 22.168 27.66 40.474s-13.463 34.033-21.893 50.442a178.5 178.5 0 0 0-19.543 75.264c-.094 2.789-.1 5.7 1.147 8.2 1.4 2.812 4.143 4.653 6.665 6.529a77.714 77.714 0 0 1 30.819 61.592c-.019 5.679-.582 11.747 2.266 16.66s10.909 7.067 14.042 2.33c1.242-1.875 1.355-4.253 1.431-6.5l3.434-103.118c.667-20.046 1.328-40.229-1.722-60.053-1.7-11.08-4.569-22.072-4.5-33.283.1-16.527 6.591-32.681 5.446-49.168-.786-11.32-4.54-39.306-13.935-46.257-5.696 7.106-20.064 37.076-31.317 36.888z" fill="#fff" opacity=".22"/><path data-name="Caminho 87" d="M357.534.089C297.067 55.11 255.121 115.033 258.39 195.111s4.9 112.764 4.9 112.764q4.935 25.321 9.872 50.64l1.159 5.946c-4.3 20.492-8.236 49.469-8.988 84.267-1.055 48.84 4.767 111.095 32.278 164.753C352.633 720.8 395.667 797.609 434.89 833.562s199.924 13.619 199.924 13.619 127.474-113.853 157.435-237.513 15.8-270.742 15.8-270.742 19.22-115.489 3.346-168.33S781.9 57.833 720.613 10.168s-191.22-52.31-191.22-52.31S418-54.931 357.534.089z" transform="translate(71.662 79.335)" opacity=".33" fill="url(#b)"/><path data-name="Caminho 88" d="M606.761 616.553c-9.235-13.075-16.3-13.075-21.211-19.067s-7.9-14.125-12.943-11.421-14.508 8.182-8.414 14.976 11.694 11.7 17.882 10.062 8.587-3.268 12.563 2.724 12.123 2.726 12.123 2.726z" fill="#6a3b3d" opacity=".6"/><path data-name="Caminho 89" d="M646.205 613.283c5.916 0 2.607-2.724 9.377 0s13.144 1.226 18.673-1.021 10.373-7.7 8.768-13.688-4.415-22.273-10.363-13.043-9.638 15.223-18.689 19.036-11.046 7.083-11.046 7.083-6.097 1.633 3.28 1.633z" fill="#5d4045" opacity=".6"/><path data-name="Caminho 90" d="M571.485 588.837s-4.877 0-5.287 4.5 1.584 7.375 5.287 8.488 5.337.093 9.627 1.114a42.738 42.738 0 0 0 9.173 1.628c5.287.514 10.107 3.7 4.252-.2a56.945 56.945 0 0 1-12.852-12.294c-1.678-2.412-10.2-3.236-10.2-3.236z" fill="#513434" opacity=".54"/><path data-name="Caminho 91" d="M653.227 606.281s5.926-1.509 10.419 1.759 9.6-2.042 13.074-3.064 5.206-1.507 5.516-4.9-1.24-14.885-4.085-16.024-3.381-1.507-7.107 3.988c-1.8 2.647-3.133 4.7-4.34 6.37a23.605 23.605 0 0 1-3.833 4.348c-2.684 2.29-10.542 6.534-10.542 6.534z" fill="#693c41" opacity=".54"/><path data-name="Caminho 92" d="M672.517 605.179s1.751 1.226 3.386-2.452-4.974-9.5-6.742-9.4-9.331 7.575-9.331 7.575l-7.5 4.381 3.962.088a14.088 14.088 0 0 1 5.865 1.778c3.185 1.728 4.242 3.09 7.892 1.183s2.468-3.153 2.468-3.153z" fill="#402c31" opacity=".54"/><path data-name="Caminho 93" d="M477.697 725.099c-47.955-30.649-59.4-33.1-79.823-77.225s-61.661-108.65-61.661-108.65 5.324 71.779 23.686 132.994 65.758 170.405 65.758 170.405l59.472 81.441 81.073 39.221h110.314l90.98-75.175 52.834-80.08 54.318-139.625 11.21-146.37s-11.6 7.353-26.3 41.673-50.282 86.616-50.282 86.616-8.552 43.468-25.712 52.377-43.891 93.074-43.891 93.074-17.466 53.684-79.126 64.021-117.224 5.162-124.578-17.173-58.272-117.524-58.272-117.524z" fill="#ab867f" opacity=".39"/><path data-name="Caminho 94" d="M537.02 742.387c-1.039 4.645 0 8.532 1.152 12.874a42.027 42.027 0 0 0 5.218 11.827 5.449 5.449 0 0 1-2.218-7.345q3.651 7.489 7.3 14.98l.046-8.411a48.709 48.709 0 0 1 6.993 11.266l-.054-3.33a129.122 129.122 0 0 1 10.293 14.091l.262-8.078a36.481 36.481 0 0 1 8.323 16.978 13.048 13.048 0 0 0 1.994-8.552 84.7 84.7 0 0 0 10.123 22.587l.019-7.015a49.869 49.869 0 0 0 8.353 17.133 8.078 8.078 0 0 0 1.093-8.1 81.717 81.717 0 0 0 13 18.322 11.6 11.6 0 0 1-.943-6.546 16.439 16.439 0 0 0 6.478 15.637l.547-7.359a48.625 48.625 0 0 0 1.539 11.957l6.236-6.034q.084 3.617.165 7.236a31.563 31.563 0 0 0 17.537-18.457v3.772a33.27 33.27 0 0 1 8.163-13.36q.029 2.021.056 4.045a34.466 34.466 0 0 0 4.991-9.355 17.313 17.313 0 0 1 .5 5.9 21.049 21.049 0 0 0 11.587-15.087 8.766 8.766 0 0 0 1.151 7.454q7.1-9.256 13.362-19.111l.242 6.641a24.678 24.678 0 0 0 9.646-15.464l2.661 3.544a79.929 79.929 0 0 0 8.844-18l1.848 7.054a10.911 10.911 0 0 0 6.193-12.52l2.242 8.344a35.358 35.358 0 0 0 3.381-16.655 14.232 14.232 0 0 1 3.484 7.019l3.588-13.84 2.8 4.548a20.46 20.46 0 0 0-2.424-10.565c-2.432-4.409-5.924-6.564-9.648-8.862-5.522-3.41-10.517-4.665-15.253-5.857a45.552 45.552 0 0 0-10.35-1.77 37.135 37.135 0 0 0-15.933 3.269c-20.3 8.521-35.741 15-50.117 16.069-12.933.962-25.283-3.082-49.981-11.168a286.592 286.592 0 0 1-14.845-5.311 11.423 11.423 0 0 0-5.175-1.09c-7.09.253-12.936 7.833-14.469 14.695z" fill="#664e4e"/><g data-name="Grupo 19" opacity=".11"><path data-name="Caminho 95" d="M528.207 573.295c-4.193 10.557-4.434 22.281-7.905 33.1-4.689 14.607-14.94 26.687-21.992 40.311-5.263 10.169-8.72 21.158-12.149 32.083 10.88-16.293 21.787-32.624 34.374-47.637 8.08-9.642 16.948-18.888 22.348-30.242 3.85-8.105 6.01-17.382 12.392-23.69 7.918-7.827 20.307-9.072 29.313-15.618 11.53-8.382 15.333-25.763 8.356-38.194-1.4-2.487-3.162-4.789-4.165-7.459-1.24-3.295-1.232-6.908-1.208-10.429l.163-24.485c.014-2.176-.534-5.034-2.7-5.279a4.221 4.221 0 0 0-2.864 1.141c-14.618 11.082-16.575 31.2-24.717 46.467-4.09 7.67-9.481 13.178-13.091 21.136-4.559 10.054-12.065 18.493-16.155 28.795z" fill="#94686c"/><path data-name="Caminho 96" d="M667.966 554.116c8.011 6.6 18.562 12.043 20.926 22.152.594 2.535.963 5.7 3.386 6.658 2.687 1.059 5.458-1.863 5.834-4.727s-.656-5.729-.669-8.617c-.035-7.283 6.415-13.147 13.282-15.58s14.327-2.428 21.473-3.837 14.605-4.812 17.66-11.424a118.511 118.511 0 0 1-69.318-24.613 115.874 115.874 0 0 1-13.759-12.424c-2.664-2.829-8.868-13.571-12.837-13.064-9.15 1.17-6.375 26.845-5.241 32.5 2.552 12.708 9.214 24.695 19.263 32.976z" fill="#6d5353"/><path data-name="Caminho 97" d="M631.509 558.282c-1.715 5.061-4.762 9.889-4.626 15.232a71.316 71.316 0 0 0 22.235-.158 17.6 17.6 0 0 0 7.5-2.613c2.17-1.557 3.709-4.263 3.175-6.881-.789-3.858-5.209-5.537-8.217-8.078-3.3-2.784-5.069-6.937-6.6-10.971a218.276 218.276 0 0 1-7.742-24.643c-.547-2.186-1.282-4.665-3.327-5.612-8.62-3.993-6.7 12.578-5.567 16.369 2.89 9.687 6.699 16.932 3.169 27.355z" fill="#e5dde2"/><path data-name="Caminho 98" d="M604.62 606.668c2.711 4.111 5.02 8.849 9.323 11.245 7.182 4 16.044-.358 22.773-5.082a181.236 181.236 0 0 0 28.128-24.434 12.056 12.056 0 0 0 3.109-4.634c.525-1.8.026-4.047-1.616-4.959a6.367 6.367 0 0 0-3.223-.512l-17.66.29c-4.356.072-9.028.054-12.624-2.405-1.827-1.25-3.239-3.052-5.129-4.205-2.364-1.443-5.233-1.73-7.99-1.983-4.673-.427-9.456-.846-13.994.342s-8.857 4.329-10.12 8.846a10.032 10.032 0 0 1-1.211 3.479c-3.535 4.7-15.7 1.658-5.409 9 6.074 4.331 11.476 8.693 15.643 15.012z" fill="#987472"/><path data-name="Caminho 99" d="M562.394 624c7.755 2.6 16.2 1.986 24.283.736s16.141-3.114 24.318-2.943c4.909.1 9.829.943 14.706.386a51.857 51.857 0 0 0 11.11-2.978l14.495-5.063c7.478-2.612 15.37-5.262 23.165-3.855s15.178 8.441 13.987 16.271c-.842 5.532-5.564 9.708-10.587 12.171-12.608 6.18-27.554 4.357-41.306 1.523s-27.882-6.551-41.636-3.724c-4.858 1-9.524 2.8-14.388 3.775-8.964 1.805-18.915.533-26.058-5.175-3.522-2.815-10.357-11.31-7.3-16.213 3.395-5.434 10.722 3.588 15.211 5.089z" fill="#9a726f"/><path data-name="Caminho 100" d="M721.448 639.022c9.963 13.376 23 24.983 38.738 30.491-2.986 1.035-6.337-.832-8.118-3.444s-2.4-5.815-3.164-8.881c-2.559-10.248-7.178-19.844-11.766-29.358-4.537-9.4-9.36-19.169-17.665-25.5-6.7-5.1-22.633-12.5-17.758 2.594 3.813 11.796 12.387 24.234 19.733 34.098z" fill="#b17f7c"/></g><path data-name="Caminho 101" d="M548.635 719.783c-2.109 9.073 35.24 35.514 74.767 34.32 40.661-1.227 75.231-31.443 72.317-39.631-2.239-6.289-29.023-6.452-48.211-1.226-4.935 1.344-10.621 3.386-19.611 4.085-6.689.52-15.458 1.2-24.923-2.451-3.013-1.163-4.551-2.17-8.579-3.268a50.618 50.618 0 0 0-14.3-1.634c-6.6 0-13.8 0-22.062 3.676-5.929 2.635-8.892 3.952-9.398 6.129z" fill="#9e5d67"/><path data-name="Caminho 102" d="M607.366 686.901l-41.163 14.904s-24.837 13.565-21.244 13.074 24.149-3.423 32.323-3.289 21.392 5.892 32.324 6.819 12.56.1 37.9-3.564 31.7-4.972 38.642-3.1 15.288 5.582 15.288 3.54-44.942-32.686-60.467-28.191-25.127.036-33.603-.193z" fill="#683a45"/><g data-name="Grupo 20"><path data-name="Caminho 103" d="M583.816 397.231s6.084-32.681-20.063-36.875-115.254 0-115.254 0-36.733 3.252-57.161 17.506 0 24.061 0 24.061 10.622-17.161 53.113-14.709 70.273-4.085 94.787 10.624 28.6 24.44 28.6 24.44 16.228-8.084 15.978-25.047z" fill="#705b5b"/><path data-name="Caminho 104" d="M677.332 358.49c-24.514 20.55-35.189 23.453-37.587 31.892s-4.085 19.707 4.085 23.794 48.211-24.514 77.628-32.684 90.7-11.44 90.7-11.44l29.417 16.481v-17.3s-8.988-15.525-43.308-21.244-49.845-14.709-80.9-4.085-40.035 14.586-40.035 14.586z" fill="#705b5b"/><path data-name="Caminho 105" d="M572.472 383.943a12.317 12.317 0 0 0-8.278-13.287" fill="none" stroke="#8f8067" stroke-miterlimit="10" opacity=".28"/><path data-name="Caminho 106" d="M560.435 378.519a44.691 44.691 0 0 0-6.881-9.969" fill="none" stroke="#8f8067" stroke-miterlimit="10" opacity=".28"/><path data-name="Caminho 107" d="M545.528 375.16q-12.885-6.661-25.194-14.361" fill="none" stroke="#8f8067" stroke-miterlimit="10" opacity=".28"/><path data-name="Caminho 108" d="M524.456 375.959a107.7 107.7 0 0 1-19.508-10.04" fill="none" stroke="#8f8067" stroke-miterlimit="10" opacity=".28"/><path data-name="Caminho 109" d="M548.546 358.34a16.7 16.7 0 0 0-1.162-6.527" fill="none" stroke="#8f8067" stroke-miterlimit="10" opacity=".28"/><path data-name="Caminho 110" d="M539.259 363.754a58.566 58.566 0 0 1-9.889-8.627" fill="none" stroke="#8f8067" stroke-miterlimit="10" opacity=".28"/><path data-name="Caminho 111" d="M509.817 362.211l-9.26-.558" fill="none" stroke="#8f8067" stroke-miterlimit="10" opacity=".28"/><path data-name="Caminho 112" d="M499.5 367.995a38.97 38.97 0 0 1-21.782-4.82" fill="none" stroke="#8f8067" stroke-miterlimit="10" opacity=".28"/><path data-name="Caminho 113" d="M475.496 369.245a109.808 109.808 0 0 0-19.59-8.771" fill="none" stroke="#8f8067" stroke-miterlimit="10" opacity=".28"/><path data-name="Caminho 114" d="M455.89 367.599h-16.341" fill="none" stroke="#8f8067" stroke-miterlimit="10" opacity=".28"/><path data-name="Caminho 115" d="M438.458 371.406a45.951 45.951 0 0 1-11.99-1.059" fill="none" stroke="#8f8067" stroke-miterlimit="10" opacity=".28"/><path data-name="Caminho 116" d="M449.353 364.876h-6.537" fill="none" stroke="#8f8067" stroke-miterlimit="10" opacity=".28"/><path data-name="Caminho 117" d="M537.597 376.068a19.818 19.818 0 0 1-14.525-6.982" fill="none" stroke="#8f8067" stroke-miterlimit="10" opacity=".28"/><path data-name="Caminho 118" d="M557.182 384.529l-10.766-8.873" fill="none" stroke="#8f8067" stroke-miterlimit="10" opacity=".28"/><path data-name="Caminho 119" d="M568.515 386.349a21.576 21.576 0 0 1-6.883-6.8" fill="none" stroke="#8f8067" stroke-miterlimit="10" opacity=".28"/><path data-name="Caminho 120" d="M658.647 378.012a33.109 33.109 0 0 0 4.263-13.135" fill="none" stroke="#8f8067" stroke-miterlimit="10" opacity=".28"/><path data-name="Caminho 121" d="M668.237 375.711a41.385 41.385 0 0 1 8.844-10.811" fill="none" stroke="#8f8067" stroke-miterlimit="10" opacity=".28"/><path data-name="Caminho 122" d="M687.956 374.136l7.081-9.26" fill="none" stroke="#8f8067" stroke-miterlimit="10" opacity=".28"/><path data-name="Caminho 123" d="M703.737 363.731a106.833 106.833 0 0 0 16.431-5.772" fill="none" stroke="#8f8067" stroke-miterlimit="10" opacity=".28"/><path data-name="Caminho 124" d="M731.032 362.281a102.409 102.409 0 0 1 26.639-5.189" fill="none" stroke="#8f8067" stroke-miterlimit="10" opacity=".28"/><path data-name="Caminho 125" d="M751.733 348.787a27.351 27.351 0 0 1 21.9 6.111" fill="none" stroke="#cbc08c" stroke-miterlimit="10" opacity=".28"/><path data-name="Caminho 126" d="M769.124 347.443a29.278 29.278 0 0 1 7.083 2.179" fill="none" stroke="#cbc08c" stroke-miterlimit="10" opacity=".28"/><path data-name="Caminho 127" d="M707.024 351.802h11.986" fill="none" stroke="#cbc08c" stroke-miterlimit="10" opacity=".28"/><path data-name="Caminho 128" d="M687.428 361.762a60.932 60.932 0 0 0 15.757-4.026" fill="none" stroke="#8f8067" stroke-miterlimit="10" opacity=".28"/><path data-name="Caminho 129" d="M724.999 353.436h14.708" fill="none" stroke="#cbc08c" stroke-miterlimit="10" opacity=".28"/><path data-name="Caminho 130" d="M784.465 352.122l21.657 8.512" fill="none" stroke="#cbc08c" stroke-miterlimit="10" opacity=".28"/><path data-name="Caminho 131" d="M800.161 353.457c8.7 3.336 18.244 4.6 27.3 6.847" fill="none" stroke="#cbc08c" stroke-miterlimit="10" opacity=".28"/><path data-name="Caminho 132" d="M758.231 357.793l8.716 1.09" fill="none" stroke="#8f8067" stroke-miterlimit="10" opacity=".28"/></g><path data-name="Caminho 133" d="M889.335 539.225s-13.984 3.24-13.984 14.68-8.171 58.833-8.171 58.833l-35.955 52.841v31.051s-19.065 40.866-35.953 59.11-20.155 34.587-29.417 35.677-62.647 69.344-77.9 74.439-88.8 24.707-105.683 18.169-39.223-20.7-50.117-34.864-50.455-85.146-50.455-85.146 6.329 26.858-31.8-1.469-43.641-40.313-65.129-84.437-49.749-131.5-48.557-138.884-7.719-53.654-6.124-7.23-.155 60.448 8.892 95.518 25.391 72.176 39.282 105.92 31.3 71.613 30.522 84.575 1.527 38.1 8.262 51.628 30.466 39.977 41.329 48.666 15.338 12.355 35.2 30.164 24.518 38.738 51.021 40.671 59.789 12.043 84.955 5.218 35.7 2.181 57.715-8.188 117.537-122.025 127.343-143.543 48.21-132.646 58.016-166.968.15-9.806 7.43-42.49 9.278-93.941 9.278-93.941z" fill="#5e4e48"/><path data-name="Caminho 134" d="M612.42 630.716s-9.446-8.172-34.777 5.719-49.5 14.709-65.2 35.954-17.764 39.223-31.029 49.849-27.975 18.795-39.415 15.525 22.064 10.624 22.064 10.624 33.025 6.537 48.381-9.806a108.819 108.819 0 0 1 32.515-23.7l39.467-12.178 27.989-4.983 10.6.818 13.6 7.287 26.592 3.893 27 1.439a121.939 121.939 0 0 0 44.585 17.614c26.7 4.9 58.573 15.044 78.183 4.663s22.88-25.907 22.88-25.907-35.954 10.465-50.661 3.6-55.566-49.359-83.757-60.8-42.9-23.5-51.071-22.782-27.346-.03-27.346-.03z" fill="#6f4f4c"/><path data-name="Caminho 135" d="M715.737 754.374c0-2.9 2.131-5.473.927-8.118-3.888-8.536-14.64-11.634-24.006-11.113a9.749 9.749 0 0 0-5.044 1.312c-1.675 1.151-2.543 3.12-3.721 4.775-3.456 4.86-9.553 6.953-15.29 8.582a292.9 292.9 0 0 1-38.967 8.262c-6.292.893-12.688 1.581-18.995.783-5.265-.666-10.341-2.354-15.375-4.031l-34.555-11.514c-5.109-1.7-10.621-3.417-15.78-1.872s-9.169 7.884-6.319 12.456c5.286 8.476 11.818 16.293 20.473 21.283l.733-3.1a73.1 73.1 0 0 0 2.439 9.427 5.062 5.062 0 0 0 1.229 2.258c1.269 1.138 3.386.728 4.637-.429a10.435 10.435 0 0 0 2.412-4.445c1.842 1.712 2.495 4.309 3.213 6.719s1.76 4.978 3.969 6.18 5.729-.091 5.66-2.605a32.212 32.212 0 0 0 10.179 15.735l-.915-5.372 6.2 14.461c.613 1.431 1.488 3.066 3.032 3.245 2.13.248 3.319-2.344 3.828-4.428l5.113 13.981a26.772 26.772 0 0 0 3.2-7.971l-.326 10.477a41.009 41.009 0 0 0 7.959-9.152l-.7 9.958a67.369 67.369 0 0 0 13.854-11.385l-.451 4.053a20.908 20.908 0 0 0 13.211-13.135l.174 4.466a160.359 160.359 0 0 0 14.138-15.293 12.107 12.107 0 0 1 .493 4.193 68.532 68.532 0 0 0 11.76-15.064c-.434-.419-.845.752-.274.941s1.115-.323 1.5-.784l5.06-6.068c-.811.629-.107 2.1.909 2.247a3.332 3.332 0 0 0 2.679-1.266c1.575-1.6 2.692-3.591 4.125-5.321 2.864-3.46 6.86-5.743 10.537-8.323 7.022-4.927 12.317-7.868 17.075-15.005z" fill="#896b4a" opacity=".36"/><path data-name="Caminho 136" d="M493.479 755.741c-26.695 18.789-38.133 26.416-59.924 44.935s-28.873 8.716-25.059 33.776 8.716 40.857 20.7 56.654 42.492 36.5 55.566 49.027 48.584 45.76 63.786 50.663 25.008 13.62 54.971 8.716a365.617 365.617 0 0 0 51.207-11.986s8.171 3.269 13.074 5.449 19.339 2.724 33.638-10.352 44.262-34.318 61.149-65.37 40.311-58.288 46.3-74.631-60.464-87.846-74.627-92.946 7.081 80.968-40.857 98.4-75.5 28.873-103.121 11.44-39.605-7.081-49.956-29.961-46.847-73.814-46.847-73.814z" fill="#4e4242" opacity=".93"/><path data-name="Caminho 137" d="M502.496 807.162a233.642 233.642 0 0 0-.808 97.815 32.029 32.029 0 0 0 1.6-27.189l8.4 19.983a54.1 54.1 0 0 0 3.906-13.615 99.647 99.647 0 0 0 6.623 30.652 15.818 15.818 0 0 0 7.153-15.517 58.883 58.883 0 0 0 8.017 21.318 13.145 13.145 0 0 0 5.777-15.46 29.737 29.737 0 0 0 7.863 19.839l3.212-.281a38.665 38.665 0 0 0 .29-19.005 21.625 21.625 0 0 0 9.55 17.506 34.537 34.537 0 0 0 1.514-14.884 21.672 21.672 0 0 0 15.053 14.078 35.245 35.245 0 0 0-7.606-10.653 46.166 46.166 0 0 0 16.148 12.587l-.531-10.776a41.454 41.454 0 0 0 8.153 13.21 18.739 18.739 0 0 0 4.071-12.725l-1.385 15.657a125.4 125.4 0 0 0 22.382-19.324l-5.7 16.565 19.894-15.641a85.12 85.12 0 0 0-7.135 20.177 52.782 52.782 0 0 0 24.23-17.745 43.965 43.965 0 0 0-4.853 15.816c3.965.506 7.505-2.307 10.51-4.945l19-16.677a22.047 22.047 0 0 0-2.272 14.48 99.469 99.469 0 0 0 25.2-21.56 20.476 20.476 0 0 0-1.5 8.1 43.233 43.233 0 0 0 14.216-17.226 10.024 10.024 0 0 0-1.775 7.039 11.5 11.5 0 0 0 8.217-13.507 5.008 5.008 0 0 0-3 3.873l-4.089-7.532 4.145 3.578a11.169 11.169 0 0 0 3.913-14.308 3.635 3.635 0 0 0-1.051 4.871 16.963 16.963 0 0 0 8.372-15.511 18.618 18.618 0 0 0-.469 11.008 15.782 15.782 0 0 0 7.139-12.131l-.424 8.748c3.86-3.953 5.209-9.828 4.829-15.34s-2.29-10.784-4.181-15.973c-2.928-8.035-5.871-16.1-9.92-23.634a89.421 89.421 0 0 0-17.353-22.649 144.709 144.709 0 0 1 1.552 34.166 32.468 32.468 0 0 0-1.458-11.385 99.284 99.284 0 0 0-2.9 19.71 32.311 32.311 0 0 0-6.67-11.936l-3.4 17.938-.522-5.655-11.4 13.858a26.992 26.992 0 0 1-.387-10.019 136.014 136.014 0 0 0-10.887 16.871 74.921 74.921 0 0 0 .759-16.082l-9.317 24.126a22.006 22.006 0 0 0 1-14.423 91.283 91.283 0 0 0-15.189 17.926 32.131 32.131 0 0 0 4.133-17.348l-11.819 18.682.611-11.014a41.435 41.435 0 0 0-11.946 12.92l.688-10.488a26.179 26.179 0 0 1-4.575 7.059 19.251 19.251 0 0 0-2-9.078 34.181 34.181 0 0 0-5.5 10.8l.341-12.136-6.412 15.066a29.345 29.345 0 0 0 1.274-12.022l-3.86 11.109a19.454 19.454 0 0 0-2.469-14.549 20.064 20.064 0 0 0-6.718 15.493l.555-12.584a27.8 27.8 0 0 0-3.271 11.347 21.913 21.913 0 0 0-2.772-12.389 12.718 12.718 0 0 0-.8 8.782l-2.81-12.52a35.581 35.581 0 0 0 1.373 15.38 21.621 21.621 0 0 0-8.2-18.585l.424 13.49a83.325 83.325 0 0 0-8.944-23.811 43.749 43.749 0 0 0-.122 15.685l-6.951-19.646a68.86 68.86 0 0 0 2.965 18.21 58.164 58.164 0 0 0-8.374-20.135l-.043 9.833-1.125-16.714a151.945 151.945 0 0 0-.922 26.525 117.066 117.066 0 0 0-6.449-28.239 102.873 102.873 0 0 1-.739 15.615l-5.209-18.281a48.012 48.012 0 0 0 2.181 19.42 196.356 196.356 0 0 1-9.9-35.538l.483 26.034a104.678 104.678 0 0 1-4.517-27.09l-.334 19.927-6.95-24.162a64.792 64.792 0 0 0-4.122 19.046l-1.076-24.241-5.606 16.036-1.712-21.581a90.15 90.15 0 0 0-5.247 32q-.348-16.442.487-32.883a126.5 126.5 0 0 0-2.535 26.029 82.727 82.727 0 0 1-4.279-28.759l-4.01 29.338" fill="#5d4e4e"/><path data-name="Caminho 138" d="M834.557 722.53c13.763-19.643 33.491-35.09 40.266-59.254 6.111-21.789.637-45.067 2.693-67.6a2.672 2.672 0 0 1 .984-2.223c1.107-.615 2.375.554 2.92 1.7 2.213 4.615.576 10.027-.286 15.072-1.856 10.856.122 21.981-.309 32.985a75.615 75.615 0 0 1-7.235 29.4c-2.477 5.217-5.551 10.142-7.832 15.447-2.623 6.1-4.152 12.61-6.188 18.932-6.6 20.5-18.452 38.884-26.821 58.731-8.22 19.487-13.5 41.094-28.077 56.422-1.216 1.279-2.655 2.58-4.417 2.677-2.093.115-3.842-1.483-5.3-2.994a204.026 204.026 0 0 1-25.035-31.795 176.185 176.185 0 0 1 18.472-25.032 13.7 13.7 0 0 0-.094 4.578l10.734-11.707a5.145 5.145 0 0 1 2.872-1.949c1.173-.152 2.511 1 2.052 2.09a31.735 31.735 0 0 1 13.367-19.7l.229 5.5c5.678-8.22 9.006-17.852 14.114-26 .552.488 3.433 3.946 2.891 4.72z" fill="#504444"/><path data-name="Caminho 139" d="M354.818 634.956v-6.4l2.532 15.623a25.764 25.764 0 0 1 2.071 10.909l.755-4.724 2.773 6.078a3.939 3.939 0 0 0 1.413-3.269l3.61 13.642 1.143-2.8 2.853 12.422a22.966 22.966 0 0 0 4.586-6.551l-.192 13.194a12.814 12.814 0 0 0 2.84-4.738l-.262 15.261a3.194 3.194 0 0 0 4.1-.792l6.838 35.717a10.958 10.958 0 0 0 4.506-6.361 40.37 40.37 0 0 0 3.568 18.844 4.78 4.78 0 0 0 1.858-4.053 22.214 22.214 0 0 0 2.277 8.987 4.813 4.813 0 0 0 2.144-3.948l1.65 10.117a5.964 5.964 0 0 0 6.106-4.5 56.522 56.522 0 0 0 7.975 27.052c.3.5.7 1.047 1.28 1.05s.882-1.026.309-1.107l.309 8.231a10.476 10.476 0 0 0 9.1-6.846l-.064 7.513a6.486 6.486 0 0 0 2.314-3.429l4.4 11.581a10.124 10.124 0 0 0 5.434-5.433 27.3 27.3 0 0 0-.576 10.318 2.262 2.262 0 0 0 1.466-2.751 8.93 8.93 0 0 0-2.381 6.174c-.307-.989-1.747-1.167-2.61-.6a6.132 6.132 0 0 0-1.779 2.5c-3.757 7.3-11.61 11.386-18.98 15.01a20.166 20.166 0 0 1-12.936-16.847c-.339-3.964.008-8.968-3.525-10.793a7.011 7.011 0 0 1-1.888-1.034c-1.071-1.072-.6-2.844-.589-4.359.027-2.805-1.736-5.26-3.223-7.639a47.579 47.579 0 0 1-6.956-20.393 14.046 14.046 0 0 0-.794-4.207 18.017 18.017 0 0 0-2.656-3.741c-3.372-4.317-4.716-9.82-6.31-15.061-9.507-31.255-30.535-58.5-36.9-90.542-1-5.036-1.637-10.184-3.445-14.988-1.087-2.887-2.581-5.606-3.712-8.475a36.87 36.87 0 0 1 3.021-32.579c.941-1.482 4.425 8.027 4.359 9.094 5.958-7.161 5.393 8.649 5.6 11.168.446-.491 1.117-.931 1.6-1.509a291.674 291.674 0 0 0 4.988 29.984z" fill="#504444"/><path data-name="Caminho 141" d="M341.958 436.213a14.065 14.065 0 0 0-15.136 4.577c-6.687 7.743-16.191 21.824-11.264 45.408s21.2 48.246 21.344 56.668.485-26.7.485-26.7l2.33-31.524 3.647-26.895 2.623-13.947-1.159-5.946z" fill="#b69194"/><path data-name="Caminho 142" d="M880.057 422.274s18.718.074 19.127 14.373-5.313 30.234-5.313 43.308 4.9 29.417 1.226 37.587-7.006 20.478-9.8 20.428l-2.8-.05.555-37.949-.7-36.81-2.293-31.419z" fill="#daafad"/><path data-name="Caminho 143" d="M339.312 477.368c-3.055-6.462-4.69-10.542-5.934-13.093-1.64-3.362-2.6-4.068-5.233-4.068-4.631 0-8.172 8.172-7.355 14.163s-3.813 17.62-3.813 17.62l13.748 34.051 5.484 13.184.648-12.831 1.623-25.08 1.931-21.841z" fill="#905a59"/><path data-name="Caminho 144" d="M328.696 471.647c-1.368 8.716-1.291 8.393-1.875 18.225s-3.025 9.29 1.875 16.09a67.982 67.982 0 0 0 8.689 10.2l1.384-18.1 1.645-18.594-7.036-15.2s-1.346-4.884-3.29-1.071a16.733 16.733 0 0 0-1.392 8.45z" fill="#604843"/><path data-name="Caminho 145" d="M897.277 451.764c-3.813-5.447-4.493-7.491-6.809-5.585s-1.635-1.77-4.223-5.447a63.668 63.668 0 0 0-5.326-6.545l-.862-11.914 2.272.157 8.873 2.416 5.265 4.057 2.189 4.234.549 9.366z" fill="#e2c4c5"/><path data-name="Caminho 146" d="M894.398 472.342s-.935 3.253-3.794-4.645-3.133-22.744-3.133-22.744l1.864 1.733 2.746-1.187 3.024 3.084 2.693 3.9-2.712 15.119z" fill="#d59d99"/><path data-name="Caminho 147" d="M597.254 71.798c-16.343 6.537-18.794 12.258-39.223 8.988s-31.051-4.772-46.576-4.02-36.771 14.642-53.93 22.814-22.88 7.353-35.955 16.341-34.319 21.247-39.222 35.957-17.977 49.027-17.161 62.919 4.9 28.6 4.087 42.49-4.9 29.417-8.172 41.673-17.159 56.382-15.117 65.372-5.57 19.611-5.57 19.611l-5.46 3.268s-6.6-66.207-4.866-107.861 12.22-121.753 53.893-165.882 39.223-63.615 98.872-77.567 55.566-18.033 55.566-18.033 16.343-8.988 31.051-13.074 26.368-2.452 37.29-4.087 26.447-.816 47.691 6.538 27.783 2.45 49.029 13.89 39.221 17.977 47.394 22.064 26.148 11.44 35.954 17.159 32.684 20.428 40.857 26.965 5.532 35.059 5.217 43.678 11.773 8.7 24.771 43.307 25.7 60.027 28.543 89.431 1.378 89.622 0 102.913-10.321-10.493-10.321-26.018-.816-49.845-8.171-82.529-11.44-56.384-26.965-81.713-15.526-50.459-58.017-70.989-35.954-20.535-64.554-20.535-31.868-4.9-51.479-8.988-20.428-7.355-39.223-8.171-30.233 4.089-30.233 4.089z" fill="#48352a"/><g data-name="Grupo 21" opacity=".32" fill="#1c0e12"><path data-name="Caminho 148" d="M572.628 437.02l-21.952 3.3s-90.972 9.63-107.589-.088-61.062-30.073-61.062-30.073-31.2-19.524 15.613-21.236 93.216-6.366 93.216-6.366 94.089 14.664 93.3 26-11.526 28.463-11.526 28.463z" opacity=".38"/><path data-name="Caminho 149" d="M648.732 444.954c-4.9-5.447-15.525-17.7-4.9-30.779s44.824-28.081 56.108-28.657 62.112-14.65 62.112-14.65l50.107-.818 31 17.545 14.684 35.637-13.05 17.977s-14.716-14.607-84.552-14.282-111.509 18.027-111.509 18.027z" opacity=".38"/></g><path data-name="Caminho 150" d="M550.677 440.324c-1.026 2.492-6.865.917-16.751 2.042-13.154 1.5-14.027 5.567-27.781 8.58a74.034 74.034 0 0 1-30.642.408c-13.469-2.794-19.465-8.345-21.654-10.622-2.6-2.706-5.724-5.951-5.311-9.8.73-6.822 12-10.571 18.967-12.89a77.833 77.833 0 0 1 25.157-3.863c7.555.029 26 .325 43.716 11.44 6.179 3.87 15.728 11.234 14.299 14.705z" fill="#f4f4f4"/><path data-name="Caminho 152" d="M392.116 209.4a22.873 22.873 0 0 0-5.4-14.788 96.49 96.49 0 0 0-18.5-1.658 81.322 81.322 0 0 0-16.605 1.6 22.952 22.952 0 0 0 11.229 36.936 76.841 76.841 0 0 0 15.733-1.149 22.968 22.968 0 0 0 13.543-20.941z" transform="translate(124.446 221.218)" fill="url(#a)"/><circle data-name="Elipse 4" cx="10.589" cy="10.589" r="10.589" transform="translate(482.992 420.032)" fill="#2e2e2d"/><circle data-name="Elipse 5" cx="5.294" cy="5.294" r="5.294" transform="translate(501.854 420.032)" fill="#f4f4f4"/><circle data-name="Elipse 6" cx="3.715" cy="3.715" r="3.715" transform="translate(477.698 421.632)" fill="#f4f4f4"/><path data-name="Caminho 153" d="M687.417 441.924c1.026 2.492 6.867.917 16.751 2.042 13.154 1.5 14.027 5.567 27.783 8.58a74.037 74.037 0 0 0 30.643.408c13.467-2.794 19.463-8.345 21.654-10.622 2.6-2.706 5.724-5.951 5.311-9.8-.731-6.822-12-10.571-18.969-12.89a77.833 77.833 0 0 0-25.157-3.863c-7.555.029-26 .325-43.716 11.44-6.174 3.87-15.729 11.234-14.3 14.705z" fill="#f4f4f4"/><path data-name="Caminho 154" d="M502.965 210.4a22.873 22.873 0 0 1 5.4-14.788 96.5 96.5 0 0 1 18.5-1.658 81.326 81.326 0 0 1 16.607 1.6 22.951 22.951 0 0 1-11.23 36.936 76.817 76.817 0 0 1-15.732-1.149 22.966 22.966 0 0 1-13.545-20.941z" transform="translate(218.567 221.818)" fill="url(#c)"/><circle data-name="Elipse 7" cx="10.589" cy="10.589" r="10.589" transform="translate(733.925 421.632)" fill="#2e2e2d"/><circle data-name="Elipse 8" cx="5.294" cy="5.294" r="5.294" transform="translate(749.655 421.632)" fill="#f4f4f4"/><circle data-name="Elipse 9" cx="3.715" cy="3.715" r="3.715" transform="translate(727.363 423.232)" fill="#f4f4f4"/><path data-name="Caminho 155" d="M627.896 341.345c-.759 5.164-1.72 10.3-2.176 15.5a89.228 89.228 0 0 0 1.255 23.938c.238 1.3.774 2.869 2.083 3.06q3.574-37.951 7.15-75.9c.606-6.431 2.423-18.482-3-22.912-5.353 3.732-2.578 19.289-2.791 25.7a272.6 272.6 0 0 1-2.521 30.614z" fill="#7c5a59" opacity=".18"/><path data-name="Caminho 156" d="M584.502 376.728c3.733-13 3.22-26.789 4.841-40.217 1.458-12.069 4.789-24.026 5.066-36.222.066-2.9 1.44-10.936-3.383-11.03-3.956-.077-2.426 10.376-2.583 13.263-.68 12.406-2.248 24.744-3.3 37.122-.923 10.92 2.268 26.955-.641 37.084z" fill="#9f8784" opacity=".18"/><path data-name="Caminho 157" d="M526.491 618.17c-5.431 8.74-12.466 16.353-18.707 24.534a163.068 163.068 0 0 0-30.351 67.841c2.005-22.213 17.084-40.717 31.06-58.1 7.353-9.144 32.886-38.083 25.3-50.672a71.775 71.775 0 0 1-7.302 16.397z" fill="#ab7f7c" opacity=".46"/><path data-name="Caminho 158" d="M733.927 640.074c11.451 14 24.4 26.952 33.568 42.547-6.551 2.075-12.619-4-16.831-9.428l-16.721-21.573a163.811 163.811 0 0 1-9.833-13.623c-4.068-6.534-17.537-29.574-12.5-36.178a143.988 143.988 0 0 0 22.317 38.255z" fill="#98888d" opacity=".26"/><path data-name="Caminho 159" d="M398.228 499.716s-8.8 23.683 41.593 34.305 83.146 9.3 95.366-2.026 19.779-36.118 19.779-36.118-29.508 42.775-73.552 39.506-55.902-4.967-83.186-35.667z" fill="#382e36"/><path data-name="Caminho 160" d="M682.747 499.716s23.411 29.738 67.782 27.5 54.366-7.8 70.8-19.7-8.081 16.973-8.081 16.973l-33.23 13.482-30.362 1.255-53.766-12.558-17.74-20.7z" fill="#605b57"/><g data-name="Grupo 22" fill="none" stroke="#8f8067" stroke-miterlimit="10"><path data-name="Caminho 161" d="M557.234 62.019c0 3.437.656 7.785 3.973 8.684.835-8.268 7.663-42.282-3.613-41.959-1.19 10.875-.369 22.286-.36 33.275z"/><path data-name="Caminho 162" d="M572.503 32.357l2.338 30.034c2.6-8.964 5.217-18.082 5.151-27.415-.05-7.052-1.658-18.468-8.708-21.187-1.447 5.059.744 12.451 1.219 18.568z"/><path data-name="Caminho 163" d="M587.492 56.186c2.128-15.1 5.922-32.241 4.364-47.4-4.193 14.663-2.197 32.051-4.364 47.4z"/><path data-name="Caminho 164" d="M600.662 2.739l1.043 48.016 2.825-39.46"/><path data-name="Caminho 165" d="M613.735 8.885a445.585 445.585 0 0 0 .648 45.441 95.758 95.758 0 0 0 3.719-42.939"/><path data-name="Caminho 166" d="M632.212 8.89l-2.295 45.712a308.132 308.132 0 0 0 .717-38.362"/><path data-name="Caminho 167" d="M650.275 7.938l-11.224 46.849c3.807-12.528 7.691-25.226 14.671-36.3-.67 12.086 1.627 27.993-1.8 39.6q10.007-19.863 18.543-40.426"/><path data-name="Caminho 168" d="M676.106 32.163l-10.217 26.971c12.683-3.693 20.359-19.321 15.53-31.615-1.091-1.122-2.664.787-3.042 2.306l-4.613 18.57"/><path data-name="Caminho 169" d="M684.686 68.938l15.933-39.225"/><path data-name="Caminho 170" d="M705.52 60.357a143.577 143.577 0 0 1 12.262-29.414"/><path data-name="Caminho 171" d="M714.226 65.394a139.12 139.12 0 0 0 17-18.545"/><path data-name="Caminho 172" d="M724.41 78.083a72.508 72.508 0 0 0 20.136-30.052"/><path data-name="Caminho 173" d="M742.432 74.066a45.712 45.712 0 0 0 18.354-21.016"/><path data-name="Caminho 174" d="M754.667 83.767a301.9 301.9 0 0 0 31.766-35.654"/><path data-name="Caminho 175" d="M770.738 92.739c-.775 0-.739 1.36-.018 1.64a2.525 2.525 0 0 0 2.159-.558 114.476 114.476 0 0 0 24.618-21.161"/><path data-name="Caminho 176" d="M541.982 68.598a84.193 84.193 0 0 1-8.19-42.569"/><path data-name="Caminho 177" d="M531.442 64.037c-.878 1.271-2.9 1.218-4.13.285a7.923 7.923 0 0 1-2.349-3.91 62.043 62.043 0 0 1-3.244-24.568"/><path data-name="Caminho 178" d="M511.863 68.938v-34.32"/><path data-name="Caminho 179" d="M498.242 70.286a40.254 40.254 0 0 1-9.784-29.548"/><path data-name="Caminho 180" d="M473.614 37.16a48.58 48.58 0 0 0 14.236 38.653c-13.7-5.036-30.441-14.325-30.835-28.913"/><path data-name="Caminho 181" d="M465.478 83.222a41.968 41.968 0 0 1-23.435-28.73"/><path data-name="Caminho 182" d="M449.391 90.914a52.883 52.883 0 0 1-26.2-25.451"/><path data-name="Caminho 183" d="M435.892 97.525a25.869 25.869 0 0 1-25.311-17.694"/><path data-name="Caminho 184" d="M422.406 111.989c-10.353 1.258-20.683-8.1-20.448-18.527"/><path data-name="Caminho 185" d="M408.933 120.305a27.987 27.987 0 0 1-17.905-14.231"/><path data-name="Caminho 186" d="M806.88 122.039c3.714 2.919 9.235-.864 11.024-5.234s1.858-9.494 4.653-13.3c2.21 12.042 4.177 22.174-1.647 32.94 2.043-8.579 10.04-18.479 12.083-27.06"/><path data-name="Caminho 187" d="M355.959 230.453l-13.163 11.4"/><path data-name="Caminho 188" d="M353.826 246.736a159.985 159.985 0 0 0-13.888 16.855"/><path data-name="Caminho 189" d="M350.388 271.378l-11.445 18.124"/><path data-name="Caminho 190" d="M351.767 291.058a107.508 107.508 0 0 1-15.26 20.491"/><path data-name="Caminho 191" d="M361.272 202.795l-23.565 15.516"/><path data-name="Caminho 192" d="M354.82 190.042l-9.728 6.249"/><path data-name="Caminho 193" d="M369.667 164.514l-13.309 7.66"/><path data-name="Caminho 194" d="M373.336 153.431l-8.574 2.471"/><path data-name="Caminho 195" d="M835.451 162.13a34.3 34.3 0 0 1 18.43 3.543"/><path data-name="Caminho 196" d="M845.009 178.561a213.872 213.872 0 0 0 23.582 9.11"/><path data-name="Caminho 197" d="M859.471 199.3a31.888 31.888 0 0 0 14.063 9.081"/><path data-name="Caminho 198" d="M863.645 220.895a97.874 97.874 0 0 1 20.819 7.406"/><path data-name="Caminho 199" d="M868.541 242.987l8.579 3.677"/><path data-name="Caminho 200" d="M868.565 267.626a25.239 25.239 0 0 1 19.783 4.514"/><path data-name="Caminho 201" d="M870.761 281.335a36.535 36.535 0 0 0 14.959 5.646"/><path data-name="Caminho 202" d="M874.819 303.955l13.389 6.326"/><path data-name="Caminho 203" d="M878.408 324.84a14.6 14.6 0 0 1 9.68 7.654"/><path data-name="Caminho 204" d="M874.76 342.034l9.774 3.759"/><path data-name="Caminho 205" d="M867.314 233.147a48.328 48.328 0 0 1 15.921 2.53"/><path data-name="Caminho 206" d="M862.414 213.554a34.169 34.169 0 0 1 13.477 4.924"/><path data-name="Caminho 207" d="M848.965 188.913l9.8 2.474"/><path data-name="Caminho 208" d="M844.029 169.457a8.528 8.528 0 0 1 7.355 2.436"/><path data-name="Caminho 209" d="M789.128 103.505q10.847-11.262 20.532-23.573"/></g><path data-name="Caminho 210" d="M587.602 641.818a294.421 294.421 0 0 0-16.113 39.82 66.219 66.219 0 0 1 13.655-24.52 116.7 116.7 0 0 1-2.271 25.73 40.633 40.633 0 0 1 6.122-14.876 97.576 97.576 0 0 1-.389 15.962 22.675 22.675 0 0 0 11.952-13.642 77.453 77.453 0 0 0-1.562 14.487c-.776-11.626-1.174-24.507 6.233-33.5l1.586 12.765a33.836 33.836 0 0 0 4.362-15.4l2.128 6.362c.911-4.644 1.767-9.708-.414-13.909s-8.8-6.19-11.653-2.41l2.351-8.83-17.172 13.175c-.883.677-.21 2.77.186 1.728" fill="#988280" opacity=".07"/><path data-name="Caminho 211" d="M652.816 682.856l3.394-22.641a79.491 79.491 0 0 0 7.839 20.1 29.274 29.274 0 0 0 .72-13.634 24.873 24.873 0 0 0 6.775 12.566 29.291 29.291 0 0 0-3.093-22.193c-2.05-3.556-12.886-16.153-11.344-7.494a21.217 21.217 0 0 0-10.037-14.991c-.206 10.585-3.632 23.757-10.457 31.961.469-5.47 2.279-11.176 3.911-16.522 1.267 6.353 3.6 12.781 8.073 17.445a15.249 15.249 0 0 0 .757-3.373c1.081 5.163 4.245 13.572 3.462 18.776z" fill="#604946"/><path data-name="Caminho 212" d="M690.685 672.342a60.111 60.111 0 0 0 4.431 27.985 13.08 13.08 0 0 0 4.175-11.85l4.153 18.651a71.108 71.108 0 0 0 3.544-14.066 6.914 6.914 0 0 0 3.272 1.407 11.813 11.813 0 0 0 1.013-6.959q9.085 5.686 17.825 11.894l-5.45-1.44 6.4 9.483c-.867-1.333 1.072-3.031 2.605-2.61s2.458 1.933 3.282 3.293 1.89 2.824 3.468 3.028c.469-5.173-.576-10.625-3.7-14.776-3.445-4.581-8.908-7.067-13.754-10.129s-9.589-7.524-9.883-13.248a32.65 32.65 0 0 0-2.186 11.744c-5.433-3.4-12.549-12.7-19.209-9.048-5.9 3.239-4.237 15.652-3.62 20.916 1.286-7.726 3.634-16.447 3.634-24.275z" fill="#988280" opacity=".07"/><g data-name="Grupo 23" fill="#635853"><path data-name="Caminho 213" d="M690.211 739.067c-.053-.635 1.013-.328 1.387.19a111.8 111.8 0 0 1 10.513 17.846"/><path data-name="Caminho 214" d="M683.022 753.851a41.078 41.078 0 0 1 7.318 17.926"/><path data-name="Caminho 215" d="M668.266 759.876a51.543 51.543 0 0 1 7.948 18.964"/><path data-name="Caminho 216" d="M654.18 772.351v22.336"/><path data-name="Caminho 217" d="M641.052 780.531a50.882 50.882 0 0 1-3.175 23.434"/><path data-name="Caminho 218" d="M623.554 785.435a64.68 64.68 0 0 1-4.153 28.351"/><path data-name="Caminho 219" d="M612.47 785.431a56.247 56.247 0 0 1-7.391 26.645"/><path data-name="Caminho 220" d="M600.272 780.531a73.841 73.841 0 0 1-4.394 14.154"/><path data-name="Caminho 221" d="M588.265 772.351v15.253"/><path data-name="Caminho 222" d="M578.459 768.534l-3.269 12.53"/><path data-name="Caminho 223" d="M567.565 752.195v19.067"/><path data-name="Caminho 224" d="M553.936 745.66a50.106 50.106 0 0 0 2.192 12.526"/><path data-name="Caminho 225" d="M570.886 755.456a98.038 98.038 0 0 0 3.485 15.348"/><path data-name="Caminho 226" d="M587.673 755.474a29.758 29.758 0 0 0 5.51 11.963"/><path data-name="Caminho 227" d="M608.42 760.369l3.269 10.894"/><path data-name="Caminho 228" d="M621.518 763.628a51.129 51.129 0 0 0 5.407 12"/><path data-name="Caminho 229" d="M640.562 765.812v13.074"/></g><path data-name="Caminho 230" d="M423.702 812.353c-4.506 1.69-8.049 5.361-10.489 9.507s-3.9 8.785-5.31 13.386c-.752 2.447-1.493 5.119-.579 7.511s4.287 3.916 6.124 2.131" fill="none" stroke="#8f8067" stroke-miterlimit="10"/><path data-name="Caminho 231" d="M419.769 829.424a49.426 49.426 0 0 0-9.628 34.445" fill="none" stroke="#8f8067" stroke-miterlimit="10"/><path data-name="Caminho 232" d="M422.148 843.754a45.941 45.941 0 0 0-10.857 14.948c-1.3 2.882-2.319 6.132-1.456 9.174s4.293 5.508 7.214 4.293" fill="none" stroke="#8f8067" stroke-miterlimit="10"/><path data-name="Caminho 233" d="M421.813 853.968a41.457 41.457 0 0 0-.878 22.99c.656 2.631 3.216 3.788 4.183 6.614" fill="none" stroke="#8f8067" stroke-miterlimit="10"/><path data-name="Caminho 234" d="M435.77 854.622a98.343 98.343 0 0 0-5.628 26.2c-.258 3.442-.162 7.345 2.335 9.728" fill="none" stroke="#8f8067" stroke-miterlimit="10"/><path data-name="Caminho 235" d="M430.92 858.513a24.113 24.113 0 0 0-5.566 15.973 47.652 47.652 0 0 0 1.581 9.6l2.341 9.95" fill="none" stroke="#8f8067" stroke-miterlimit="10"/><path data-name="Caminho 236" d="M438.679 871.01a42.691 42.691 0 0 0 2.45 28.916c.318.682 1.08 1.472 1.669 1" fill="none" stroke="#8f8067" stroke-miterlimit="10"/><path data-name="Caminho 237" d="M446.687 875.869a96.15 96.15 0 0 0-1.608 37.56" fill="none" stroke="#8f8067" stroke-miterlimit="10"/><path data-name="Caminho 238" d="M436.69 908.091a113.78 113.78 0 0 0 13.755 15.7" fill="none" stroke="#8f8067" stroke-miterlimit="10"/><path data-name="Caminho 239" d="M438.028 901.407c1.469 4.479 2.988 9.054 5.879 12.776 5.393 6.942 14.925 7.964 23.4 10.3a65.231 65.231 0 0 1-16.205-5.281" fill="none" stroke="#8f8067" stroke-miterlimit="10"/><path data-name="Caminho 240" d="M432.495 891.906c-3.847 10.816 3.421 22.648 12.536 29.623s20.214 11.118 28.945 18.569c5.99 5.111 10.641 11.592 16.2 17.172s12.5 10.43 20.366 10.88" fill="none" stroke="#8f8067" stroke-miterlimit="10"/><path data-name="Caminho 241" d="M457.527 921.622c13.5 9.848 23.55 23.582 35.161 35.6 2.16 2.235 4.82 4.583 7.915 4.282" fill="none" stroke="#8f8067" stroke-miterlimit="10"/><path data-name="Caminho 242" d="M484.607 929.077a90.259 90.259 0 0 0 56.924 50.972" fill="none" stroke="#8f8067" stroke-miterlimit="10"/><path data-name="Caminho 243" d="M682.911 934.681c-.72 13.949-9.812 25.821-15.612 38.528a8.867 8.867 0 0 0 2.08-4.212" fill="none" stroke="#8f8067" stroke-miterlimit="10"/><path data-name="Caminho 244" d="M657.809 942.353a29.556 29.556 0 0 1-4.157 10.7c-6.8 11.339-17.785 19.425-28.479 27.2" fill="none" stroke="#8f8067" stroke-miterlimit="10"/><path data-name="Caminho 245" d="M637.307 943.419a165.99 165.99 0 0 0-24.414 31.1" fill="none" stroke="#8f8067" stroke-miterlimit="10"/><path data-name="Caminho 246" d="M592.816 949.391c-1.691 7.369-6.538 13.711-12.349 18.55s-12.584 8.356-19.3 11.834" fill="none" stroke="#8f8067" stroke-miterlimit="10"/><path data-name="Caminho 247" d="M579.061 949.447l-17.735 18.966c-2.876 3.076-5.954 6.713-5.534 10.9" fill="none" stroke="#8f8067" stroke-miterlimit="10"/><path data-name="Caminho 248" d="M537.752 936.408a86.1 86.1 0 0 0-9.286 24.887" fill="none" stroke="#8f8067" stroke-miterlimit="10"/><path data-name="Caminho 249" d="M520.438 933.916a47.185 47.185 0 0 0-10.261 24.173" fill="none" stroke="#8f8067" stroke-miterlimit="10"/><path data-name="Caminho 250" d="M499.475 922.704v18.521" fill="none" stroke="#8f8067" stroke-miterlimit="10"/><path data-name="Caminho 251" d="M735.34 756.016a27.643 27.643 0 0 1 5.462 11.976" fill="none" stroke="#21160f" stroke-miterlimit="10"/><path data-name="Caminho 252" d="M742.595 756.92a16.508 16.508 0 0 1 5.238 11.619" fill="none" stroke="#21160f" stroke-miterlimit="10"/><g data-name="Grupo 24" opacity=".43" fill="#564949"><path data-name="Caminho 253" d="M525.959 875.816c.722 5.486 1.778 11.24 5.362 15.455l-.866-18.31 1.357 6.025a57.029 57.029 0 0 0 .683-15.293 56.843 56.843 0 0 0 5.223 10.976 244.212 244.212 0 0 0-5.5-27.913l-7.921 20.574c.085-5.718.582-11.678.118-17.34-1.403 8.044.48 17.743 1.544 25.826z"/><path data-name="Caminho 254" d="M673.792 887.838l6.6-14.844-4.387 25.682a55.436 55.436 0 0 0 7.151-17.1l-.232 11.4a52.041 52.041 0 0 1 6.921-18.538 6.843 6.843 0 0 1-2.317 4.6l-2.026-.338a71.511 71.511 0 0 1 1.306-19.4l.056 9.657.253-9.652a40.618 40.618 0 0 0-9.526 15.829"/><path data-name="Caminho 255" d="M716.24 851.335a115.751 115.751 0 0 1-6.958 25.642"/><path data-name="Caminho 256" d="M708.656 860.061l-5.449 21.244"/><path data-name="Caminho 257" d="M653.045 879.121a65.012 65.012 0 0 1-4.306 19.617"/><path data-name="Caminho 258" d="M630.751 884.568q-8.38 13.744-17.967 26.7"/><path data-name="Caminho 259" d="M598.07 888.386l-3.813 17.431"/><path data-name="Caminho 260" d="M557.759 879.668v19.611"/><path data-name="Caminho 261" d="M507.65 826.283l-1.088 34.318"/><path data-name="Caminho 262" d="M482.036 822.468v24.515"/><path data-name="Caminho 263" d="M466.768 772.321a156 156 0 0 0-25.9 18.354 17.493 17.493 0 0 0 7.831-3.138 35.378 35.378 0 0 1-9.068 10.933 7.292 7.292 0 0 0 5.82-1.528l-5.236 8.524a11.725 11.725 0 0 0 5.591-4.3 43.28 43.28 0 0 1-1.491 12.112l4.724-8.387a67.867 67.867 0 0 0-2.557 15.428 25.143 25.143 0 0 0 6.631-7.905l-1.2 17.05 3.229-8.884.462 13.85a15.15 15.15 0 0 0 3.605-7.9l.013 18.266 1.479-3.537a17.134 17.134 0 0 0 2.482 11.9l1.4-9.563c-.218 3.72 3.087 7.014 5.322 10-3.929-18.022.51-36.693 4.93-54.6"/><path data-name="Caminho 264" d="M459.268 809.354c-1.1-3.359.869-6.9 2.972-9.747a68.718 68.718 0 0 1 19.579-17.847c-2.885-.755-8.9-.672-11.5.792a90.311 90.311 0 0 0-24.642 20.42"/><path data-name="Caminho 265" d="M483.36 794.247q-8.341 18.559-14.879 37.864"/><path data-name="Caminho 266" d="M828.824 727.51a51.179 51.179 0 0 1-10.531 16.417c2.914-1.981 2.62-6.292 2-9.761l-2.944 12.15a12.242 12.242 0 0 0-.72-6.558 36.1 36.1 0 0 0-5.735 9.352l.661-2.727-6.487 12.307 1.159-4.957a32.529 32.529 0 0 0-7.145 8.246l.7-2.887a50.894 50.894 0 0 0-9.1 10.925l1.338-6.315-14.268 19.751"/><path data-name="Caminho 267" d="M752.383 767.806c-.237-.509.792-.37 1.095.1a187.266 187.266 0 0 1 14.26 26.6c3.112 7.153 2.515 14.068 5.071 21.187-.987-2.647-1.957-5.3-2.932-7.951a33.113 33.113 0 0 0-1.147 12.784 16.216 16.216 0 0 0-3.781-8.31 14.523 14.523 0 0 0 .787 7.358c.347.216.3-.669-.1-.558s-.459.635-.446 1.045l.242 8.126q-1.575-10.053-4.1-19.924l.029 14.448q-1.673-8.879-4.217-17.562a43.267 43.267 0 0 0-1.194 10.865 84.941 84.941 0 0 0-.49-16.991 5.924 5.924 0 0 0-.515 3.359l-.141-7.783a19.777 19.777 0 0 0-2.087 8.057 41.805 41.805 0 0 0-.941-13.351 9.338 9.338 0 0 0-2.717 6.689l-4-5.389-2.944-2.591c.125 1.579-2.389 1.877-3.631.9-3.116-2.458-2.735-7.875-1.506-11.157.15 3.044.13 6.11.158 9.163a92.455 92.455 0 0 0 1.607-20.856 153.819 153.819 0 0 0 6.1 23.237 35.631 35.631 0 0 0-.014-21.129 50.845 50.845 0 0 0 11.053 21.979 65.421 65.421 0 0 0-2.8-10.763 103.485 103.485 0 0 0 9.689 18.431 15.683 15.683 0 0 0-.877-5.237 76.891 76.891 0 0 0 6.479 11.89 11.015 11.015 0 0 0-.57-4.418l2.2 6.847"/><path data-name="Caminho 268" d="M745.146 820.294a103.457 103.457 0 0 1 8.8 28.009l-1.162.856"/><path data-name="Caminho 269" d="M761.493 842.623a35.1 35.1 0 0 1 1.1 9.8"/><path data-name="Caminho 270" d="M772.378 816.479a187.567 187.567 0 0 1 2.21 22.333"/><path data-name="Caminho 271" d="M780.536 811.579a131.043 131.043 0 0 1 3.97 15.22"/><path data-name="Caminho 272" d="M780.634 781.564l15.745 22.373"/><path data-name="Caminho 273" d="M789.88 775.062a57.91 57.91 0 0 0 10.787 21.845"/><path data-name="Caminho 274" d="M802.42 771.263l-.286 23.426a37.4 37.4 0 0 0 4.023-5.461"/><path data-name="Caminho 275" d="M813.31 766.899l1.643 20.155"/><path data-name="Caminho 276" d="M820.874 766.36l.546 14.164"/><path data-name="Caminho 277" d="M830.68 747.838v14.709"/><path data-name="Caminho 278" d="M834.658 733.095a71.413 71.413 0 0 1 1.44 16.921"/><path data-name="Caminho 279" d="M735.927 777.262c-2.452 9.845-5.5 19.931-5.457 30.039 0 1.455.634 3.463 2.06 3.18"/><path data-name="Caminho 280" d="M730.218 752.099c-2.167 5.013-1 8.209-.248 13.168 1 6.59-.008 13.6-1.373 20.115"/><path data-name="Caminho 281" d="M492.953 757.605c-5.031 1.112-9.459 4.185-13.016 7.915a78.385 78.385 0 0 0-9.094 12.467"/><path data-name="Caminho 282" d="M494.405 766.134a29.852 29.852 0 0 0-9.01 10.62"/><path data-name="Caminho 283" d="M502.9 772.988a78.563 78.563 0 0 0-8.1 20.536"/><path data-name="Caminho 284" d="M503.874 787.622a115.987 115.987 0 0 0-5.962 17.718 12.038 12.038 0 0 0-.477 5.061 4.4 4.4 0 0 0 3.165 3.639"/><path data-name="Caminho 285" d="M561.14 778.904c-1.335 9.536-.762 19.027-.539 28.668a1.879 1.879 0 0 0 .342 1.263c.3.326.983.288 1.077-.147"/><path data-name="Caminho 286" d="M568.829 793.599a38.792 38.792 0 0 0 4.065 17.49"/><path data-name="Caminho 287" d="M577.038 801.816a24.587 24.587 0 0 0 5.037 20.817"/><path data-name="Caminho 288" d="M585.55 813.206a41.274 41.274 0 0 0 4.885 10.358"/><path data-name="Caminho 289" d="M552.966 793.088a143.657 143.657 0 0 1-14.381 30.4c-2.514 4.061-2.391 8.972-3.144 13.688"/><path data-name="Caminho 290" d="M553.992 812.673a72.74 72.74 0 0 0-1.306 19.612"/><path data-name="Caminho 291" d="M563.825 815.973a71.7 71.7 0 0 0-7.22 19.022 8.161 8.161 0 0 0 8.174 1.482"/><path data-name="Caminho 292" d="M570.889 824.107a175 175 0 0 0-.342 20.708"/><path data-name="Caminho 293" d="M584.58 833.921a90.171 90.171 0 0 0 1.432 26.984 15.559 15.559 0 0 0 13.5-3.253"/><path data-name="Caminho 294" d="M596.052 835.563a76.413 76.413 0 0 0 2.253 29.482"/><path data-name="Caminho 295" d="M608.035 847.115c1.941 2.853 1.392 6.631 1.68 10.072s2.471 7.473 5.91 7.167"/><path data-name="Caminho 296" d="M648.733 840.991l.544 17.977"/><path data-name="Caminho 297" d="M660.12 837.217a141.114 141.114 0 0 1 16 26.036"/><path data-name="Caminho 298" d="M678.418 829.144a120.783 120.783 0 0 0 11.79 18.871"/><path data-name="Caminho 299" d="M686.563 820.916a91.2 91.2 0 0 0 11.294 25.464"/><path data-name="Caminho 300" d="M697.927 812.477a96.96 96.96 0 0 1 13.957 15.469"/><path data-name="Caminho 301" d="M707.023 802.861a141.558 141.558 0 0 1 17.435 15.247"/><path data-name="Caminho 302" d="M712.629 787.388a81.227 81.227 0 0 1 15.029 14.97"/><path data-name="Caminho 303" d="M718.083 783.855a16.857 16.857 0 0 1 8.464 6.53"/><path data-name="Caminho 304" d="M721.763 778.213l10.885 2.762"/></g><g data-name="Grupo 26" fill="#635853"><path data-name="Caminho 305" d="M618.427 680.862a31.177 31.177 0 0 1-16.081 22.693"/><path data-name="Caminho 306" d="M607.99 688.002a72.027 72.027 0 0 1-20.844 18.383"/><path data-name="Caminho 307" d="M592.554 694.368a115.792 115.792 0 0 1-25.956 16.154"/><path data-name="Caminho 308" d="M546.558 656.526a74.525 74.525 0 0 0-11.616 13.455"/><path data-name="Caminho 309" d="M526.782 662.919a87.294 87.294 0 0 0-11.843 16.641"/><path data-name="Caminho 310" d="M509.265 694.992a122.238 122.238 0 0 1-9.217 16.913"/><path data-name="Caminho 311" d="M495.868 725.607a24.443 24.443 0 0 1-11.675 11.282"/><path data-name="Caminho 312" d="M508.742 729.326a94.226 94.226 0 0 1-14.724 10.875"/><path data-name="Caminho 313" d="M686.497 656.766a30.736 30.736 0 0 0 17.113 14.154"/><path data-name="Caminho 314" d="M705.933 660.133l29.961 16.887"/><path data-name="Caminho 315" d="M561.877 653.697a54.588 54.588 0 0 0-15.695 12.862"/><g data-name="Grupo 25"><path data-name="Caminho 316" d="M522.114 679.444a59.85 59.85 0 0 1-31.259 38.764"/><path data-name="Caminho 317" d="M534.731 674.41a52.514 52.514 0 0 1-25.266 41.785"/><path data-name="Caminho 318" d="M547.441 673.207a59.1 59.1 0 0 1-6.178 24.5"/><path data-name="Caminho 319" d="M620.951 649.237v23.97"/><path data-name="Caminho 320" d="M629.171 651.407l2.215 11.432"/><path data-name="Caminho 321" d="M569.731 656.31a194.933 194.933 0 0 0-11.416 19.081"/><path data-name="Caminho 322" d="M556.638 687.878q-16.1 12.952-30.988 27.309"/></g><path data-name="Caminho 323" d="M576.372 643.318l-6.58 8.137"/></g><path data-name="Caminho 324" d="M389.223 400.454c13.535 15.085 37.984 21.809 53.866 39.781s41.143 27.136 59.958 27.756 68.318 10.9 71.483-3.956 13.739-55.983-8.683-64.609-71.982-14.645-104.094-11.6-59.382-3.119-67.943 8.329" fill="#1c0e12" opacity=".14"/><path data-name="Caminho 325" d="M663.236 392.56c13.535 15.085 37.984 21.809 53.868 39.781s41.143 27.136 59.957 27.756 68.318 10.894 71.483-3.956 13.74-55.983-8.683-64.609-71.983-14.645-104.092-11.6-59.382-3.117-67.945 8.329" fill="#1c0e12" opacity=".11"/><g data-name="Grupo 30" opacity=".91"><path data-name="Caminho 328" d="M401.328 178.891s-51.309-6.711-78.275 3.639-26.421 17.7-26.421 17.7-9.26 27.237 0 60.739 18.795 53.386 50.935 61.557c22.334 5.2 70 14.709 96.149-12.53s38.133-64.042 32.412-96.165-74.8-34.94-74.8-34.94z" transform="translate(92.253 211.491)" fill="url(#d)"/><path data-name="Caminho 329" d="M616.06 172.581c-37.588-1.226-66.641-4.129-99.3 4.268s-61.263 29.508-52.274 60.013 26.965 70.955 49.845 79.535 64.553 9.8 78.852 3.676 40.041-17.188 46.985-43.526 8.988-59.312 8.988-59.312 4.493-43.428-33.096-44.654z" transform="translate(194.464 208.092)" fill="url(#e)"/><g data-name="Grupo 28" opacity=".91"><path data-name="Caminho 330" d="M401.328 178.891s-51.309-6.711-78.275 3.639-26.421 17.7-26.421 17.7-9.26 27.237 0 60.739 18.795 53.386 50.935 61.557c22.334 5.2 70 14.709 96.149-12.53s38.133-64.042 32.412-96.165-74.8-34.94-74.8-34.94z" transform="translate(92.253 211.491)" fill="url(#d)"/><path data-name="Caminho 331" d="M616.06 172.581c-37.588-1.226-66.641-4.129-99.3 4.268s-61.263 29.508-52.274 60.013 26.965 70.955 49.845 79.535 64.553 9.8 78.852 3.676 40.041-17.188 46.985-43.526 8.988-59.312 8.988-59.312 4.493-43.428-33.096-44.654z" transform="translate(194.464 208.092)" fill="url(#e)"/></g><g data-name="Grupo 29" opacity=".91"><path data-name="Caminho 332" d="M401.328 178.891s-51.309-6.711-78.275 3.639-26.421 17.7-26.421 17.7-9.26 27.237 0 60.739 18.795 53.386 50.935 61.557c22.334 5.2 70 14.709 96.149-12.53s38.133-64.042 32.412-96.165-74.8-34.94-74.8-34.94z" transform="translate(92.253 211.491)" fill="url(#d)"/><path data-name="Caminho 333" d="M616.06 172.581c-37.588-1.226-66.641-4.129-99.3 4.268s-61.263 29.508-52.274 60.013 26.965 70.955 49.845 79.535 64.553 9.8 78.852 3.676 40.041-17.188 46.985-43.526 8.988-59.312 8.988-59.312 4.493-43.428-33.096-44.654z" transform="translate(194.464 208.092)" fill="url(#e)"/></g></g><path data-name="Caminho 334" d="M810.73 167.921s-75.83-10.885-116.413-8.161-112.218 29.417-119.3 33.23c-27.511 11.984-47.706 11.4-75.992-.546-16.965-7.162-63.325-22.606-126.925-20.972S263.9 186.18 263.9 186.18l3.432 38.263s12.875-8.48 17.442 5.218 12.72 47.946 20.873 66.863 19.9 47.944 71.429 52.185 91.651-4.241 106.979-24.787 29.681-47.3 35.226-64.745 9.928-28.037 21.526-28.863 18.265 11.416 26.744 33.268 25.575 52.386 45.049 62.872 36.61 16.546 62.772 16.615 74.783-4.085 90.036-41.674 18.521-66.732 21.79-78.988 11.046-22.88 17.78-20.428 5.752-34.058 5.752-34.058zM460.891 320.462c-26.149 27.239-73.815 17.734-96.149 12.53-32.14-8.171-41.674-28.055-50.935-61.557s0-60.739 0-60.739-.544-7.355 26.421-17.7 78.274-3.639 78.274-3.639 69.081 2.821 74.8 34.945-6.264 68.922-32.411 96.16zM768.54 224.3s-2.042 32.974-8.988 59.312-32.684 37.4-46.985 43.526-55.972 4.9-78.852-3.676-40.857-49.029-49.845-79.535 19.611-51.615 52.274-60.013 61.715-5.494 99.3-4.268S768.54 224.3 768.54 224.3z" transform="translate(75.078 201.03)" fill="url(#f)"/><ellipse data-name="Elipse 10" cx="14.436" cy="3.405" rx="14.436" ry="3.405" transform="translate(354.294 405.153)" fill="#9dada3"/><g data-name="Grupo 31" transform="translate(354.294 402.191)"><ellipse data-name="Elipse 11" cx="15.238" cy="5.039" rx="15.238" ry="5.039" fill="#4e2531"/><ellipse data-name="Elipse 12" cx="13.049" cy="3.405" rx="13.049" ry="3.405" transform="translate(1.634 2.962)" fill="#9dada3"/><ellipse data-name="Elipse 13" cx="13.049" cy="3.405" rx="13.049" ry="3.405" transform="translate(1.634 4.562)" fill="#727a77"/></g><g data-name="Grupo 32" transform="translate(843.162 382.556)"><ellipse data-name="Elipse 14" cx="15.238" cy="5.039" rx="15.238" ry="5.039" fill="#4e2531"/><ellipse data-name="Elipse 15" cx="13.049" cy="3.405" rx="13.049" ry="3.405" transform="translate(1.634 2.962)" fill="#9dada3"/><ellipse data-name="Elipse 16" cx="13.049" cy="3.405" rx="13.049" ry="3.405" transform="translate(1.634 4.562)" fill="#727a77"/></g><g data-name="Grupo 35" opacity=".22" fill="none" stroke-miterlimit="10"><path data-name="Caminho 335" d="M766.176 723.737a114.846 114.846 0 0 1 20.608 3.38l-.835-8.4c4.645 2.46 9.272 4.964 13.975 7.3-11.885-11.142-14.906-9.1-25.94-2.754-6.617 3.809-15.076 9.793-11.233-7.451a57.745 57.745 0 0 1 14.3 9.877c-3.595-.457-7.25-1.693-10.875-1.952z" stroke="#21160f"/><path data-name="Caminho 336" d="M718.034 935.842a36.7 36.7 0 0 0 9.844 19.94" stroke="#21160f"/><path data-name="Caminho 337" d="M727.762 937.954a29.33 29.33 0 0 1-6.086 20.116" stroke="#21160f"/><path data-name="Caminho 338" d="M747.406 917.255a46.533 46.533 0 0 1-10.579 31.081c-.2.246-.376.626-.163.866s.663-.269.349-.339" stroke="#21160f"/><path data-name="Caminho 339" d="M749.659 913.012c-9.806 11.23-19.94 23.077-23.373 37.586" stroke="#21160f"/><path data-name="Caminho 340" d="M787.618 866.039q-5.869 16.2-10.837 32.705" stroke="#21160f"/><path data-name="Caminho 341" d="M800.801 843.178a67.457 67.457 0 0 1-4.465 17.958" stroke="#21160f"/><path data-name="Caminho 342" d="M810.711 834.483a78.453 78.453 0 0 1-6.218 20.652" stroke="#21160f"/><path data-name="Caminho 343" d="M732.573 937.927a139.475 139.475 0 0 1-10.556 17.142c-2.946 4.092-6.706 8.355-11.733 8.737" stroke="#21160f"/><path data-name="Caminho 344" d="M835.477 697.705a73.753 73.753 0 0 1 7.594 21.033 32.332 32.332 0 0 0 8.206-15.141c.166-.725.456-1.607 1.191-1.722s.858 1.44.176 1.143l.059-8.667a106.376 106.376 0 0 0-7.079 18.135 8.445 8.445 0 0 1-.3-5.468c-.757.823.827 2.064 1.776 1.477s1.115-1.877 1.183-2.991l.6-9.952 2.423 4.55a13.341 13.341 0 0 0 6.279-11.7l.093 3.08a33.845 33.845 0 0 1 10.643-20.969" stroke="#21160f"/><path data-name="Caminho 345" d="M534.304 712.973c-.794 12.014-9.1 20.952-19.651 26.746 1.328.472 2.7-.5 3.773-1.407 7.795-6.58 16.316-11.97 24.149-18.489 4.361-3.629 8.246-8.369 8.945-14" stroke="#21160f"/><path data-name="Caminho 346" d="M524.111 715.712a38.851 38.851 0 0 1-19.859 29.175" stroke="#21160f"/><path data-name="Caminho 347" d="M705.103 710.322c4.924 9.992 15.29 16.234 25.863 19.737" stroke="#21160f"/><path data-name="Caminho 348" d="M713.958 712.022a113.494 113.494 0 0 0 25.723 20.339c2.37 1.368 5.6 2.575 7.607.709" stroke="#21160f"/><path data-name="Caminho 349" d="M732.529 718.427c.25 1.706 1.634 2.991 2.952 4.1a140.958 140.958 0 0 0 13.111 9.811c3.831 2.533 8.536 4.961 12.816 3.295" stroke="#21160f"/><path data-name="Caminho 350" d="M746.634 722.509c6.366 2.639 11.928 6.87 17.983 10.158s13.072 5.668 19.79 4.133" stroke="#21160f"/><path data-name="Caminho 351" d="M622.817 699.926a16.155 16.155 0 0 1-4.164 9.124" stroke="#21160f"/><path data-name="Caminho 352" d="M575.208 706.06c21.761-2.223 36.959-28.89 59.122-16.719 10.726 5.89 18.852 16.372 30.862 19.924 11.229 3.322 23.306.43 34.747.366" stroke="#21160f"/><path data-name="Caminho 353" d="M653.971 693.142a206.419 206.419 0 0 0 40.569 20.249" stroke="#21160f"/><path data-name="Caminho 354" d="M620.299 691.801c-1.5 3.52-3.04 7.094-5.466 10.056-5.551 6.782-13.2 6.31-21.112 6.2" stroke="#21160f"/><path data-name="Caminho 355" d="M622.138 693.305a72.894 72.894 0 0 0 10.238 13.69" stroke="#21160f"/><path data-name="Caminho 356" d="M630.265 690.804a26.871 26.871 0 0 0 6.828 11.2 6.074 6.074 0 0 0 2.111 1.493 7.753 7.753 0 0 0 2.973.2 28.582 28.582 0 0 1 13.405 2.676" stroke="#21160f"/><path data-name="Caminho 357" d="M625.004 685.671c-1.419 4.765-2.605 10.337.306 14.368 1.933 2.676 5.223 3.961 8.372 4.953a102.675 102.675 0 0 0 35.208 4.647" stroke="#21160f"/><g data-name="Grupo 34" stroke="#8f8067"><path data-name="Caminho 358" d="M618.427 680.862a31.177 31.177 0 0 1-16.081 22.693"/><path data-name="Caminho 359" d="M607.99 688.002a72.027 72.027 0 0 1-20.844 18.383"/><path data-name="Caminho 360" d="M592.554 694.368a115.792 115.792 0 0 1-25.956 16.154"/><path data-name="Caminho 361" d="M546.558 656.526a74.525 74.525 0 0 0-11.616 13.455"/><path data-name="Caminho 362" d="M526.782 662.919a87.294 87.294 0 0 0-11.843 16.641"/><path data-name="Caminho 363" d="M509.265 694.992a122.238 122.238 0 0 1-9.217 16.913"/><path data-name="Caminho 364" d="M495.868 725.607a24.443 24.443 0 0 1-11.675 11.282"/><path data-name="Caminho 365" d="M508.742 729.326a94.226 94.226 0 0 1-14.724 10.875"/><path data-name="Caminho 366" d="M686.497 656.766a30.736 30.736 0 0 0 17.113 14.154"/><path data-name="Caminho 367" d="M705.933 660.133l29.961 16.887"/><path data-name="Caminho 368" d="M561.877 653.697a54.588 54.588 0 0 0-15.695 12.862"/><g data-name="Grupo 33"><path data-name="Caminho 369" d="M522.114 679.444a59.85 59.85 0 0 1-31.259 38.764"/><path data-name="Caminho 370" d="M534.731 674.41a52.514 52.514 0 0 1-25.266 41.785"/><path data-name="Caminho 371" d="M547.441 673.207a59.1 59.1 0 0 1-6.178 24.5"/><path data-name="Caminho 372" d="M620.951 649.237v23.97"/><path data-name="Caminho 373" d="M629.171 651.407l2.215 11.432"/><path data-name="Caminho 374" d="M569.731 656.31a194.933 194.933 0 0 0-11.416 19.081"/><path data-name="Caminho 375" d="M556.638 687.878q-16.1 12.952-30.988 27.309"/></g><path data-name="Caminho 376" d="M576.372 643.318l-6.58 8.137"/></g></g><g data-name="Grupo 36" fill="none" stroke="#8f8067" stroke-miterlimit="10"><path data-name="Caminho 377" d="M690.211 742.267c-.053-.635 1.013-.328 1.387.19a111.8 111.8 0 0 1 10.513 17.846"/><path data-name="Caminho 378" d="M683.022 757.051a41.078 41.078 0 0 1 7.318 17.926"/><path data-name="Caminho 379" d="M668.266 763.076a51.544 51.544 0 0 1 7.948 18.964"/><path data-name="Caminho 380" d="M654.18 775.551v22.336"/><path data-name="Caminho 381" d="M641.052 783.731a50.882 50.882 0 0 1-3.175 23.433"/><path data-name="Caminho 382" d="M623.554 788.635a64.68 64.68 0 0 1-4.153 28.351"/><path data-name="Caminho 383" d="M612.47 788.631a56.247 56.247 0 0 1-7.391 26.645"/><path data-name="Caminho 384" d="M600.272 783.731a73.84 73.84 0 0 1-4.394 14.154"/><path data-name="Caminho 385" d="M588.265 775.551v15.253"/><path data-name="Caminho 386" d="M578.459 771.734l-3.269 12.53"/><path data-name="Caminho 387" d="M567.565 755.395v19.067"/><path data-name="Caminho 388" d="M553.936 748.86a50.105 50.105 0 0 0 2.192 12.526"/><path data-name="Caminho 389" d="M570.886 758.656a98.038 98.038 0 0 0 3.485 15.348"/><path data-name="Caminho 390" d="M587.673 758.674a29.758 29.758 0 0 0 5.51 11.963"/><path data-name="Caminho 391" d="M608.42 763.569l3.269 10.894"/><path data-name="Caminho 392" d="M621.518 766.828a51.128 51.128 0 0 0 5.407 12"/><path data-name="Caminho 393" d="M640.562 769.012v13.074"/></g><g data-name="Grupo 37" opacity=".43" fill="none" stroke="#9b7536" stroke-miterlimit="10"><path data-name="Caminho 394" d="M525.959 875.816c.722 5.486 1.778 11.24 5.362 15.455l-.866-18.31 1.357 6.025a57.029 57.029 0 0 0 .683-15.293 56.843 56.843 0 0 0 5.223 10.976 244.212 244.212 0 0 0-5.5-27.913l-7.921 20.574c.085-5.718.582-11.678.118-17.34-1.403 8.044.48 17.743 1.544 25.826z"/><path data-name="Caminho 395" d="M673.792 887.838l6.6-14.844-4.387 25.682a55.436 55.436 0 0 0 7.151-17.1l-.232 11.4a52.041 52.041 0 0 1 6.921-18.538 6.843 6.843 0 0 1-2.317 4.6l-2.026-.338a71.511 71.511 0 0 1 1.306-19.4l.056 9.657.253-9.652a40.618 40.618 0 0 0-9.526 15.829"/><path data-name="Caminho 396" d="M716.24 851.335a115.751 115.751 0 0 1-6.958 25.642"/><path data-name="Caminho 397" d="M708.656 860.061l-5.449 21.244"/><path data-name="Caminho 398" d="M653.045 879.121a65.012 65.012 0 0 1-4.306 19.617"/><path data-name="Caminho 399" d="M630.751 884.568q-8.38 13.744-17.967 26.7"/><path data-name="Caminho 400" d="M598.07 888.386l-3.813 17.431"/><path data-name="Caminho 401" d="M557.759 879.668v19.611"/><path data-name="Caminho 402" d="M507.65 826.283l-1.088 34.318"/><path data-name="Caminho 403" d="M482.036 822.468v24.515"/><path data-name="Caminho 404" d="M466.768 772.321a156 156 0 0 0-25.9 18.354 17.493 17.493 0 0 0 7.831-3.138 35.378 35.378 0 0 1-9.068 10.933 7.292 7.292 0 0 0 5.82-1.528l-5.236 8.524a11.725 11.725 0 0 0 5.591-4.3 43.28 43.28 0 0 1-1.491 12.112l4.724-8.387a67.867 67.867 0 0 0-2.557 15.428 25.143 25.143 0 0 0 6.631-7.905l-1.2 17.05 3.229-8.884.462 13.85a15.15 15.15 0 0 0 3.605-7.9l.013 18.266 1.479-3.537a17.134 17.134 0 0 0 2.482 11.9l1.4-9.563c-.218 3.72 3.087 7.014 5.322 10-3.929-18.022.51-36.693 4.93-54.6"/><path data-name="Caminho 405" d="M459.268 809.354c-1.1-3.359.869-6.9 2.972-9.747a68.718 68.718 0 0 1 19.579-17.847c-2.885-.755-8.9-.672-11.5.792a90.311 90.311 0 0 0-24.642 20.42"/><path data-name="Caminho 406" d="M483.36 794.247q-8.341 18.559-14.879 37.864"/><path data-name="Caminho 407" d="M828.824 727.51a51.179 51.179 0 0 1-10.531 16.417c2.914-1.981 2.62-6.292 2-9.761l-2.944 12.15a12.242 12.242 0 0 0-.72-6.558 36.1 36.1 0 0 0-5.735 9.352l.661-2.727-6.487 12.307 1.159-4.957a32.529 32.529 0 0 0-7.145 8.246l.7-2.887a50.894 50.894 0 0 0-9.1 10.925l1.338-6.315-14.268 19.751"/><path data-name="Caminho 408" d="M752.383 767.806c-.237-.509.792-.37 1.095.1a187.266 187.266 0 0 1 14.26 26.6c3.112 7.153 2.515 14.068 5.071 21.187-.987-2.647-1.957-5.3-2.932-7.951a33.113 33.113 0 0 0-1.147 12.784 16.216 16.216 0 0 0-3.781-8.31 14.523 14.523 0 0 0 .787 7.358c.347.216.3-.669-.1-.558s-.459.635-.446 1.045l.242 8.126q-1.575-10.053-4.1-19.924l.029 14.448q-1.673-8.879-4.217-17.562a43.267 43.267 0 0 0-1.194 10.865 84.941 84.941 0 0 0-.49-16.991 5.924 5.924 0 0 0-.515 3.359l-.141-7.783a19.777 19.777 0 0 0-2.087 8.057 41.805 41.805 0 0 0-.941-13.351 9.338 9.338 0 0 0-2.717 6.689l-4-5.389-2.944-2.591c.125 1.579-2.389 1.877-3.631.9-3.116-2.458-2.735-7.875-1.506-11.157.15 3.044.13 6.11.158 9.163a92.455 92.455 0 0 0 1.607-20.856 153.819 153.819 0 0 0 6.1 23.237 35.631 35.631 0 0 0-.014-21.129 50.845 50.845 0 0 0 11.053 21.979 65.421 65.421 0 0 0-2.8-10.763 103.485 103.485 0 0 0 9.689 18.431 15.683 15.683 0 0 0-.877-5.237 76.891 76.891 0 0 0 6.479 11.89 11.015 11.015 0 0 0-.57-4.418l2.2 6.847"/><path data-name="Caminho 409" d="M745.146 820.294a103.457 103.457 0 0 1 8.8 28.009l-1.162.856"/><path data-name="Caminho 410" d="M761.493 842.623a35.1 35.1 0 0 1 1.1 9.8"/><path data-name="Caminho 411" d="M772.378 816.479a187.567 187.567 0 0 1 2.21 22.333"/><path data-name="Caminho 412" d="M780.536 811.579a131.043 131.043 0 0 1 3.97 15.22"/><path data-name="Caminho 413" d="M780.634 781.564l15.745 22.373"/><path data-name="Caminho 414" d="M789.88 775.062a57.91 57.91 0 0 0 10.787 21.845"/><path data-name="Caminho 415" d="M802.42 771.263l-.286 23.426a37.4 37.4 0 0 0 4.023-5.461"/><path data-name="Caminho 416" d="M813.31 766.899l1.643 20.155"/><path data-name="Caminho 417" d="M820.874 766.36l.546 14.164"/><path data-name="Caminho 418" d="M830.68 747.838v14.709"/><path data-name="Caminho 419" d="M834.658 733.095a71.413 71.413 0 0 1 1.44 16.921"/><path data-name="Caminho 420" d="M735.927 777.262c-2.452 9.845-5.5 19.931-5.457 30.039 0 1.455.634 3.463 2.06 3.18"/><path data-name="Caminho 421" d="M730.218 752.099c-2.167 5.013-1 8.209-.248 13.168 1 6.59-.008 13.6-1.373 20.115"/><path data-name="Caminho 422" d="M492.953 757.605c-5.031 1.112-9.459 4.185-13.016 7.915a78.385 78.385 0 0 0-9.094 12.467"/><path data-name="Caminho 423" d="M494.405 766.134a29.852 29.852 0 0 0-9.01 10.62"/><path data-name="Caminho 424" d="M502.9 772.988a78.563 78.563 0 0 0-8.1 20.536"/><path data-name="Caminho 425" d="M503.874 787.622a115.987 115.987 0 0 0-5.962 17.718 12.038 12.038 0 0 0-.477 5.061 4.4 4.4 0 0 0 3.165 3.639"/><path data-name="Caminho 426" d="M561.14 778.904c-1.335 9.536-.762 19.027-.539 28.668a1.879 1.879 0 0 0 .342 1.263c.3.326.983.288 1.077-.147"/><path data-name="Caminho 427" d="M568.829 793.599a38.792 38.792 0 0 0 4.065 17.49"/><path data-name="Caminho 428" d="M577.038 801.816a24.587 24.587 0 0 0 5.037 20.817"/><path data-name="Caminho 429" d="M585.55 813.206a41.274 41.274 0 0 0 4.885 10.358"/><path data-name="Caminho 430" d="M552.966 793.088a143.657 143.657 0 0 1-14.381 30.4c-2.514 4.061-2.391 8.972-3.144 13.688"/><path data-name="Caminho 431" d="M553.992 812.673a72.74 72.74 0 0 0-1.306 19.612"/><path data-name="Caminho 432" d="M563.825 815.973a71.7 71.7 0 0 0-7.22 19.022 8.161 8.161 0 0 0 8.174 1.482"/><path data-name="Caminho 433" d="M570.889 824.107a175 175 0 0 0-.342 20.708"/><path data-name="Caminho 434" d="M584.58 833.921a90.171 90.171 0 0 0 1.432 26.984 15.559 15.559 0 0 0 13.5-3.253"/><path data-name="Caminho 435" d="M596.052 835.563a76.413 76.413 0 0 0 2.253 29.482"/><path data-name="Caminho 436" d="M608.035 847.115c1.941 2.853 1.392 6.631 1.68 10.072s2.471 7.473 5.91 7.167"/><path data-name="Caminho 437" d="M648.733 840.991l.544 17.977"/><path data-name="Caminho 438" d="M660.12 837.217a141.114 141.114 0 0 1 16 26.036"/><path data-name="Caminho 439" d="M678.418 829.144a120.783 120.783 0 0 0 11.79 18.871"/><path data-name="Caminho 440" d="M686.563 820.916a91.2 91.2 0 0 0 11.294 25.464"/><path data-name="Caminho 441" d="M697.927 812.477a96.96 96.96 0 0 1 13.957 15.469"/><path data-name="Caminho 442" d="M707.023 802.861a141.558 141.558 0 0 1 17.435 15.247"/><path data-name="Caminho 443" d="M712.629 787.388a81.227 81.227 0 0 1 15.029 14.97"/><path data-name="Caminho 444" d="M718.083 783.855a16.857 16.857 0 0 1 8.464 6.53"/><path data-name="Caminho 445" d="M721.763 778.213l10.885 2.762"/></g><path data-name="Caminho 446" d="M490.757 360.505a77.143 77.143 0 0 0-17.434-1.069" fill="none" stroke="#8f8067" stroke-miterlimit="10"/></svg>