<svg xmlns="http://www.w3.org/2000/svg" width="883.917" height="1009.194"><g data-name="Grupo 40"><g data-name="Grupo 15" fill="none" stroke="#1798e0" stroke-miterlimit="10" opacity=".7"><path data-name="Caminho 6" d="M422.488 403.01c-3.106 4.5-6.856 8.882-7.761 14.274-1.156 6.89 2.838 13.877 8.458 18.029s12.612 5.953 19.49 7.186c6.666 1.194 13.649 1.922 20.117-.08s12.315-7.338 13.035-14.073c.954-8.923-6.681-16.071-11.5-23.642-10.663-16.754-8.116-38.795-15.887-57.07-.507-1.191-8.873 9.456-9.386 10.478a60.464 60.464 0 0 0-4.652 14.553c-2.322 10.884-5.514 21.074-11.914 30.345z"/><path data-name="Caminho 7" d="M467.578 459.924c-1.771 2.238-3.435 4.824-3.368 7.677a4.686 4.686 0 0 0 5.688-1.2c.519-.659.848-1.452 1.368-2.11a6.387 6.387 0 0 1 5.127-2.071 30.7 30.7 0 0 1 5.64.938 32.646 32.646 0 0 0 9.212.517 2.214 2.214 0 0 0 1.5-.54 2.218 2.218 0 0 0 .423-1.275c.367-3.389.311-6.966-1.23-10.006-6.341-12.52-19.478 1.901-24.36 8.07z"/><path data-name="Caminho 8" d="M408.706 446.195a5.478 5.478 0 0 0-2.261 1.631c-2.908 3.17-4.3 8.094-2.256 11.88 2.76 5.119 16.63 3.214 19.558-1.529 2.662-4.313-10.932-13.304-15.041-11.982z"/><path data-name="Caminho 9" d="M421.918 364.811a296.545 296.545 0 0 0-16.378 35.907c-4.406 11.657-8.189 23.807-15.6 33.827-2.8 3.792-6.2 7.437-7.154 12.055-1.534 7.4 3.775 14.566 9.893 19a45.91 45.91 0 0 0 32.509 8.27"/><path data-name="Caminho 10" d="M481.146 392.766c.694 8.362-2.422 17.256.981 24.927 1.916 4.321 5.631 7.525 8.6 11.2a29.9 29.9 0 0 1 6.817 16.083 21.2 21.2 0 0 1-5.438 16.322"/><path data-name="Caminho 11" d="M510.932 435.013c-1.256 7.368.4 15.006 3.471 21.822s7.493 12.923 12.018 18.871"/><path data-name="Caminho 12" d="M372.68 451.668c-1.079 11-5.765 21.322-11.228 30.928-2.5 4.39-5.65 9.045-10.552 10.261"/><path data-name="Caminho 13" d="M233.956 337.376c-2.255-5.1-9.9-5.717-14.365-2.373s-6.327 9.115-7.3 14.609a73.023 73.023 0 0 0 7.1 46.029"/><path data-name="Caminho 14" d="M228.978 353.239c-1.535.834-3.462.016-4.8-1.1s-2.473-2.566-4.083-3.243q.459 15.965 1.971 31.874"/><path data-name="Caminho 15" d="M639.545 325.771a151.71 151.71 0 0 1 7.345 36.218 13.509 13.509 0 0 0 .555 3.429c.579 1.654 1.8 2.993 2.7 4.5"/><path data-name="Caminho 16" d="M643.425 325.354c10.455-2.193 16.5 3.758 9.3 12.186-3.167 3.708-7.362 7.654-7.642 12.865-.262 4.862 3.6 8.295 4.255 12.918.545 3.835-1.061 7.185.4 11.136"/><path data-name="Caminho 17" d="M451.023 223.156q-2.109 28.351-1.705 56.812"/><path data-name="Caminho 18" d="M424.302 227.709l-1.33 60.14"/><path data-name="Caminho 19" d="M245.661 288.687c5.817-4.753 13.733-5.838 21.218-6.474 50.248-4.273 100.911 3.4 149.632 16.417a87.426 87.426 0 0 0 43.424.492c6.34-1.529 12.349-4.161 18.412-6.565a270.825 270.825 0 0 1 91.169-18.871c17.291-.536 34.791-.8 51.813 2.288 9.111 1.653 18.212 4.431 27.438 3.644-.66 8.984-3.2 17.877-3.858 26.863-.325 4.416-.738 9.085-3.331 12.675-3.288 4.554-9.19 6.217-14.638 7.582.559 23.091-6.208 47.269-22.755 63.384-13.316 12.968-31.9 19.653-50.445 20.935s-37.12-2.48-54.819-8.155c-5.95-1.908-12.046-4.167-16.424-8.624-2.814-2.865-4.738-6.465-6.623-10.011l-20.578-38.7c-3.154-5.933-7.431-12.629-14.137-13.055-4.093-.261-8 2.084-10.652 5.219s-4.249 6.995-5.81 10.788l-13.014 31.62c-4.074 9.9-9.174 20.824-19.232 24.494a197.476 197.476 0 0 1-57.944 11.472c-19.421.854-39.286-1.9-56.782-10.374-5.374-2.6-10.779-6.029-13.328-11.426-1.562-3.3-1.9-7.03-2.354-10.656a137.906 137.906 0 0 0-22.509-59.78 9.09 9.09 0 0 0-2.952-3.11c-1.31-.71-2.866-.755-4.3-1.146-3.394-.921-6-3.769-7.483-6.958a36.431 36.431 0 0 1-2.519-10.2c-.363-2.471-.563-5.406 1.333-7.03a7.474 7.474 0 0 1 3.326-1.342c6.093-1.38 13.876-1.439 18.722-5.396z"/><path data-name="Caminho 20" d="M278.029 304.847c-6.217 5.931-9.858 14.162-11.613 22.573s-1.768 17.078-1.656 25.669c.123 9.461.422 19.112 3.638 28.009s9.875 17.062 18.964 19.691c4.027 1.165 8.284 1.2 12.476 1.2 9.145.01 18.291-.067 27.429-.391 12.109-.43 24.358-1.328 35.846-5.179s22.275-10.967 28.378-21.434c4.233-7.262 6-15.7 6.91-24.057a45.821 45.821 0 0 0-.191-14.195c-1.809-8.782-7.862-16.258-15.195-21.418s-15.9-8.257-24.48-10.86c-13.3-4.035-27.094-7.046-40.986-6.567s-27.981 4.7-38.533 13.745"/><path data-name="Caminho 21" d="M479.595 314.98c-.644 11.227-1.286 22.553.4 33.671s5.9 22.163 13.764 30.2c12.368 12.643 31.415 15.84 49.1 16.18 15.631.3 32.4-1.534 44.407-11.541s16.838-26.151 19.145-41.6c.836-5.6 1.419-11.317.474-16.9-1.118-6.6-4.314-12.652-7.742-18.4-2.105-3.528-4.393-7.079-7.706-9.507-3.755-2.751-8.46-3.8-13.035-4.655-24.681-4.624-51.628-5.263-73.359 7.318a133.623 133.623 0 0 0-14.089 9.86l-15.829 12.125"/><path data-name="Caminho 22" d="M454.338 309.824a132.759 132.759 0 0 0 1.176 29.066c.384 2.528 1.472 5.649 4.024 5.8"/><path data-name="Caminho 23" d="M419.235 310.235c.529 10.685.972 21.85-3.484 31.575"/><path data-name="Caminho 24" d="M332.706 317.811a38.761 38.761 0 0 0 .082 9.112 13.043 13.043 0 0 0 4.135 7.932c2.942 2.461 7.025 2.958 10.859 3.083a17.787 17.787 0 0 0 5.285-.412c4.137-1.132 7.072-4.756 9.355-8.386 1.589-2.525 3.058-5.5 2.283-8.382-.651-2.421-2.742-4.161-4.859-5.5a35.141 35.141 0 0 0-10.356-4.416 3.532 3.532 0 0 0-1.613-.128 3.517 3.517 0 0 0-1.45.877 33.411 33.411 0 0 0-11.309 23.6l6.318 3.255"/><path data-name="Caminho 25" d="M520.097 340.91c4.55 2.277 10.011 1.425 14.908.044a24.8 24.8 0 0 0 8.737-3.964 10.591 10.591 0 0 0 4.351-8.234 10.3 10.3 0 0 0-3.858-7.377 20.936 20.936 0 0 0-7.628-3.79 44.183 44.183 0 0 0-12.047-1.861 3.378 3.378 0 0 0-2.076.439 3.483 3.483 0 0 0-1.007 1.537c-1.934 4.561-3.677 10.241-.565 14.1 1.839 2.279 4.883 3.165 7.766 3.686a14.848 14.848 0 0 0 7.62-.147c3.472-1.241 5.789-4.6 6.995-8.088a22.362 22.362 0 0 0 .848-11.332c-.826-4.448-3.716-9.109-8.207-9.647-3.138-.376-6.131 1.367-8.612 3.327a41.327 41.327 0 0 0-11.955 15.28c-1.8 3.96-2.86 8.889-.356 12.443 2.337 3.314 6.829 4.132 10.863 4.541 7.8.791 16.049.326 21.065-6.564 3.968-5.45 3.834-12.912-1.437-17.476-12.721-11.019-29.128 10.889-25.405 23.083z"/><path data-name="Caminho 26" d="M413.473 540.553a17.088 17.088 0 0 1 15.816.6c1.88 1.1 3.532 2.553 5.412 3.65a17.008 17.008 0 0 0 16.642.08 27.2 27.2 0 0 1 3.94-2.193 15.046 15.046 0 0 1 5.026-.631l26.227-.3"/><path data-name="Caminho 27" d="M393.424 557.221c7.064 5.194 14.27 10.464 22.562 13.316 7.486 2.573 15.509 3.053 23.418 3.361 9.832.383 19.742.531 29.444-1.111s19.263-5.175 26.831-11.465c3.215-2.673 6.143-6.014 7.045-10.1"/><path data-name="Caminho 28" d="M416.388 484.702a67.414 67.414 0 0 1-24.038 13.9c-6.063 1.982-12.545 3.164-17.822 6.745-7.96 5.4-11.584 15.061-16.547 23.3a71.4 71.4 0 0 1-48.142 33.023 44.027 44.027 0 0 0 45.975-7.928 32.277 32.277 0 0 1-12.368 11.362 41.511 41.511 0 0 0 34.478-13.408l-5.237 6.253a74.9 74.9 0 0 0 35.685-26.1l.861 5.964 6.631-4.488c-.708 2.491 1.77 5.047 4.358 5.164s4.953-1.553 6.577-3.571c2.221 5.613 11.159 6.793 14.76 1.948l.864 4.616a21.732 21.732 0 0 0 9.071-4c-1.333 1.435.328 3.938 2.272 4.181s3.767-.844 5.544-1.668 4.015-1.368 5.582-.192a20.9 20.9 0 0 1 1.523 1.556c3.511 3.26 8.921-.7 11.962-4.4.369 3.954 6.717 5.461 8.823 2.094.089 2.155 2.5 3.607 4.654 3.472s4.055-1.381 5.845-2.589c2.428 2.1 5.71 2.852 8.848 3.532 6.707 1.455 14.536 2.648 19.726-1.841a3.98 3.98 0 0 0 3.769 3.879l3.449-3.807a21.389 21.389 0 0 0 14.425 5.974l-1.336-3.865a19.423 19.423 0 0 0 14.761 6.616c7.932 5.043 17.026 9.015 26.409 8.474s18.911-6.65 20.973-15.821a43.574 43.574 0 0 1-32.877 1.2c-18.081-6.71-29.64-24.543-46.416-34.056-11.656-6.609-25.4-8.946-36.84-15.929-7.262-4.433-13.4-10.63-20.99-14.472-9.886-5.006-21.618-5.592-32.433-3.178s-20.819 7.643-30.043 13.785"/><path data-name="Caminho 29" d="M393.372 571.498a238.629 238.629 0 0 0 3.461 28.923 61.815 61.815 0 0 0 6.366-17.2 48.642 48.642 0 0 0 4.327 23.961 13.341 13.341 0 0 0 8.336-12.266 92.333 92.333 0 0 0 .625 20.354l2.9-.022a133.421 133.421 0 0 0 8.434-16.564 88.221 88.221 0 0 0 1.813 18.641c3.6-.179 6.063-3.618 7.787-6.785a103.586 103.586 0 0 0 6.894-15.6l-.113 22.661 2.293 1.314a53.687 53.687 0 0 0 11.845-21.538 64.2 64.2 0 0 0 .1 17.794 43.961 43.961 0 0 0 11.774-19.343 13.934 13.934 0 0 0 2.411 10.2 42.738 42.738 0 0 0 10.374-16.794 7.879 7.879 0 0 0 .383 5.5 51.209 51.209 0 0 0 19.908-20.817c.853-1.653 1.349-4.175-.341-4.953"/><path data-name="Caminho 30" d="M343.686 583.667c-8.012 11.48-20.677 18.612-31.925 26.948s-22.052 19.524-23.118 33.484"/><path data-name="Caminho 31" d="M531.884 581.396c7.416 11.9 17.642 21.739 26.818 32.345s17.584 22.567 20.17 36.35c.316 1.68.167 3.975-1.495 4.375"/><path data-name="Caminho 32" d="M292.307 649.837a173.129 173.129 0 0 0 16.822 46.6 37 37 0 0 0 8.119-12.227c-.5 11.411-.447 24.321 7.751 32.274a21.626 21.626 0 0 0 12.407-9.863l1.139 17.605 3.234 1.424 6.933-6.609.474 13.626a20.99 20.99 0 0 0 14.72-8.017 39.2 39.2 0 0 0 2.767 20.054 59.876 59.876 0 0 0 17.434-12.14l-.627 18.457a55.5 55.5 0 0 0 19.625-14.526l-.247 13.443 15.044-8.264a65.959 65.959 0 0 0-4.755 16.162 51.7 51.7 0 0 0 20.579-15.39l-4.334 13.266a81.728 81.728 0 0 0 19.764-14.182l-1.563 11.624a97.67 97.67 0 0 0 26.748-13.68l-.085 6.539a97.092 97.092 0 0 0 17.612-10.782 9.009 9.009 0 0 0-.44 5.949 156.909 156.909 0 0 0 17.7-11.611 14.3 14.3 0 0 0-1.757 7.787 84.423 84.423 0 0 0 24.794-18.537 12.929 12.929 0 0 1-.238 6.061q9.495-12.724 18.991-25.445l.074 3.878a131.108 131.108 0 0 0 23.352-46.722"/><path data-name="Caminho 33" d="M645.986 465.383q-2.279 34.472-7.887 68.615c-1.009 6.14-2.112 12.317-4.429 18.092-3.412 8.5-9.284 15.736-14.59 23.2a207.046 207.046 0 0 0-32.712 72.486"/><path data-name="Caminho 34" d="M224.213 442.105c-.411 32.117 8.6 63.55 18.288 94.173q15.433 48.769 33.452 96.668"/><path data-name="Caminho 35" d="M388.051 342.337c.519-6.2-4.655-11.346-9.854-14.763-16.912-11.115-39.633-14.266-58.843-7.624-7.76 2.684-8.953 9.1-3.434 15.273 6.785 7.593 19.495 6.405 28.733 6.772q21.686.861 43.398.342z"/><path data-name="Caminho 36" d="M583.935 323.389c-7.6 5.645-15.33 11.366-24.217 14.621a68.407 68.407 0 0 1-19.547 3.683 207.732 207.732 0 0 1-21.634-.186c-5.776-.262-12.594-1.189-15.258-6.32-2.109-4.058-.459-9.269 2.74-12.539s7.62-5 11.948-6.478a86.5 86.5 0 0 1 18.325-4.478 56.789 56.789 0 0 1 38.892 10.137"/><path data-name="Caminho 37" d="M278.319 100.748c-10.831 9.613-22.157 19.983-26.213 33.887-1.651 5.655-1.989 11.6-2.053 17.5-.161 14.935 1.377 29.956-.6 44.76-1.227 9.189-3.787 18.138-5.9 27.166a281.35 281.35 0 0 0-6.774 45.568"/><path data-name="Caminho 38" d="M284.04 96.552a229.5 229.5 0 0 1 113.666-35.31 17.857 17.857 0 0 1 6.906.682c2.494.926 4.449 2.859 6.532 4.512a35.4 35.4 0 0 0 39.666 2.256c4.4-2.743 8.208-6.491 12.97-8.547 6.693-2.89 14.331-2.071 21.568-1.2 25.478 3.067 51.8 6.411 73.861 19.516 19.592 11.635 34.2 30.07 46.492 49.259 28.228 44.07 46.84 96.492 40.526 148.443"/><path data-name="Caminho 39" d="M223.283 293.647a34.475 34.475 0 0 0 3.918-17.558 7.607 7.607 0 0 0-1.011-3.973c-1.87-2.753-6.982-3.792-6.3-7.052a5.087 5.087 0 0 1 1.666-2.43l12.49-12.171a20.464 20.464 0 0 1-8.509-3.387 14.768 14.768 0 0 1 6.478-8.429 3.8 3.8 0 0 0-3.128-1.054 23.183 23.183 0 0 0 6.626-4.742l-5.031-2.033a172.462 172.462 0 0 0 15.532-7.737l-4.3-.657a11.558 11.558 0 0 1 3.029-2.863 27.4 27.4 0 0 0-9.218-.474l8.786-4.223-15.5-.261 6.459-4.848c.574-.43 1.214-1.123.881-1.757s-1.4.547-.683.542"/><path data-name="Caminho 40" d="M226.94 165.918l.11 59.256c.011 6 .018 12.04-1.017 17.95-1.654 9.446-5.957 18.53-5.622 28.114"/><path data-name="Caminho 41" d="M227.782 161.527q18.792-33.423 40.722-64.949"/><path data-name="Caminho 42" d="M587.348 81.333c8.312 7.252 13.732 17.2 18.578 27.116 6.408 13.1 12.125 26.532 17.822 39.961 9.978 23.516 20.085 47.936 19.552 73.476"/><path data-name="Caminho 43" d="M274.998 101.351c2.056-.3 2.521-3.03 2.475-5.108l-.81-37.766a169.387 169.387 0 0 0 .87 27.865c4.183.825 7.5-3.4 9.48-7.175a116.369 116.369 0 0 0 12.756-43.162 187.616 187.616 0 0 0 .013 46.451l5.129 1.18a151.837 151.837 0 0 0 6.918-52.345 162.163 162.163 0 0 0 4.561 28.482c1.458 5.75 4.091 12.289 9.838 13.744a111.283 111.283 0 0 0 9.585-34.921 114.13 114.13 0 0 0 .735 28.809c5.5-1.736 8.532-7.5 10.714-12.836a171.127 171.127 0 0 0 8.86-28.6 129.718 129.718 0 0 0 2.394 29.47l6.007-.026a211.287 211.287 0 0 0 16.113-33.826l2.573 28.149c.32 3.512.672 7.133 2.34 10.239s5.009 5.6 8.507 5.154a140.155 140.155 0 0 0 20.275-45.373c-1.913 14.724-3.747 30.174 1.6 44.026 11.282-11.951 14.988-28.966 18.239-45.076a96.309 96.309 0 0 0 1.359 30.062c11.339-9.535 17.529-23.687 23.341-37.314l.669 39.313a158.138 158.138 0 0 0 23.919-31c-.1 12.78-.173 25.716 2.874 38.127a263.242 263.242 0 0 1 30.78-23.861q-.291 12.106.145 24.213a121.8 121.8 0 0 1 25.38-11.429 44.573 44.573 0 0 1 2.027 18.2 64.811 64.811 0 0 0 15.99-16.536c2.62 10.138-3.849 22.729 3.2 30.475l14.807-16.2a35.709 35.709 0 0 1 .493 19.73"/><path data-name="Caminho 44" d="M592.661 111.589q.029-29.392 2.352-58.72c-15.285 1.786-30.713-2.265-44.914-8.194s-27.546-13.729-41.6-19.988c-22.917-10.2-47.443-16.195-71.817-22.132-5.624-1.37-11.435-2.751-17.147-1.81-4.163.683-8.021 2.564-11.774 4.489-10.9 5.587-21.544 11.756-32.982 16.131-15.62 5.977-32.329 8.462-48.4 13.077s-32.17 11.862-42.6 24.935c-4.195 5.257-7.317 11.267-10.411 17.236-1.21 2.334-2.217 5.666-.079 7.2"/><path data-name="Caminho 45" d="M339.696 609.616a108.212 108.212 0 0 0-10.79 29.117c-.877 4.105-1.423 8.728.927 12.206 4.672-3.418 11.184-.352 15.99 2.875s10.9 6.722 15.977 3.934a13.916 13.916 0 0 0 2.922-2.335 68.962 68.962 0 0 0 12.867-17.27c-.942 6.943-3.2 13.657-4.126 20.6s-.337 14.508 3.84 20.133a72.423 72.423 0 0 0 24.041-37.577 172.992 172.992 0 0 0-7.607 36.483l6.335 3.176a208.069 208.069 0 0 0 28.055-32.609c.738 6.069-1.814 11.982-3.354 17.9s-1.781 13 2.555 17.313a123.651 123.651 0 0 0 27.665-30.5c-.067 9.2-6.539 18.541-2.905 26.991 10.833-9.119 18.044-21.713 25.029-34.032l-.657 19.708c-.132 3.946.831 9.217 4.764 9.549a105.166 105.166 0 0 0 19.181-29.409 53.7 53.7 0 0 0 .586 23.885c9.52-9.876 12.434-24.191 14.935-37.678a42.527 42.527 0 0 0 2.371 18.445c4.192 1.794 8.542-2.266 10.753-6.254a59.072 59.072 0 0 0 5.594-15.545"/><path data-name="Caminho 46" d="M376.276 585.607a215.586 215.586 0 0 0-21.529 37.338"/><path data-name="Caminho 47" d="M397.834 591.409a930.108 930.108 0 0 0-50.676 84.939l3.806-.337"/><path data-name="Caminho 48" d="M400.713 644.497q.27 20.234-.529 40.463c-.168 4.255-.167 9.061 2.87 12.046l8.467-2.748"/><path data-name="Caminho 49" d="M458.31 624.581l-1.54 65.605c-.121 5.142.138 11.111 4.253 14.2"/><path data-name="Caminho 50" d="M506.958 591.351c-.019 2.514 1.06 4.891 2.134 7.164a500.863 500.863 0 0 0 36.7 64.7"/><path data-name="Caminho 51" d="M561.283 557.796a367.428 367.428 0 0 0 21.344 42.835"/><path data-name="Caminho 52" d="M649.849 381.157a449.384 449.384 0 0 1-6.792 99.812"/><path data-name="Caminho 53" d="M642.544 447.512a208.9 208.9 0 0 1-16.937 52.3 31.515 31.515 0 0 1 3.467-18.824 130.494 130.494 0 0 0-9.612 24.145 36.394 36.394 0 0 0-.328-12.416c-1.318-.359-2.161 1.362-2.408 2.706a98.336 98.336 0 0 0-1.568 21.177 23.086 23.086 0 0 0-2.932-12.822 105.162 105.162 0 0 0-3.311 22.5 41.814 41.814 0 0 0-2.455-13.84 137.274 137.274 0 0 0-1.458 19.666 48.81 48.81 0 0 0-2.036-15.5 86.345 86.345 0 0 0-.409 19.659 45.441 45.441 0 0 0-.513-18.764 149.854 149.854 0 0 0-11.056 28.329 45.6 45.6 0 0 0 2.182-15.622 34.722 34.722 0 0 0-4.11 10.2"/><path data-name="Caminho 54" d="M226.226 392.783l-4.571 19.2a1.969 1.969 0 0 0 2.418-1.2 196.994 196.994 0 0 0 .755 25.123c.1 1.02.632 2.376 1.63 2.144a40.6 40.6 0 0 1-1.141 9.032"/><path data-name="Caminho 55" d="M228.209 409.763l13.158 70.3c.532 2.846 1.319 6.056 3.858 7.446a41.764 41.764 0 0 0 2.183-14.542 52.086 52.086 0 0 0 4.428 21.205 36.163 36.163 0 0 0 3.561-11 95.2 95.2 0 0 0 2.418 32.946l3.6-14.857 1.251 21.143 3.757-8.837a177.644 177.644 0 0 0 .355 20.5 22.478 22.478 0 0 1 5.341-5.842c-.184 9.395-.262 19.263 4.16 27.556a44.412 44.412 0 0 0 7.666-11.089l2.446 18.651 4.216.849a37.722 37.722 0 0 1 5.209-9.846 44.128 44.128 0 0 0 .508 14.893 23.816 23.816 0 0 0 6.263-7.871c1.4 4.422 5.208 7.582 8.829 10.479a25.585 25.585 0 0 0 4.852 3.3 34.251 34.251 0 0 1 4.259 1.945c2.6 1.707 3.839 4.842 6.025 7.05a11.142 11.142 0 0 0 11.847 2.407"/><path data-name="Caminho 56" d="M577.345 662.223c8.363 10.9 14.175 23.329 25.244 30.6 11.02 7.243 22.5 9.469 29.545 22.067 4.312 7.716 5.466 16.849 5.077 25.68-1.651 37.45-30.342 70.094-65.031 84.3s-74.1 12.488-110.575 3.852-71.026-23.792-106.405-36.187c-12.926-4.529-26.1-8.753-37.834-15.828-30.79-18.575-47.41-53.973-75.432-76.508"/><path data-name="Caminho 57" d="M262.344 681.448c-79.971 44.369-176.721 45.493-262.166 78.1"/><path data-name="Caminho 58" d="M234.345 707.846a83.074 83.074 0 0 1-37.545 14.487c-4.154.51-8.551.775-12.046 3.076-5.188 3.416-6.9 10.294-11.382 14.594-7.358 7.057-19.088 5.085-29.276 5.492-28.2 1.127-51.942 23.7-80.091 25.654"/><path data-name="Caminho 59" d="M636.053 714.819c6.481 17.057 23.494 28.261 41.13 32.945s36.182 3.947 54.429 3.952a642.921 642.921 0 0 1 75.093 4.427c28.457 3.356 59.406 10.2 76.815 32.956"/><path data-name="Caminho 60" d="M802.858 984.109a299.7 299.7 0 0 0 17.429-79.3c.633-7.871.945-15.877-.772-23.583-2.407-10.8-8.622-20.3-12.857-30.522-10.235-24.7-8.579-52.492-6.751-79.166"/><path data-name="Caminho 61" d="M685.017 760.194l2.43 67.707c.21 5.811.474 11.842 3.15 17 3.074 5.924 8.854 9.843 13.863 14.251 14.3 12.584 23.075 30.186 30.594 47.687a557.819 557.819 0 0 1 32.676 102.246"/><path data-name="Caminho 62" d="M11.1 784.292q25.549 105.136 60.652 207.637"/><path data-name="Caminho 63" d="M594.829 691.343a125.769 125.769 0 0 1 12.953 33.132c1.327 5.646 2.25 11.616.671 17.2-1.256 4.44-4.008 8.3-6.951 11.852-18.232 22-44.874 35.21-71.584 45.351-14.234 5.405-29.171 10.185-44.366 9.24-14.936-.928-28.919-7.307-42.506-13.581l-93.8-43.312c-12.356-5.7-24.864-11.5-35.372-20.153-17.129-14.1-27.773-34.783-44.626-49.209"/><path data-name="Caminho 64" d="M408.101 293.978a58.989 58.989 0 0 0-44.931-26.811 4.236 4.236 0 0 1 4.982-.451c-24.066-5.017-48.176 9.07-72.754 8.558"/><path data-name="Caminho 65" d="M469.728 292.412c8.484-2.594 14-10.488 20.675-16.331 9.366-8.2 21.566-12.6 33.868-14.506s24.829-1.468 37.27-1.029l.1 4.49"/><path data-name="Caminho 66" d="M316.519 276.219c1.043 4.444 7.063 5.667 11.39 4.211s8.006-4.578 12.45-5.622l-6.8.179 24.672-.192-12.624 3.43q18.364.908 36.764.6l-11.578 4.248a9.882 9.882 0 0 0 6.309.129c-.2-4.109-3.54-7.532-7.348-9.09s-8.038-1.625-12.152-1.67l4.6.057h-23.834a151.345 151.345 0 0 1 29.375 1.585 48.4 48.4 0 0 0 35.89 18.442"/><path data-name="Caminho 67" d="M487.016 279.333a102.765 102.765 0 0 0 48.827-14.432l-27.713.361q30.161 1.729 60.4.984a118.112 118.112 0 0 0-18.725.6l18.333 3.3 3.461-.138"/><path data-name="Caminho 68" d="M261.651 302.866a91.939 91.939 0 0 0-24.429-4.076 19.2 19.2 0 0 0 22.55 7.464"/><path data-name="Caminho 69" d="M630.071 289.963l-21.979-.19c-1.906 4.963 2.2 10.592 7.235 12.306s10.54.629 15.743-.47a5.213 5.213 0 0 0-4.842-5.672"/></g></g></svg>