<?xml version="1.0" standalone="no"?>
<!DOCTYPE svg PUBLIC "-//W3C//DTD SVG 20010904//EN"
 "http://www.w3.org/TR/2001/REC-SVG-20010904/DTD/svg10.dtd">
<svg version="1.0" xmlns="http://www.w3.org/2000/svg"
 width="672.000000pt" height="672.000000pt" viewBox="0 0 672.000000 672.000000"
 preserveAspectRatio="xMidYMid meet">
<metadata>
Created by potrace 1.11, written by Peter Selinger 2001-2013
</metadata>
<g transform="translate(0.000000,672.000000) scale(0.100000,-0.100000)"
fill="#000000" stroke="none">
<path d="M3278 5696 c-42 -15 -75 -41 -172 -134 -342 -331 -566 -800 -569
-1192 -3 -473 202 -926 593 -1308 98 -96 148 -124 223 -124 79 -1 131 27 233
128 382 375 583 808 582 1254 0 262 -50 466 -174 710 -106 208 -232 378 -414
557 -117 115 -201 145 -302 109z m146 -629 c193 -248 289 -508 281 -767 -4
-117 -8 -144 -36 -246 -34 -126 -83 -231 -167 -364 -40 -63 -121 -171 -137
-183 -28 -21 -219 260 -273 403 -32 85 -60 170 -57 170 3 0 1 10 -4 23 -14 36
-19 81 -26 207 -11 198 40 376 172 599 40 67 168 241 178 241 2 0 33 -37 69
-83z"/>
<path d="M175 5364 c-77 -27 -137 -95 -154 -174 -15 -65 -5 -411 15 -515 57
-311 146 -543 286 -742 174 -248 470 -459 788 -562 110 -35 242 -67 319 -76
30 -4 62 -8 72 -10 10 -2 51 -7 91 -10 70 -6 82 -9 83 -23 1 -8 18 -104 20
-112 5 -18 16 -68 19 -86 2 -11 18 -62 35 -113 211 -631 796 -1092 1455 -1148
324 -28 636 31 917 172 453 226 783 647 899 1143 11 48 22 102 24 120 2 18 5
35 7 37 3 2 31 6 64 9 83 8 141 16 200 26 28 5 61 12 75 14 123 21 302 83 435
149 172 85 373 237 480 363 167 197 306 494 351 754 2 14 9 48 14 75 5 28 12
66 15 85 4 19 8 121 10 227 5 210 -2 256 -49 318 -15 19 -48 47 -74 62 -46 28
-50 28 -227 30 -99 0 -209 -3 -245 -8 -36 -5 -81 -11 -100 -13 -139 -18 -367
-86 -504 -151 -212 -98 -374 -223 -536 -411 -88 -101 -213 -331 -264 -484 -85
-256 -108 -416 -111 -775 -1 -185 -5 -255 -18 -306 -93 -371 -305 -654 -617
-822 -406 -219 -883 -200 -1265 51 -182 120 -327 286 -428 487 -45 91 -93 227
-103 294 -3 20 -7 43 -9 51 -8 28 -16 165 -20 330 -5 188 -10 249 -31 373 -48
284 -157 552 -307 753 -64 85 -202 225 -282 286 -215 163 -482 272 -793 324
-136 23 -482 28 -537 8z m425 -470 c112 -15 170 -28 270 -59 325 -103 556
-316 679 -627 31 -79 67 -205 77 -268 3 -19 7 -42 9 -50 2 -8 7 -45 10 -82 l7
-67 -49 5 c-103 10 -267 46 -365 80 -301 105 -517 297 -632 561 -35 82 -71
188 -81 238 -30 160 -41 241 -36 277 1 6 18 5 111 -8z m5625 -6 c-2 -13 -7
-49 -10 -81 -5 -51 -10 -82 -31 -185 -2 -12 -16 -58 -30 -102 -81 -259 -202
-421 -422 -567 -167 -111 -344 -168 -635 -207 l-38 -5 6 67 c26 282 143 565
306 738 161 172 426 304 682 341 23 3 65 9 92 13 83 12 84 12 80 -12z"/>
<path d="M1182 3071 c-63 -22 -104 -59 -134 -120 -19 -38 -22 -61 -21 -145 4
-273 104 -583 269 -830 21 -32 44 -66 49 -75 6 -9 12 -18 15 -21 3 -3 25 -30
50 -60 57 -71 211 -225 275 -275 28 -22 52 -42 55 -45 3 -3 29 -23 58 -44 28
-21 52 -39 52 -40 0 -1 -22 -2 -50 -3 -169 -4 -276 -185 -199 -335 23 -46 56
-79 104 -106 28 -16 147 -17 1650 -17 1799 0 1643 -6 1713 66 72 74 88 188 38
273 -44 76 -136 128 -210 120 -34 -4 -36 -5 79 81 334 252 581 612 674 983 49
194 61 406 27 472 -74 144 -262 181 -374 73 -53 -50 -70 -99 -77 -214 -3 -57
-7 -111 -10 -119 -2 -8 -6 -33 -10 -54 -3 -22 -19 -79 -35 -127 -211 -629
-950 -1071 -1795 -1072 -532 -1 -1018 158 -1377 450 -87 70 -258 246 -258 265
0 3 -7 14 -16 22 -32 33 -124 202 -154 284 -40 108 -67 240 -74 359 -3 50 -11
106 -19 125 -48 113 -178 170 -295 129z"/>
</g>
</svg>
